<?xml version="1.0" standalone="no"?>
<!DOCTYPE svg PUBLIC "-//W3C//DTD SVG 20010904//EN"
 "http://www.w3.org/TR/2001/REC-SVG-20010904/DTD/svg10.dtd">
<svg version="1.0" xmlns="http://www.w3.org/2000/svg"
 width="1024.000000pt" height="1024.000000pt" viewBox="0 0 1024.000000 1024.000000"
 preserveAspectRatio="xMidYMid meet">
<metadata>
Created by potrace 1.11, written by Peter Selinger 2001-2013
</metadata>
<g transform="translate(0.000000,1024.000000) scale(0.100000,-0.100000)"
fill="#000000" stroke="none">
<path d="M4600 9060 c-181 -28 -286 -122 -368 -330 -127 -319 -2315 -6162
-2327 -6212 -41 -173 10 -288 150 -333 57 -19 90 -20 590 -20 510 0 534 1 623
22 51 12 116 34 145 48 65 33 139 104 176 170 28 49 92 212 106 268 l7 28 -57
-3 -57 -3 -32 -90 c-44 -120 -69 -168 -116 -215 -49 -49 -81 -66 -178 -92 -73
-20 -105 -22 -579 -26 -548 -4 -592 -1 -645 47 -41 37 -48 101 -20 197 25 88
2302 6147 2342 6232 62 133 130 184 267 203 50 7 251 9 549 7 400 -4 476 -6
517 -20 74 -25 124 -63 162 -122 33 -51 136 -326 1826 -4839 600 -1600 587
-1561 540 -1634 -44 -69 -33 -68 -656 -68 -503 0 -567 2 -630 18 -190 48 -256
116 -326 335 l-23 72 -57 0 -57 0 23 -72 c94 -297 179 -387 415 -440 89 -20
129 -21 631 -25 474 -4 543 -3 600 12 91 23 143 57 176 113 25 42 28 56 27
132 0 57 -7 106 -21 150 -42 130 -2315 6187 -2345 6250 -39 80 -114 161 -176
191 -107 51 -123 52 -652 55 -272 1 -520 -2 -550 -6z"/>
<path d="M5000 7830 l0 -60 -55 0 -55 0 0 -60 0 -60 -60 0 -60 0 0 -55 0 -55
-60 0 -60 0 0 -60 0 -60 -60 0 -61 0 3 -117 3 -118 585 0 585 0 3 118 3 117
-61 0 -60 0 0 60 0 60 -60 0 -60 0 0 55 0 55 -60 0 -60 0 0 60 0 60 -55 0 -55
0 0 60 0 60 -120 0 -120 0 0 -60z m240 -120 l0 -60 55 0 55 0 0 -55 0 -55 60
0 60 0 0 -60 0 -60 60 0 60 0 0 -60 0 -60 -470 0 -470 0 0 60 0 60 60 0 60 0
0 60 0 60 60 0 60 0 0 55 0 55 55 0 55 0 0 60 0 60 120 0 120 0 0 -60z"/>
<path d="M4420 7065 l0 -115 55 0 55 0 0 115 0 115 -55 0 -55 0 0 -115z"/>
<path d="M5710 7065 l0 -115 55 0 54 0 3 -117 3 -118 58 -3 57 -3 0 -174 0
-175 60 0 60 0 0 -175 0 -175 60 0 60 0 0 -820 0 -820 55 0 55 0 0 465 0 465
60 0 60 0 0 -175 0 -175 60 0 60 0 0 -235 0 -235 60 0 60 0 0 -235 0 -235 55
0 55 0 2 -407 3 -408 58 -3 57 -3 0 411 0 410 -60 0 -60 0 0 235 0 235 -55 0
-55 0 0 235 0 235 -60 0 -60 0 0 175 0 175 -60 0 -60 0 0 180 0 180 -60 0 -60
0 0 175 0 175 -55 0 -55 0 0 175 0 175 -60 0 -60 0 0 175 0 175 -60 0 -60 0 0
120 0 120 -60 0 -60 0 0 115 0 115 -55 0 -55 0 0 -115z"/>
<path d="M4300 6830 l0 -120 -60 0 -60 0 0 -175 0 -175 -60 0 -60 0 0 -175 0
-175 -55 0 -55 0 0 -175 0 -175 -60 0 -60 0 0 -175 0 -174 58 -3 57 -3 3 -467
2 -468 55 0 55 0 0 820 0 820 60 0 60 0 0 175 0 175 60 0 60 0 0 175 0 174 58
3 57 3 0 115 0 115 -57 3 -58 3 0 -121z"/>
<path d="M5000 6420 l0 -60 -115 0 -114 0 -3 -57 -3 -58 -57 -3 -58 -3 0 -114
0 -115 -60 0 -60 0 0 -115 0 -115 60 0 60 0 0 115 0 115 60 0 60 0 0 60 0 60
60 0 60 0 0 60 0 60 55 0 55 0 0 55 0 55 120 0 120 0 0 -55 0 -55 55 0 55 0 0
-60 0 -60 60 0 60 0 0 -60 0 -60 60 0 60 0 0 -115 0 -115 60 0 60 0 0 115 0
115 -60 0 -60 0 0 115 0 114 -57 3 -58 3 -3 58 -3 57 -114 0 -115 0 0 60 0 60
-120 0 -120 0 0 -60z"/>
<path d="M4650 5655 l0 -115 60 0 60 0 0 -60 0 -60 115 0 115 0 0 -55 0 -55
120 0 120 0 0 55 0 55 115 0 115 0 0 60 0 60 60 0 60 0 0 115 0 115 -60 0 -60
0 0 -55 0 -54 -57 -3 -58 -3 -3 -57 -3 -58 -54 0 -55 0 0 -60 0 -60 -120 0
-120 0 0 60 0 60 -55 0 -54 0 -3 58 -3 57 -57 3 -58 3 0 54 0 55 -60 0 -60 0
0 -115z"/>
<path d="M3710 5125 l0 -175 -60 0 -60 0 0 -235 0 -235 -55 0 -55 0 0 -235 0
-235 -60 0 -60 0 0 -410 0 -411 58 3 57 3 3 408 2 407 55 0 55 0 0 235 0 235
60 0 60 0 0 235 0 235 60 0 60 0 0 175 0 175 -60 0 -60 0 0 -175z"/>
<path d="M4067 4363 c-4 -3 -7 -84 -7 -180 l0 -173 60 0 60 0 0 -115 0 -115
60 0 60 0 0 -120 0 -120 -120 0 -120 0 0 -55 0 -55 -55 0 -55 0 0 -180 0 -180
-60 0 -60 0 0 -55 0 -55 60 0 60 0 0 55 0 55 55 0 55 0 0 120 0 120 60 0 60 0
0 60 0 60 60 0 60 0 0 55 0 55 60 0 60 0 0 -55 0 -55 55 0 55 0 0 55 0 55 590
0 590 0 0 -55 0 -55 55 0 55 0 0 55 0 55 60 0 60 0 0 -55 0 -55 60 0 60 0 0
-60 0 -60 60 0 60 0 0 -120 0 -120 55 0 55 0 0 -55 0 -55 60 0 60 0 0 55 0 55
-60 0 -60 0 0 120 0 120 -55 0 -54 0 -3 58 -3 57 -57 3 -58 3 0 54 0 55 -60 0
-60 0 0 120 0 120 60 0 60 0 0 115 0 115 60 0 60 0 -2 178 -3 177 -57 3 -58 3
0 -181 0 -180 -60 0 -60 0 0 -115 0 -114 -57 -3 -58 -3 -3 -57 -3 -58 -699 0
-699 0 -3 58 -3 57 -57 3 -58 3 0 114 0 115 -60 0 -60 0 0 180 0 180 -53 0
c-30 0 -57 -3 -60 -7z"/>
<path d="M4537 3423 c-4 -3 -7 -30 -7 -60 l0 -53 120 0 120 0 0 -60 0 -60 -60
0 -60 0 0 -175 0 -175 60 0 60 0 0 60 0 60 115 0 115 0 0 55 0 55 -115 0 -115
0 0 60 0 59 58 3 57 3 3 58 3 57 229 0 229 0 3 -57 3 -58 58 -3 57 -3 0 -59 0
-60 -60 0 -60 0 0 -55 0 -55 -55 0 -55 0 0 -120 0 -120 -60 0 -60 0 0 -60 0
-60 60 0 60 0 0 60 0 60 55 0 55 0 0 -115 0 -115 -55 0 -55 0 0 -120 0 -120
-120 0 -120 0 0 60 0 60 -55 0 -55 0 0 -60 0 -60 55 0 55 0 0 -120 0 -120 60
0 60 0 0 60 0 60 60 0 60 0 0 60 0 60 55 0 55 0 0 120 0 120 60 0 60 0 0 115
0 115 60 0 60 0 0 60 0 60 -60 0 -60 0 0 -60 0 -60 -60 0 -60 0 0 120 0 120
120 0 120 0 0 175 0 175 60 0 61 0 -3 58 -3 57 -581 3 c-319 1 -584 -1 -587
-5z"/>
<path d="M3480 3075 l0 -115 55 0 55 0 0 115 0 115 -55 0 -55 0 0 -115z"/>
<path d="M5120 3130 l0 -60 60 0 60 0 0 60 0 60 -60 0 -60 0 0 -60z"/>
<path d="M6650 3075 l0 -115 55 0 55 0 0 115 0 115 -55 0 -55 0 0 -115z"/>
<path d="M3597 2954 c-4 -4 -7 -31 -7 -61 l0 -53 120 0 121 0 -3 58 -3 57
-111 3 c-60 1 -113 -1 -117 -4z"/>
<path d="M6417 2954 c-4 -4 -7 -31 -7 -61 l0 -53 120 0 121 0 -3 58 -3 57
-111 3 c-60 1 -113 -1 -117 -4z"/>
<path d="M4890 2780 l0 -60 -60 0 -60 0 0 -115 0 -115 60 0 60 0 0 115 0 115
55 0 55 0 0 60 0 60 -55 0 -55 0 0 -60z"/>
</g>
</svg>
