<?xml version="1.0" encoding="UTF-8" standalone="no"?>
<!DOCTYPE svg PUBLIC "-//W3C//DTD SVG 1.1//EN" "http://www.w3.org/Graphics/SVG/1.1/DTD/svg11.dtd">
<svg width="100%" height="100%" viewBox="0 0 626 1311" version="1.1" xmlns="http://www.w3.org/2000/svg" xmlns:xlink="http://www.w3.org/1999/xlink" xml:space="preserve" style="fill-rule:evenodd;clip-rule:evenodd;stroke-linejoin:round;stroke-miterlimit:1.41421;">
    <g id="blast" transform="matrix(0.633603,0,0,0.828698,84.9028,59.6662)">
        <rect x="-134" y="-72" width="988" height="1582" style="fill:none;"/>
        <g transform="matrix(4.20873,0,0,3.2179,-132.422,-1424.32)">
            <path d="M102.205,885.754L88.574,867.22L102.205,848.687L88.582,830.165L102.205,811.645L88.574,793.11L102.205,774.576L88.582,756.056L102.205,737.532L88.574,718.998L102.205,700.465L87.233,680.108L84.755,681.931L98.388,700.465L84.755,718.998L98.388,737.532L84.796,756.01L84.755,756.043L84.765,756.056L84.755,756.069L84.796,756.095L98.388,774.576L84.755,793.11L98.388,811.645L84.796,830.123L84.755,830.152L84.765,830.165L84.755,830.179L84.796,830.208L98.388,848.687L84.755,867.22L98.388,885.754L84.755,904.291L87.233,906.11L102.205,885.754Z" style="fill:white;fill-rule:nonzero;"/>
        </g>
        <g transform="matrix(4.20873,0,0,3.2179,-132.422,-1424.32)">
            <path d="M116.658,848.777L103.026,830.244L116.658,811.71L103.035,793.188L116.658,774.665L103.026,756.133L116.658,737.597L103.035,719.077L116.658,700.555L103.026,682.021L116.658,663.488L101.687,643.131L99.208,644.952L112.84,663.488L99.208,682.021L112.84,700.555L99.249,719.034L99.208,719.063L99.218,719.077L99.208,719.09L99.249,719.119L112.84,737.597L99.208,756.131L99.208,756.133L112.84,774.665L99.249,793.143L99.208,793.175L99.218,793.188L99.208,793.202L99.249,793.231L112.84,811.71L99.208,830.244L112.84,848.777L99.208,867.311L101.687,869.133L116.658,848.777Z" style="fill:white;fill-rule:nonzero;"/>
        </g>
        <g transform="matrix(4.20873,0,0,3.2179,-132.422,-1424.32)">
            <path d="M131.111,811.801L117.48,793.268L131.111,774.734L117.489,756.213L131.111,737.69L117.48,719.155L131.111,700.621L117.489,682.101L131.111,663.579L117.48,645.046L131.111,626.512L116.139,606.155L113.663,607.976L127.296,626.512L113.663,645.046L127.296,663.579L113.703,682.058L113.663,682.087L113.673,682.101L113.663,682.114L113.703,682.143L127.294,700.621L113.663,719.155L127.294,737.69L113.703,756.167L113.663,756.199L113.673,756.213L113.663,756.222L113.703,756.255L127.294,774.734L113.663,793.268L127.294,811.801L113.663,830.335L116.139,832.157L131.111,811.801Z" style="fill:white;fill-rule:nonzero;"/>
        </g>
        <g transform="matrix(4.20873,0,0,3.2179,-132.422,-1424.32)">
            <path d="M145.564,774.237L131.932,755.703L145.564,737.168L131.942,718.645L145.564,700.125L131.932,681.591L145.564,663.056L131.942,644.536L145.564,626.015L131.932,607.481L145.564,588.945L130.593,568.59L128.114,570.412L141.747,588.945L128.114,607.481L141.747,626.015L128.155,644.494L128.114,644.523L128.124,644.536L128.114,644.549L128.155,644.578L141.747,663.056L128.114,681.591L141.747,700.125L128.155,718.603L128.114,718.633L128.124,718.645L128.114,718.659L128.155,718.689L141.747,737.168L128.114,755.703L141.747,774.237L128.114,792.77L130.591,794.592L145.564,774.237Z" style="fill:white;fill-rule:nonzero;"/>
        </g>
        <g transform="matrix(4.20873,0,0,3.2179,-132.422,-1424.32)">
            <path d="M160.017,737.552L146.386,719.018L160.017,700.485L146.396,681.963L160.017,663.441L146.386,644.908L160.017,626.373L146.396,607.852L160.017,589.329L146.386,570.795L160.017,552.262L145.046,531.906L142.569,533.728L156.2,552.262L142.569,570.795L156.2,589.329L142.61,607.808L142.569,607.839L142.577,607.852L142.569,607.864L142.61,607.893L156.2,626.373L142.569,644.906L142.569,644.908L156.2,663.441L142.61,681.919L142.569,681.95L142.577,681.963L142.569,681.977L142.61,682.006L156.2,700.485L142.569,719.018L156.2,737.552L142.569,756.085L145.046,757.907L160.017,737.552Z" style="fill:white;fill-rule:nonzero;"/>
        </g>
        <g transform="matrix(4.20873,0,0,3.2179,-132.422,-1424.32)">
            <path d="M173.725,775.599L160.094,757.065L173.725,738.532L160.102,720.01L173.725,701.49L160.094,682.955L173.725,664.422L160.102,645.901L173.725,627.377L160.094,608.843L173.725,590.31L158.754,569.953L156.275,571.776L169.908,590.31L156.275,608.843L169.908,627.377L156.316,645.855L156.275,645.888L156.285,645.901L156.275,645.914L156.316,645.94L169.908,664.422L156.275,682.955L169.908,701.49L156.316,719.968L156.275,719.997L156.285,720.01L156.275,720.024L156.316,720.053L169.908,738.532L156.275,757.065L169.908,775.599L156.275,794.136L158.754,795.955L173.725,775.599Z" style="fill:white;fill-rule:nonzero;"/>
        </g>
        <g transform="matrix(4.20873,0,0,3.2179,-132.422,-1424.32)">
            <path d="M188.179,738.622L174.546,720.089L188.179,701.555L174.556,683.034L188.179,664.51L174.546,645.978L188.179,627.442L174.556,608.922L188.179,590.4L174.546,571.866L188.179,553.333L173.207,532.976L170.729,534.797L184.36,553.333L170.729,571.866L184.36,590.4L170.77,608.879L170.729,608.908L170.739,608.922L170.729,608.935L170.77,608.964L184.36,627.442L170.729,645.976L170.729,645.978L184.36,664.51L170.77,682.988L170.729,683.02L170.739,683.034L170.729,683.047L170.77,683.076L184.36,701.555L170.729,720.089L184.36,738.622L170.729,757.156L173.207,758.978L188.179,738.622Z" style="fill:white;fill-rule:nonzero;"/>
        </g>
        <g transform="matrix(4.20873,0,0,3.2179,-132.422,-1424.32)">
            <path d="M202.631,701.647L189,683.113L202.631,664.579L189.01,646.058L202.631,627.535L189,609.001L202.631,590.466L189.01,571.946L202.631,553.424L189,534.891L202.631,516.357L187.66,496L185.183,497.821L198.816,516.357L185.183,534.891L198.816,553.424L185.224,571.903L185.183,571.932L185.193,571.946L185.183,571.959L185.224,571.988L198.814,590.466L185.183,609.001L198.814,627.535L185.224,646.012L185.183,646.044L185.193,646.058L185.183,646.068L185.224,646.1L198.814,664.579L185.183,683.113L198.814,701.647L185.183,720.18L187.66,722.002L202.631,701.647Z" style="fill:white;fill-rule:nonzero;"/>
        </g>
        <g transform="matrix(4.20873,0,0,3.2179,-132.422,-1424.32)">
            <path d="M217.085,664.082L203.452,645.548L217.085,627.013L203.462,608.49L217.085,589.97L203.452,571.436L217.085,552.901L203.462,534.381L217.085,515.86L203.452,497.326L217.085,478.79L202.113,458.435L199.635,460.257L213.268,478.79L199.635,497.326L213.268,515.86L199.676,534.339L199.635,534.368L199.645,534.381L199.635,534.394L199.676,534.423L213.268,552.901L199.635,571.436L213.268,589.97L199.676,608.448L199.635,608.478L199.645,608.49L199.635,608.504L199.676,608.534L213.268,627.013L199.635,645.548L213.268,664.082L199.635,682.616L202.112,684.437L217.085,664.082Z" style="fill:white;fill-rule:nonzero;"/>
        </g>
        <g transform="matrix(4.20873,0,0,3.2179,-132.422,-1424.32)">
            <path d="M231.537,627.396L217.906,608.863L231.537,590.329L217.916,571.807L231.537,553.286L217.906,534.752L231.537,516.217L217.916,497.696L231.537,479.174L217.906,460.64L231.537,442.107L216.566,421.751L214.089,423.572L227.72,442.107L214.089,460.64L227.72,479.174L214.13,497.652L214.089,497.683L214.097,497.696L214.089,497.708L214.13,497.737L227.72,516.217L214.089,534.751L214.089,534.752L227.72,553.286L214.13,571.763L214.089,571.795L214.097,571.807L214.089,571.821L214.13,571.85L227.72,590.329L214.089,608.863L227.72,627.396L214.089,645.93L216.566,647.752L231.537,627.396Z" style="fill:white;fill-rule:nonzero;"/>
        </g>
        <g transform="matrix(4.20873,0,0,3.2179,-132.422,-1424.32)">
            <path d="M112.283,636.94L0,684.91L0,687.743L107.319,641.894L80.114,669.049L0,691.621L0,694.328L78.586,672.186L78.586,734.815L0,712.674L0,715.383L80.114,737.954L107.319,765.108L0,719.26L0,722.093L112.283,770.065L112.338,770.12L112.36,770.098L112.396,770.11L112.431,770.026L146.091,736.429L146.091,670.573L112.431,636.977L112.396,636.891L112.36,636.906L112.338,636.883L112.283,636.94ZM81.192,735.349L81.192,671.654L112.338,640.564L143.484,671.654L143.484,735.349L112.338,766.44L81.192,735.349Z" style="fill:rgb(244,118,33);fill-rule:nonzero;"/>
        </g>
    </g>
</svg>
