<svg xmlns="http://www.w3.org/2000/svg" xmlns:xlink="http://www.w3.org/1999/xlink" viewBox="0 0 334 99"><defs><style>.cls-1{fill:none;}.cls-2{fill:#073c5e;}.cls-3{fill:#fff;}.cls-4{fill:url(#New_Pattern);}.cls-5{fill:#f47621;}</style><pattern id="New_Pattern" data-name="New Pattern" width="43" height="43" patternTransform="translate(32.75 -12.25)" patternUnits="userSpaceOnUse" viewBox="0 0 43 43"><rect class="cls-1" width="43" height="43"/><path class="cls-2" d="M42.72,38.27a.75.75,0,0,1,.74.75h0a.75.75,0,0,1-.74.75h0A.75.75,0,0,1,42,39h0a.75.75,0,0,1,.75-.75Z"/><path class="cls-2" d="M42.72,32.88a.74.74,0,0,1,.74.74h0a.75.75,0,0,1-.74.75h0a.75.75,0,0,1-.75-.75h0a.75.75,0,0,1,.75-.74Z"/><path class="cls-2" d="M42.72,27.49a.74.74,0,0,1,.74.75h0a.75.75,0,0,1-.74.74h0a.75.75,0,0,1-.75-.74h0a.75.75,0,0,1,.75-.75Z"/><path class="cls-2" d="M42.72,22.1a.74.74,0,0,1,.74.74h0a.74.74,0,0,1-.74.75h0a.75.75,0,0,1-.75-.75h0a.75.75,0,0,1,.75-.74Z"/><path class="cls-2" d="M42.72,16.71a.75.75,0,0,1,.74.74h0a.75.75,0,0,1-.74.75h0a.75.75,0,0,1-.75-.75h0a.75.75,0,0,1,.75-.74Z"/><path class="cls-2" d="M42.72,11.32a.74.74,0,0,1,.74.74h0a.75.75,0,0,1-.74.75h0a.75.75,0,0,1-.75-.75h0a.75.75,0,0,1,.75-.74Z"/><path class="cls-2" d="M42.72,5.93a.75.75,0,0,1,.74.75h0a.75.75,0,0,1-.74.74h0A.75.75,0,0,1,42,6.68h0a.75.75,0,0,1,.75-.75Z"/><path class="cls-2" d="M42.72.54a.74.74,0,0,1,.74.74h0a.75.75,0,0,1-.74.75h0A.75.75,0,0,1,42,1.28h0a.75.75,0,0,1,.75-.74Z"/><path class="cls-2" d="M-.28,38.27A.75.75,0,0,1,.46,39h0a.75.75,0,0,1-.74.75h0A.75.75,0,0,1-1,39h0a.75.75,0,0,1,.75-.75Z"/><path class="cls-2" d="M-.28,32.88a.74.74,0,0,1,.74.74h0a.75.75,0,0,1-.74.75h0A.75.75,0,0,1-1,33.63h0a.75.75,0,0,1,.75-.74Z"/><path class="cls-2" d="M-.28,27.49a.74.74,0,0,1,.74.75h0A.75.75,0,0,1-.28,29h0A.75.75,0,0,1-1,28.24h0a.75.75,0,0,1,.75-.75Z"/><path class="cls-2" d="M-.28,22.1a.74.74,0,0,1,.74.74h0a.74.74,0,0,1-.74.75h0A.75.75,0,0,1-1,22.85h0a.75.75,0,0,1,.75-.74Z"/><path class="cls-2" d="M-.28,16.71a.75.75,0,0,1,.74.74h0a.75.75,0,0,1-.74.75h0A.75.75,0,0,1-1,17.46h0a.75.75,0,0,1,.75-.74Z"/><path class="cls-2" d="M-.28,11.32a.74.74,0,0,1,.74.74h0a.75.75,0,0,1-.74.75h0A.75.75,0,0,1-1,12.07h0a.75.75,0,0,1,.75-.74Z"/><path class="cls-2" d="M-.28,5.93a.75.75,0,0,1,.74.75h0a.75.75,0,0,1-.74.74h0A.75.75,0,0,1-1,6.68h0a.75.75,0,0,1,.75-.75Z"/><path class="cls-2" d="M-.28.54a.74.74,0,0,1,.74.74h0A.75.75,0,0,1-.28,2h0A.75.75,0,0,1-1,1.28h0A.75.75,0,0,1-.28.54Z"/><path class="cls-2" d="M2.7,41a.74.74,0,0,1,.74.74h0a.75.75,0,0,1-.74.75h0A.75.75,0,0,1,2,41.71H2A.75.75,0,0,1,2.7,41Z"/><path class="cls-2" d="M2.7,35.58a.74.74,0,0,1,.74.74h0a.74.74,0,0,1-.74.75h0A.75.75,0,0,1,2,36.32H2a.75.75,0,0,1,.75-.74Z"/><path class="cls-2" d="M2.7,30.19a.75.75,0,0,1,.74.75h0a.75.75,0,0,1-.74.75h0A.75.75,0,0,1,2,30.93H2a.75.75,0,0,1,.75-.75Z"/><path class="cls-2" d="M2.7,24.8a.75.75,0,0,1,.74.75h0a.75.75,0,0,1-.74.75h0A.75.75,0,0,1,2,25.54H2a.75.75,0,0,1,.75-.75Z"/><path class="cls-2" d="M2.7,19.41a.75.75,0,0,1,.74.75h0a.75.75,0,0,1-.74.75h0A.75.75,0,0,1,2,20.15H2a.75.75,0,0,1,.75-.75Z"/><path class="cls-2" d="M2.7,14a.75.75,0,0,1,.74.75h0a.75.75,0,0,1-.74.75h0A.75.75,0,0,1,2,14.76H2A.75.75,0,0,1,2.7,14Z"/><path class="cls-2" d="M2.7,8.63a.75.75,0,0,1,.74.75h0a.75.75,0,0,1-.74.75h0A.75.75,0,0,1,2,9.37H2a.75.75,0,0,1,.75-.75Z"/><path class="cls-2" d="M2.7,3.24A.75.75,0,0,1,3.44,4h0a.75.75,0,0,1-.74.75h0A.75.75,0,0,1,2,4H2a.75.75,0,0,1,.75-.75Z"/><path class="cls-2" d="M5.94,38.27a.75.75,0,0,1,.74.75h0a.75.75,0,0,1-.74.75h0A.75.75,0,0,1,5.2,39h0a.75.75,0,0,1,.75-.75Z"/><path class="cls-2" d="M5.94,32.88a.74.74,0,0,1,.74.74h0a.75.75,0,0,1-.74.75h0a.75.75,0,0,1-.75-.75h0a.74.74,0,0,1,.75-.74Z"/><path class="cls-2" d="M5.94,27.49a.74.74,0,0,1,.74.75h0a.75.75,0,0,1-.74.74h0a.75.75,0,0,1-.75-.74h0a.74.74,0,0,1,.75-.75Z"/><path class="cls-2" d="M5.94,22.1a.74.74,0,0,1,.74.74h0a.74.74,0,0,1-.74.75h0a.75.75,0,0,1-.75-.75h0a.74.74,0,0,1,.75-.74Z"/><path class="cls-2" d="M5.94,16.71a.75.75,0,0,1,.74.74h0a.75.75,0,0,1-.74.75h0a.75.75,0,0,1-.75-.75h0a.75.75,0,0,1,.75-.74Z"/><path class="cls-2" d="M5.94,11.32a.74.74,0,0,1,.74.74h0a.75.75,0,0,1-.74.75h0a.75.75,0,0,1-.75-.75h0a.74.74,0,0,1,.75-.74Z"/><path class="cls-2" d="M5.94,5.93a.74.74,0,0,1,.74.75h0a.75.75,0,0,1-.74.74h0a.75.75,0,0,1-.75-.74h0a.75.75,0,0,1,.75-.75Z"/><path class="cls-2" d="M5.94.54a.74.74,0,0,1,.74.74h0A.75.75,0,0,1,5.94,2h0a.75.75,0,0,1-.75-.75h0A.74.74,0,0,1,5.94.54Z"/><path class="cls-2" d="M8.92,41a.74.74,0,0,1,.74.74h0a.75.75,0,0,1-.74.75h0a.75.75,0,0,1-.75-.75h0A.75.75,0,0,1,8.92,41Z"/><path class="cls-2" d="M8.92,35.58a.74.74,0,0,1,.74.74h0a.74.74,0,0,1-.74.75h0a.75.75,0,0,1-.75-.75h0a.75.75,0,0,1,.75-.74Z"/><path class="cls-2" d="M8.92,30.19a.75.75,0,0,1,.74.75h0a.75.75,0,0,1-.74.75h0a.75.75,0,0,1-.75-.75h0a.75.75,0,0,1,.75-.75Z"/><path class="cls-2" d="M8.92,24.8a.75.75,0,0,1,.74.75h0a.75.75,0,0,1-.74.75h0a.75.75,0,0,1-.75-.75h0a.75.75,0,0,1,.75-.75Z"/><path class="cls-2" d="M8.92,19.41a.75.75,0,0,1,.74.75h0a.75.75,0,0,1-.74.75h0a.75.75,0,0,1-.75-.75h0a.75.75,0,0,1,.75-.75Z"/><path class="cls-2" d="M8.92,14a.74.74,0,0,1,.74.75h0a.75.75,0,0,1-.74.75h0a.75.75,0,0,1-.75-.75h0A.75.75,0,0,1,8.92,14Z"/><path class="cls-2" d="M8.92,8.63a.75.75,0,0,1,.74.75h0a.75.75,0,0,1-.74.75h0a.75.75,0,0,1-.75-.75h0a.75.75,0,0,1,.75-.75Z"/><path class="cls-2" d="M8.92,3.24A.75.75,0,0,1,9.67,4h0a.75.75,0,0,1-.74.75h0A.75.75,0,0,1,8.18,4h0a.75.75,0,0,1,.75-.75Z"/><path class="cls-2" d="M12.17,38.27a.75.75,0,0,1,.74.75h0a.75.75,0,0,1-.74.75h0a.75.75,0,0,1-.75-.75h0a.75.75,0,0,1,.75-.75Z"/><path class="cls-2" d="M12.17,32.88a.74.74,0,0,1,.74.74h0a.75.75,0,0,1-.74.75h0a.75.75,0,0,1-.75-.75h0a.75.75,0,0,1,.75-.74Z"/><path class="cls-2" d="M12.17,27.49a.74.74,0,0,1,.74.75h0a.75.75,0,0,1-.74.74h0a.75.75,0,0,1-.75-.74h0a.75.75,0,0,1,.75-.75Z"/><path class="cls-2" d="M12.17,22.1a.74.74,0,0,1,.74.74h0a.74.74,0,0,1-.74.75h0a.75.75,0,0,1-.75-.75h0a.75.75,0,0,1,.75-.74Z"/><path class="cls-2" d="M12.17,16.71a.75.75,0,0,1,.74.74h0a.75.75,0,0,1-.74.75h0a.75.75,0,0,1-.75-.75h0a.75.75,0,0,1,.75-.74Z"/><path class="cls-2" d="M12.17,11.32a.74.74,0,0,1,.74.74h0a.75.75,0,0,1-.74.75h0a.75.75,0,0,1-.75-.75h0a.75.75,0,0,1,.75-.74Z"/><path class="cls-2" d="M12.17,5.93a.75.75,0,0,1,.74.75h0a.75.75,0,0,1-.74.74h0a.75.75,0,0,1-.75-.74h0a.75.75,0,0,1,.75-.75Z"/><path class="cls-2" d="M12.17.54a.74.74,0,0,1,.74.74h0a.75.75,0,0,1-.74.75h0a.75.75,0,0,1-.75-.75h0a.75.75,0,0,1,.75-.74Z"/><path class="cls-2" d="M15.15,41a.74.74,0,0,1,.74.74h0a.75.75,0,0,1-.74.75h0a.74.74,0,0,1-.74-.75h0a.74.74,0,0,1,.74-.74Z"/><path class="cls-2" d="M15.15,35.58a.74.74,0,0,1,.74.74h0a.74.74,0,0,1-.74.75h0a.74.74,0,0,1-.74-.75h0a.74.74,0,0,1,.74-.74Z"/><path class="cls-2" d="M15.15,30.19a.75.75,0,0,1,.74.75h0a.75.75,0,0,1-.74.75h0a.74.74,0,0,1-.74-.75h0a.74.74,0,0,1,.74-.75Z"/><path class="cls-2" d="M15.15,24.8a.75.75,0,0,1,.74.75h0a.75.75,0,0,1-.74.75h0a.74.74,0,0,1-.74-.75h0a.74.74,0,0,1,.74-.75Z"/><path class="cls-2" d="M15.15,19.41a.75.75,0,0,1,.74.75h0a.75.75,0,0,1-.74.75h0a.74.74,0,0,1-.74-.75h0a.74.74,0,0,1,.74-.75Z"/><path class="cls-2" d="M15.15,14a.74.74,0,0,1,.74.75h0a.75.75,0,0,1-.74.75h0a.74.74,0,0,1-.74-.75h0a.74.74,0,0,1,.74-.75Z"/><path class="cls-2" d="M15.15,8.63a.75.75,0,0,1,.74.75h0a.75.75,0,0,1-.74.75h0a.74.74,0,0,1-.74-.75h0a.74.74,0,0,1,.74-.75Z"/><path class="cls-2" d="M15.15,3.24a.75.75,0,0,1,.74.75h0a.75.75,0,0,1-.74.75h0A.74.74,0,0,1,14.4,4h0a.74.74,0,0,1,.74-.75Z"/><path class="cls-2" d="M18.39,38.27a.75.75,0,0,1,.74.75h0a.75.75,0,0,1-.74.75h0a.75.75,0,0,1-.75-.75h0a.75.75,0,0,1,.75-.75Z"/><path class="cls-2" d="M18.39,32.88a.74.74,0,0,1,.74.74h0a.75.75,0,0,1-.74.75h0a.75.75,0,0,1-.75-.75h0a.75.75,0,0,1,.75-.74Z"/><path class="cls-2" d="M18.39,27.49a.74.74,0,0,1,.74.75h0a.75.75,0,0,1-.74.74h0a.75.75,0,0,1-.75-.74h0a.75.75,0,0,1,.75-.75Z"/><path class="cls-2" d="M18.39,22.1a.74.74,0,0,1,.74.74h0a.74.74,0,0,1-.74.75h0a.75.75,0,0,1-.75-.75h0a.75.75,0,0,1,.75-.74Z"/><path class="cls-2" d="M18.39,16.71a.75.75,0,0,1,.74.74h0a.75.75,0,0,1-.74.75h0a.75.75,0,0,1-.75-.75h0a.75.75,0,0,1,.75-.74Z"/><path class="cls-2" d="M18.39,11.32a.74.74,0,0,1,.74.74h0a.75.75,0,0,1-.74.75h0a.75.75,0,0,1-.75-.75h0a.75.75,0,0,1,.75-.74Z"/><path class="cls-2" d="M18.39,5.93a.74.74,0,0,1,.74.75h0a.75.75,0,0,1-.74.74h0a.75.75,0,0,1-.75-.74h0a.75.75,0,0,1,.75-.75Z"/><path class="cls-2" d="M18.39.54a.74.74,0,0,1,.74.74h0a.75.75,0,0,1-.74.75h0a.75.75,0,0,1-.75-.75h0a.75.75,0,0,1,.75-.74Z"/><path class="cls-2" d="M21.37,41a.74.74,0,0,1,.75.74h0a.74.74,0,0,1-.75.75h0a.74.74,0,0,1-.74-.75h0a.74.74,0,0,1,.74-.74Z"/><path class="cls-2" d="M21.37,35.58a.74.74,0,0,1,.75.74h0a.74.74,0,0,1-.75.75h0a.74.74,0,0,1-.74-.75h0a.74.74,0,0,1,.74-.74Z"/><path class="cls-2" d="M21.37,30.19a.74.74,0,0,1,.75.75h0a.74.74,0,0,1-.75.75h0a.74.74,0,0,1-.74-.75h0a.74.74,0,0,1,.74-.75Z"/><path class="cls-2" d="M21.37,24.8a.75.75,0,0,1,.75.75h0a.74.74,0,0,1-.75.75h0a.74.74,0,0,1-.74-.75h0a.74.74,0,0,1,.74-.75Z"/><path class="cls-2" d="M21.37,19.41a.74.74,0,0,1,.75.75h0a.74.74,0,0,1-.75.75h0a.74.74,0,0,1-.74-.75h0a.74.74,0,0,1,.74-.75Z"/><path class="cls-2" d="M21.37,14a.74.74,0,0,1,.75.75h0a.74.74,0,0,1-.75.75h0a.74.74,0,0,1-.74-.75h0a.74.74,0,0,1,.74-.75Z"/><path class="cls-2" d="M21.37,8.63a.74.74,0,0,1,.75.75h0a.74.74,0,0,1-.75.75h0a.74.74,0,0,1-.74-.75h0a.74.74,0,0,1,.74-.75Z"/><path class="cls-2" d="M21.37,3.24a.74.74,0,0,1,.75.75h0a.74.74,0,0,1-.75.75h0A.74.74,0,0,1,20.62,4h0a.74.74,0,0,1,.74-.75Z"/><path class="cls-2" d="M24.61,38.27a.75.75,0,0,1,.74.75h0a.75.75,0,0,1-.74.75h0a.74.74,0,0,1-.74-.75h0a.74.74,0,0,1,.74-.75Z"/><path class="cls-2" d="M24.61,32.88a.74.74,0,0,1,.74.74h0a.75.75,0,0,1-.74.75h0a.74.74,0,0,1-.74-.75h0a.74.74,0,0,1,.74-.74Z"/><path class="cls-2" d="M24.61,27.49a.74.74,0,0,1,.74.75h0a.75.75,0,0,1-.74.74h0a.74.74,0,0,1-.74-.74h0a.74.74,0,0,1,.74-.75Z"/><path class="cls-2" d="M24.61,22.1a.74.74,0,0,1,.74.74h0a.74.74,0,0,1-.74.75h0a.74.74,0,0,1-.74-.75h0a.74.74,0,0,1,.74-.74Z"/><path class="cls-2" d="M24.61,16.71a.75.75,0,0,1,.74.74h0a.75.75,0,0,1-.74.75h0a.74.74,0,0,1-.74-.75h0a.74.74,0,0,1,.74-.74Z"/><path class="cls-2" d="M24.61,11.32a.74.74,0,0,1,.74.74h0a.75.75,0,0,1-.74.75h0a.74.74,0,0,1-.74-.75h0a.74.74,0,0,1,.74-.74Z"/><path class="cls-2" d="M24.61,5.93a.74.74,0,0,1,.74.75h0a.75.75,0,0,1-.74.74h0a.74.74,0,0,1-.74-.74h0a.74.74,0,0,1,.74-.75Z"/><path class="cls-2" d="M24.61.54a.74.74,0,0,1,.74.74h0a.75.75,0,0,1-.74.75h0a.74.74,0,0,1-.74-.75h0a.74.74,0,0,1,.74-.74Z"/><path class="cls-2" d="M27.59,41a.74.74,0,0,1,.74.74h0a.74.74,0,0,1-.74.75h0a.75.75,0,0,1-.75-.75h0a.74.74,0,0,1,.75-.74Z"/><path class="cls-2" d="M27.59,35.58a.74.74,0,0,1,.74.74h0a.74.74,0,0,1-.74.75h0a.75.75,0,0,1-.75-.75h0a.74.74,0,0,1,.75-.74Z"/><path class="cls-2" d="M27.59,30.19a.74.74,0,0,1,.74.75h0a.74.74,0,0,1-.74.75h0a.75.75,0,0,1-.75-.75h0a.75.75,0,0,1,.75-.75Z"/><path class="cls-2" d="M27.59,24.8a.74.74,0,0,1,.74.75h0a.74.74,0,0,1-.74.75h0a.75.75,0,0,1-.75-.75h0a.75.75,0,0,1,.75-.75Z"/><path class="cls-2" d="M27.59,19.41a.74.74,0,0,1,.74.75h0a.74.74,0,0,1-.74.75h0a.75.75,0,0,1-.75-.75h0a.75.75,0,0,1,.75-.75Z"/><path class="cls-2" d="M27.59,14a.74.74,0,0,1,.74.75h0a.74.74,0,0,1-.74.75h0a.75.75,0,0,1-.75-.75h0a.75.75,0,0,1,.75-.75Z"/><path class="cls-2" d="M27.59,8.63a.74.74,0,0,1,.74.75h0a.74.74,0,0,1-.74.75h0a.75.75,0,0,1-.75-.75h0a.75.75,0,0,1,.75-.75Z"/><path class="cls-2" d="M27.59,3.24a.74.74,0,0,1,.74.75h0a.74.74,0,0,1-.74.75h0A.75.75,0,0,1,26.85,4h0a.75.75,0,0,1,.75-.75Z"/><path class="cls-2" d="M30.84,38.27a.75.75,0,0,1,.74.75h0a.75.75,0,0,1-.74.75h0a.75.75,0,0,1-.74-.75h0a.75.75,0,0,1,.74-.75Z"/><path class="cls-2" d="M30.84,32.88a.74.74,0,0,1,.74.74h0a.75.75,0,0,1-.74.75h0a.75.75,0,0,1-.74-.75h0a.74.74,0,0,1,.74-.74Z"/><path class="cls-2" d="M30.84,27.49a.74.74,0,0,1,.74.75h0a.75.75,0,0,1-.74.74h0a.75.75,0,0,1-.74-.74h0a.74.74,0,0,1,.74-.75Z"/><path class="cls-2" d="M30.84,22.1a.74.74,0,0,1,.74.74h0a.74.74,0,0,1-.74.75h0a.74.74,0,0,1-.74-.75h0a.74.74,0,0,1,.74-.74Z"/><path class="cls-2" d="M30.84,16.71a.75.75,0,0,1,.74.74h0a.75.75,0,0,1-.74.75h0a.75.75,0,0,1-.74-.75h0a.75.75,0,0,1,.74-.74Z"/><path class="cls-2" d="M30.84,11.32a.74.74,0,0,1,.74.74h0a.75.75,0,0,1-.74.75h0a.75.75,0,0,1-.74-.75h0a.74.74,0,0,1,.74-.74Z"/><path class="cls-2" d="M30.84,5.93a.74.74,0,0,1,.74.75h0a.75.75,0,0,1-.74.74h0a.75.75,0,0,1-.74-.74h0a.75.75,0,0,1,.74-.75Z"/><path class="cls-2" d="M30.84.54a.74.74,0,0,1,.74.74h0a.75.75,0,0,1-.74.75h0a.75.75,0,0,1-.74-.75h0a.74.74,0,0,1,.74-.74Z"/><path class="cls-2" d="M33.82,41a.74.74,0,0,1,.74.74h0a.74.74,0,0,1-.74.75h0a.74.74,0,0,1-.74-.75h0a.74.74,0,0,1,.74-.74Z"/><path class="cls-2" d="M33.82,35.58a.74.74,0,0,1,.74.74h0a.74.74,0,0,1-.74.75h0a.74.74,0,0,1-.74-.75h0a.74.74,0,0,1,.74-.74Z"/><path class="cls-2" d="M33.82,30.19a.74.74,0,0,1,.74.75h0a.74.74,0,0,1-.74.75h0a.74.74,0,0,1-.74-.75h0a.74.74,0,0,1,.74-.75Z"/><path class="cls-2" d="M33.82,24.8a.74.74,0,0,1,.74.75h0a.74.74,0,0,1-.74.75h0a.74.74,0,0,1-.74-.75h0a.74.74,0,0,1,.74-.75Z"/><path class="cls-2" d="M33.82,19.41a.74.74,0,0,1,.74.75h0a.74.74,0,0,1-.74.75h0a.74.74,0,0,1-.74-.75h0a.74.74,0,0,1,.74-.75Z"/><path class="cls-2" d="M33.82,14a.74.74,0,0,1,.74.75h0a.74.74,0,0,1-.74.75h0a.74.74,0,0,1-.74-.75h0a.74.74,0,0,1,.74-.75Z"/><path class="cls-2" d="M33.82,8.63a.74.74,0,0,1,.74.75h0a.74.74,0,0,1-.74.75h0a.74.74,0,0,1-.74-.75h0a.74.74,0,0,1,.74-.75Z"/><path class="cls-2" d="M33.82,3.24a.74.74,0,0,1,.74.75h0a.74.74,0,0,1-.74.75h0A.74.74,0,0,1,33.07,4h0a.74.74,0,0,1,.74-.75Z"/><path class="cls-2" d="M37.06,38.27a.74.74,0,0,1,.75.75h0a.74.74,0,0,1-.75.75h0a.75.75,0,0,1-.74-.75h0a.75.75,0,0,1,.74-.75Z"/><path class="cls-2" d="M37.06,32.88a.74.74,0,0,1,.75.74h0a.74.74,0,0,1-.75.75h0a.75.75,0,0,1-.74-.75h0a.74.74,0,0,1,.74-.74Z"/><path class="cls-2" d="M37.06,27.49a.74.74,0,0,1,.75.75h0a.74.74,0,0,1-.75.74h0a.75.75,0,0,1-.74-.74h0a.74.74,0,0,1,.74-.75Z"/><path class="cls-2" d="M37.06,22.1a.74.74,0,0,1,.75.74h0a.74.74,0,0,1-.75.75h0a.74.74,0,0,1-.74-.75h0a.74.74,0,0,1,.74-.74Z"/><path class="cls-2" d="M37.06,16.71a.74.74,0,0,1,.75.74h0a.74.74,0,0,1-.75.75h0a.75.75,0,0,1-.74-.75h0a.75.75,0,0,1,.74-.74Z"/><path class="cls-2" d="M37.06,11.32a.74.74,0,0,1,.75.74h0a.74.74,0,0,1-.75.75h0a.75.75,0,0,1-.74-.75h0a.74.74,0,0,1,.74-.74Z"/><path class="cls-2" d="M37.06,5.93a.74.74,0,0,1,.75.75h0a.74.74,0,0,1-.75.74h0a.75.75,0,0,1-.74-.74h0a.74.74,0,0,1,.74-.75Z"/><path class="cls-2" d="M37.06.54a.74.74,0,0,1,.75.74h0a.74.74,0,0,1-.75.75h0a.75.75,0,0,1-.74-.75h0a.74.74,0,0,1,.74-.74Z"/><path class="cls-2" d="M40,41a.74.74,0,0,1,.74.74h0a.74.74,0,0,1-.74.75h0a.74.74,0,0,1-.74-.75h0A.74.74,0,0,1,40,41Z"/><path class="cls-2" d="M40,35.58a.74.74,0,0,1,.74.74h0a.74.74,0,0,1-.74.75h0a.74.74,0,0,1-.74-.75h0a.74.74,0,0,1,.74-.74Z"/><path class="cls-2" d="M40,30.19a.74.74,0,0,1,.74.75h0a.74.74,0,0,1-.74.75h0a.74.74,0,0,1-.74-.75h0a.74.74,0,0,1,.74-.75Z"/><path class="cls-2" d="M40,24.8a.74.74,0,0,1,.74.75h0a.74.74,0,0,1-.74.75h0a.74.74,0,0,1-.74-.75h0A.74.74,0,0,1,40,24.8Z"/><path class="cls-2" d="M40,19.41a.74.74,0,0,1,.74.75h0a.74.74,0,0,1-.74.75h0a.74.74,0,0,1-.74-.75h0a.74.74,0,0,1,.74-.75Z"/><path class="cls-2" d="M40,14a.74.74,0,0,1,.74.75h0a.74.74,0,0,1-.74.75h0a.74.74,0,0,1-.74-.75h0A.74.74,0,0,1,40,14Z"/><path class="cls-2" d="M40,8.63a.74.74,0,0,1,.74.75h0a.74.74,0,0,1-.74.75h0a.74.74,0,0,1-.74-.75h0A.74.74,0,0,1,40,8.63Z"/><path class="cls-2" d="M40,3.24a.74.74,0,0,1,.74.75h0a.74.74,0,0,1-.74.75h0A.74.74,0,0,1,39.29,4h0A.74.74,0,0,1,40,3.24Z"/></pattern></defs><title>call-for-vol</title><g id="Layer_2" data-name="Layer 2"><g id="Layer_4" data-name="Layer 4"><rect class="cls-3" x="3.17" y="3.16" width="312.91" height="78.8"/><path class="cls-2" d="M319.49.25V85.38H.25V.25Zm-3.16,82V3.41H3.42v78.8Z" transform="translate(-0.25 -0.25)"/><polygon class="cls-4" points="319.24 0 334.23 13.84 334.23 98.97 319.24 85.13 319.24 0"/><polygon class="cls-5" points="319.24 85.13 318.19 85.13 318.19 85.12 4.05 85.12 4.06 85.13 0 85.13 14.99 98.97 334.23 98.97 319.24 85.13"/><path class="cls-2" d="M40.3,34.85c3.43,0,5.52,1.66,6.26,3.8.29.83.06,1.2-.74,1.49l-1.83.6c-.83.32-1.2.12-1.52-.71a2.31,2.31,0,0,0-2.34-1.46c-1.54,0-2.32.74-2.32,2.14v4c0,1.4.77,2.14,2.32,2.14a2.31,2.31,0,0,0,2.34-1.46c.31-.8.66-.94,1.52-.69l1.86.57c.8.26,1.09.66.74,1.52-1,2.37-3.06,3.77-6.58,3.77-4.55,0-6.52-2.29-6.52-6.06v-3.6C33.49,37.16,35.61,34.85,40.3,34.85Z" transform="translate(-0.25 -0.25)"/><path class="cls-2" d="M56,34.85c4.83,0,6.38,2.52,6.38,6v7.26c0,1-.23,1.32-1.06,1.66a14.4,14.4,0,0,1-5.4.77c-5.2,0-6.55-1.66-6.55-4.72,0-3.57,2-4.69,6.66-4.69.74,0,1.57,0,2,.06v-.63c0-1.4-.63-2.12-2.2-2.12a2.7,2.7,0,0,0-2.37,1.06c-.46.63-.69.77-1.46.46l-1.57-.66c-.74-.31-1-.71-.57-1.52C50.9,35.93,52.93,34.85,56,34.85Zm-.34,9.61c-1.63,0-2,.6-2,1.37s.31,1.4,1.92,1.4a15.89,15.89,0,0,0,2.26-.11c.11,0,.2-.06.2-.2v-2.4C57.54,44.51,56.45,44.45,55.68,44.45Z" transform="translate(-0.25 -0.25)"/><path class="cls-2" d="M69.66,50.15H67.43c-.77,0-1-.26-1-1.06V30c0-.8.26-1.06,1-1.06h2.23c.8,0,1.06.26,1.06,1.06v19C70.72,49.89,70.46,50.15,69.66,50.15Z" transform="translate(-0.25 -0.25)"/><path class="cls-2" d="M78.26,50.15H76c-.77,0-1-.26-1-1.06V30c0-.8.26-1.06,1-1.06h2.23c.8,0,1.06.26,1.06,1.06v19C79.32,49.89,79.06,50.15,78.26,50.15Z" transform="translate(-0.25 -0.25)"/><path class="cls-2" d="M99.56,30.07v1.66c0,.83-.29,1.09-1.09,1.09-1.92,0-2.6.74-2.6,2.37v.09h2.63c.77,0,1.06.26,1.06,1.06V38c0,.8-.29,1.06-1.06,1.06H95.88v10c0,.8-.26,1.06-1.09,1.06H92.62c-.8,0-1.06-.26-1.06-1.06v-10H90.3c-.77,0-1-.26-1-1.06V36.33c0-.8.26-1.06,1-1.06h1.26v-.09c0-4,2.2-6.15,6.55-6.21h.37C99.28,29,99.56,29.24,99.56,30.07Z" transform="translate(-0.25 -0.25)"/><path class="cls-2" d="M108.68,34.85c4.52,0,6.83,2.29,6.83,6v3.69c0,3.75-2.32,6-6.83,6s-6.81-2.26-6.81-6V40.88C101.88,37.13,104.22,34.85,108.68,34.85Zm0,3.83c-1.66,0-2.49.74-2.49,2.14V44.6c0,1.37.83,2.15,2.49,2.15s2.52-.77,2.52-2.15V40.82C111.2,39.42,110.37,38.68,108.68,38.68Z" transform="translate(-0.25 -0.25)"/><path class="cls-2" d="M126.78,34.85c.77,0,1.06.26,1.06,1.06v1.77c0,.77-.29,1-1.06,1h-1.06a8.74,8.74,0,0,0-2,.2.19.19,0,0,0-.17.2v10c0,.8-.26,1.06-1,1.06h-2.23c-.8,0-1.06-.26-1.06-1.06V37.39a1.43,1.43,0,0,1,1.14-1.66,17,17,0,0,1,5.49-.89Z" transform="translate(-0.25 -0.25)"/><path class="cls-2" d="M149.88,36.51l-4.95,12.7a1.25,1.25,0,0,1-1.43.94h-1.69a1.28,1.28,0,0,1-1.46-.94l-4.86-12.7c-.37-1-.14-1.23.89-1.23h1.72c1.23,0,1.57.2,1.83,1.06l1.94,5.58a17.56,17.56,0,0,1,.71,3.37h.2a17.24,17.24,0,0,1,.69-3.37l1.92-5.55c.29-.89.54-1.09,1.8-1.09H149C150,35.28,150.26,35.53,149.88,36.51Z" transform="translate(-0.25 -0.25)"/><path class="cls-2" d="M158.92,34.85c4.52,0,6.83,2.29,6.83,6v3.69c0,3.75-2.32,6-6.83,6s-6.81-2.26-6.81-6V40.88C152.11,37.13,154.46,34.85,158.92,34.85Zm0,3.83c-1.66,0-2.49.74-2.49,2.14V44.6c0,1.37.83,2.15,2.49,2.15s2.52-.77,2.52-2.15V40.82C161.43,39.42,160.6,38.68,158.92,38.68Z" transform="translate(-0.25 -0.25)"/><path class="cls-2" d="M172.81,50.15h-2.23c-.77,0-1-.26-1-1.06V30c0-.8.26-1.06,1-1.06h2.23c.8,0,1.06.26,1.06,1.06v19C173.87,49.89,173.61,50.15,172.81,50.15Z" transform="translate(-0.25 -0.25)"/><path class="cls-2" d="M191.11,36.33V47.89A1.44,1.44,0,0,1,190,49.54a15,15,0,0,1-5.86,1c-4.23,0-6.18-2.17-6.18-5.92V36.33c0-.8.26-1.06,1.06-1.06h2.2c.8,0,1.06.26,1.06,1.06v8.18c0,1.49.8,2.14,2.43,2.14a7.67,7.67,0,0,0,1.89-.2.29.29,0,0,0,.2-.31V36.33c0-.8.26-1.06,1.06-1.06h2.23C190.85,35.28,191.11,35.53,191.11,36.33Z" transform="translate(-0.25 -0.25)"/><path class="cls-2" d="M202.17,34.85c4.23,0,6.18,2.17,6.18,5.92v8.32c0,.8-.26,1.06-1,1.06h-2.23c-.8,0-1.06-.26-1.06-1.06V40.91c0-1.49-.8-2.14-2.43-2.14a7.07,7.07,0,0,0-2,.26.13.13,0,0,0-.09.11v10c0,.8-.26,1.06-1.06,1.06h-2.2c-.8,0-1.06-.26-1.06-1.06V37.53a1.43,1.43,0,0,1,1.14-1.66A14.82,14.82,0,0,1,202.17,34.85Z" transform="translate(-0.25 -0.25)"/><path class="cls-2" d="M218,32.9v2.37h2.66c.77,0,1,.26,1,1.06V38c0,.8-.26,1.06-1,1.06H218v4.8c0,2.23.71,2.66,2.63,2.66.8,0,1.06.26,1.06,1.09v1.8c0,.83-.26,1.06-1.06,1.09-4.89.14-6.95-1.43-6.95-6.46v-5h-1.52c-.8,0-1.06-.26-1.06-1.06V36.33c0-.8.26-1.06,1.06-1.06h1.52V32.9c0-.8.29-1.06,1.06-1.06H217C217.73,31.84,218,32.1,218,32.9Z" transform="translate(-0.25 -0.25)"/><path class="cls-2" d="M231.42,34.85c4.75,0,6.89,2.75,6.89,6v1.74c0,.86-.37,1.43-1.49,1.43h-7.95v.71c0,1.54,1,2.26,2.57,2.26a3.17,3.17,0,0,0,2.72-1.14c.49-.66.83-.8,1.66-.37l1.4.71c.8.4.92.92.46,1.69-1.06,1.69-3,2.66-6.29,2.66-4.92,0-6.83-2.75-6.83-6.35v-3C224.56,37.08,227,34.85,231.42,34.85Zm0,3.43c-1.66,0-2.54.77-2.54,2.2v.46H234v-.46C234,39.05,233.11,38.28,231.42,38.28Z" transform="translate(-0.25 -0.25)"/><path class="cls-2" d="M248.23,34.85c4.75,0,6.89,2.75,6.89,6v1.74c0,.86-.37,1.43-1.49,1.43h-7.95v.71c0,1.54,1,2.26,2.57,2.26A3.17,3.17,0,0,0,251,45.88c.49-.66.83-.8,1.66-.37l1.4.71c.8.4.92.92.46,1.69-1.06,1.69-3,2.66-6.29,2.66-4.92,0-6.83-2.75-6.83-6.35v-3C241.37,37.08,243.8,34.85,248.23,34.85Zm0,3.43c-1.66,0-2.54.77-2.54,2.2v.46h5.09v-.46C250.78,39.05,249.92,38.28,248.23,38.28Z" transform="translate(-0.25 -0.25)"/><path class="cls-2" d="M266.19,34.85c.77,0,1.06.26,1.06,1.06v1.77c0,.77-.29,1-1.06,1h-1.06a8.74,8.74,0,0,0-2,.2.19.19,0,0,0-.17.2v10c0,.8-.26,1.06-1,1.06h-2.23c-.8,0-1.06-.26-1.06-1.06V37.39a1.43,1.43,0,0,1,1.14-1.66,17,17,0,0,1,5.49-.89Z" transform="translate(-0.25 -0.25)"/><path class="cls-2" d="M275.76,34.85c3.43,0,5.35,1.17,6.35,3.06.4.77.2,1.17-.57,1.52l-1.69.71c-.8.34-1,.2-1.46-.46a2.65,2.65,0,0,0-2.49-1.09c-1.54,0-2.12.34-2.12,1,0,.89.77,1.12,2.77,1.29,3.83.37,6.06,1.29,6.06,4.69,0,2.95-2.26,5-6.43,5-3.52,0-5.72-1.26-6.58-3.4-.29-.74-.09-1.17.69-1.43l1.75-.57c.74-.26,1.06-.14,1.4.6s1.12,1.09,2.6,1.09,2.46-.37,2.46-1.17c0-1-.8-1.17-3-1.37-3-.29-5.86-1.06-5.86-4.69C269.62,36.82,271.67,34.85,275.76,34.85Z" transform="translate(-0.25 -0.25)"/></g></g></svg>