<svg xmlns="http://www.w3.org/2000/svg" xmlns:xlink="http://www.w3.org/1999/xlink" viewBox="0 0 334.23 98.97"><defs><style>.cls-1{fill:none;}.cls-2{fill:#073c5e;}.cls-3{fill:#fff;}.cls-4{fill:url(#New_Pattern);}.cls-5{fill:#f47621;}</style><pattern id="New_Pattern" data-name="New Pattern" width="43" height="43" patternTransform="translate(32.75 -12.25)" patternUnits="userSpaceOnUse" viewBox="0 0 43 43"><rect class="cls-1" width="43" height="43"/><path class="cls-2" d="M42.72,38.27a.75.75,0,0,1,.74.75h0a.75.75,0,0,1-.74.75h0A.75.75,0,0,1,42,39h0a.75.75,0,0,1,.75-.75Z"/><path class="cls-2" d="M42.72,32.88a.74.74,0,0,1,.74.74h0a.75.75,0,0,1-.74.75h0a.75.75,0,0,1-.75-.75h0a.75.75,0,0,1,.75-.74Z"/><path class="cls-2" d="M42.72,27.49a.74.74,0,0,1,.74.75h0a.75.75,0,0,1-.74.74h0a.75.75,0,0,1-.75-.74h0a.75.75,0,0,1,.75-.75Z"/><path class="cls-2" d="M42.72,22.1a.74.74,0,0,1,.74.74h0a.74.74,0,0,1-.74.75h0a.75.75,0,0,1-.75-.75h0a.75.75,0,0,1,.75-.74Z"/><path class="cls-2" d="M42.72,16.71a.75.75,0,0,1,.74.74h0a.75.75,0,0,1-.74.75h0a.75.75,0,0,1-.75-.75h0a.75.75,0,0,1,.75-.74Z"/><path class="cls-2" d="M42.72,11.32a.74.74,0,0,1,.74.74h0a.75.75,0,0,1-.74.75h0a.75.75,0,0,1-.75-.75h0a.75.75,0,0,1,.75-.74Z"/><path class="cls-2" d="M42.72,5.93a.75.75,0,0,1,.74.75h0a.75.75,0,0,1-.74.74h0A.75.75,0,0,1,42,6.68h0a.75.75,0,0,1,.75-.75Z"/><path class="cls-2" d="M42.72.54a.74.74,0,0,1,.74.74h0a.75.75,0,0,1-.74.75h0A.75.75,0,0,1,42,1.28h0a.75.75,0,0,1,.75-.74Z"/><path class="cls-2" d="M-.28,38.27A.75.75,0,0,1,.46,39h0a.75.75,0,0,1-.74.75h0A.75.75,0,0,1-1,39h0a.75.75,0,0,1,.75-.75Z"/><path class="cls-2" d="M-.28,32.88a.74.74,0,0,1,.74.74h0a.75.75,0,0,1-.74.75h0A.75.75,0,0,1-1,33.63h0a.75.75,0,0,1,.75-.74Z"/><path class="cls-2" d="M-.28,27.49a.74.74,0,0,1,.74.75h0A.75.75,0,0,1-.28,29h0A.75.75,0,0,1-1,28.24h0a.75.75,0,0,1,.75-.75Z"/><path class="cls-2" d="M-.28,22.1a.74.74,0,0,1,.74.74h0a.74.74,0,0,1-.74.75h0A.75.75,0,0,1-1,22.85h0a.75.75,0,0,1,.75-.74Z"/><path class="cls-2" d="M-.28,16.71a.75.75,0,0,1,.74.74h0a.75.75,0,0,1-.74.75h0A.75.75,0,0,1-1,17.46h0a.75.75,0,0,1,.75-.74Z"/><path class="cls-2" d="M-.28,11.32a.74.74,0,0,1,.74.74h0a.75.75,0,0,1-.74.75h0A.75.75,0,0,1-1,12.07h0a.75.75,0,0,1,.75-.74Z"/><path class="cls-2" d="M-.28,5.93a.75.75,0,0,1,.74.75h0a.75.75,0,0,1-.74.74h0A.75.75,0,0,1-1,6.68h0a.75.75,0,0,1,.75-.75Z"/><path class="cls-2" d="M-.28.54a.74.74,0,0,1,.74.74h0A.75.75,0,0,1-.28,2h0A.75.75,0,0,1-1,1.28h0A.75.75,0,0,1-.28.54Z"/><path class="cls-2" d="M2.7,41a.74.74,0,0,1,.74.74h0a.75.75,0,0,1-.74.75h0A.75.75,0,0,1,2,41.71H2A.75.75,0,0,1,2.7,41Z"/><path class="cls-2" d="M2.7,35.58a.74.74,0,0,1,.74.74h0a.74.74,0,0,1-.74.75h0A.75.75,0,0,1,2,36.32H2a.75.75,0,0,1,.75-.74Z"/><path class="cls-2" d="M2.7,30.19a.75.75,0,0,1,.74.75h0a.75.75,0,0,1-.74.75h0A.75.75,0,0,1,2,30.93H2a.75.75,0,0,1,.75-.75Z"/><path class="cls-2" d="M2.7,24.8a.75.75,0,0,1,.74.75h0a.75.75,0,0,1-.74.75h0A.75.75,0,0,1,2,25.54H2a.75.75,0,0,1,.75-.75Z"/><path class="cls-2" d="M2.7,19.41a.75.75,0,0,1,.74.75h0a.75.75,0,0,1-.74.75h0A.75.75,0,0,1,2,20.15H2a.75.75,0,0,1,.75-.75Z"/><path class="cls-2" d="M2.7,14a.75.75,0,0,1,.74.75h0a.75.75,0,0,1-.74.75h0A.75.75,0,0,1,2,14.76H2A.75.75,0,0,1,2.7,14Z"/><path class="cls-2" d="M2.7,8.63a.75.75,0,0,1,.74.75h0a.75.75,0,0,1-.74.75h0A.75.75,0,0,1,2,9.37H2a.75.75,0,0,1,.75-.75Z"/><path class="cls-2" d="M2.7,3.24A.75.75,0,0,1,3.44,4h0a.75.75,0,0,1-.74.75h0A.75.75,0,0,1,2,4H2a.75.75,0,0,1,.75-.75Z"/><path class="cls-2" d="M5.94,38.27a.75.75,0,0,1,.74.75h0a.75.75,0,0,1-.74.75h0A.75.75,0,0,1,5.2,39h0a.75.75,0,0,1,.75-.75Z"/><path class="cls-2" d="M5.94,32.88a.74.74,0,0,1,.74.74h0a.75.75,0,0,1-.74.75h0a.75.75,0,0,1-.75-.75h0a.74.74,0,0,1,.75-.74Z"/><path class="cls-2" d="M5.94,27.49a.74.74,0,0,1,.74.75h0a.75.75,0,0,1-.74.74h0a.75.75,0,0,1-.75-.74h0a.74.74,0,0,1,.75-.75Z"/><path class="cls-2" d="M5.94,22.1a.74.74,0,0,1,.74.74h0a.74.74,0,0,1-.74.75h0a.75.75,0,0,1-.75-.75h0a.74.74,0,0,1,.75-.74Z"/><path class="cls-2" d="M5.94,16.71a.75.75,0,0,1,.74.74h0a.75.75,0,0,1-.74.75h0a.75.75,0,0,1-.75-.75h0a.75.75,0,0,1,.75-.74Z"/><path class="cls-2" d="M5.94,11.32a.74.74,0,0,1,.74.74h0a.75.75,0,0,1-.74.75h0a.75.75,0,0,1-.75-.75h0a.74.74,0,0,1,.75-.74Z"/><path class="cls-2" d="M5.94,5.93a.74.74,0,0,1,.74.75h0a.75.75,0,0,1-.74.74h0a.75.75,0,0,1-.75-.74h0a.75.75,0,0,1,.75-.75Z"/><path class="cls-2" d="M5.94.54a.74.74,0,0,1,.74.74h0A.75.75,0,0,1,5.94,2h0a.75.75,0,0,1-.75-.75h0A.74.74,0,0,1,5.94.54Z"/><path class="cls-2" d="M8.92,41a.74.74,0,0,1,.74.74h0a.75.75,0,0,1-.74.75h0a.75.75,0,0,1-.75-.75h0A.75.75,0,0,1,8.92,41Z"/><path class="cls-2" d="M8.92,35.58a.74.74,0,0,1,.74.74h0a.74.74,0,0,1-.74.75h0a.75.75,0,0,1-.75-.75h0a.75.75,0,0,1,.75-.74Z"/><path class="cls-2" d="M8.92,30.19a.75.75,0,0,1,.74.75h0a.75.75,0,0,1-.74.75h0a.75.75,0,0,1-.75-.75h0a.75.75,0,0,1,.75-.75Z"/><path class="cls-2" d="M8.92,24.8a.75.75,0,0,1,.74.75h0a.75.75,0,0,1-.74.75h0a.75.75,0,0,1-.75-.75h0a.75.75,0,0,1,.75-.75Z"/><path class="cls-2" d="M8.92,19.41a.75.75,0,0,1,.74.75h0a.75.75,0,0,1-.74.75h0a.75.75,0,0,1-.75-.75h0a.75.75,0,0,1,.75-.75Z"/><path class="cls-2" d="M8.92,14a.74.74,0,0,1,.74.75h0a.75.75,0,0,1-.74.75h0a.75.75,0,0,1-.75-.75h0A.75.75,0,0,1,8.92,14Z"/><path class="cls-2" d="M8.92,8.63a.75.75,0,0,1,.74.75h0a.75.75,0,0,1-.74.75h0a.75.75,0,0,1-.75-.75h0a.75.75,0,0,1,.75-.75Z"/><path class="cls-2" d="M8.92,3.24A.75.75,0,0,1,9.67,4h0a.75.75,0,0,1-.74.75h0A.75.75,0,0,1,8.18,4h0a.75.75,0,0,1,.75-.75Z"/><path class="cls-2" d="M12.17,38.27a.75.75,0,0,1,.74.75h0a.75.75,0,0,1-.74.75h0a.75.75,0,0,1-.75-.75h0a.75.75,0,0,1,.75-.75Z"/><path class="cls-2" d="M12.17,32.88a.74.74,0,0,1,.74.74h0a.75.75,0,0,1-.74.75h0a.75.75,0,0,1-.75-.75h0a.75.75,0,0,1,.75-.74Z"/><path class="cls-2" d="M12.17,27.49a.74.74,0,0,1,.74.75h0a.75.75,0,0,1-.74.74h0a.75.75,0,0,1-.75-.74h0a.75.75,0,0,1,.75-.75Z"/><path class="cls-2" d="M12.17,22.1a.74.74,0,0,1,.74.74h0a.74.74,0,0,1-.74.75h0a.75.75,0,0,1-.75-.75h0a.75.75,0,0,1,.75-.74Z"/><path class="cls-2" d="M12.17,16.71a.75.75,0,0,1,.74.74h0a.75.75,0,0,1-.74.75h0a.75.75,0,0,1-.75-.75h0a.75.75,0,0,1,.75-.74Z"/><path class="cls-2" d="M12.17,11.32a.74.74,0,0,1,.74.74h0a.75.75,0,0,1-.74.75h0a.75.75,0,0,1-.75-.75h0a.75.75,0,0,1,.75-.74Z"/><path class="cls-2" d="M12.17,5.93a.75.75,0,0,1,.74.75h0a.75.75,0,0,1-.74.74h0a.75.75,0,0,1-.75-.74h0a.75.75,0,0,1,.75-.75Z"/><path class="cls-2" d="M12.17.54a.74.74,0,0,1,.74.74h0a.75.75,0,0,1-.74.75h0a.75.75,0,0,1-.75-.75h0a.75.75,0,0,1,.75-.74Z"/><path class="cls-2" d="M15.15,41a.74.74,0,0,1,.74.74h0a.75.75,0,0,1-.74.75h0a.74.74,0,0,1-.74-.75h0a.74.74,0,0,1,.74-.74Z"/><path class="cls-2" d="M15.15,35.58a.74.74,0,0,1,.74.74h0a.74.74,0,0,1-.74.75h0a.74.74,0,0,1-.74-.75h0a.74.74,0,0,1,.74-.74Z"/><path class="cls-2" d="M15.15,30.19a.75.75,0,0,1,.74.75h0a.75.75,0,0,1-.74.75h0a.74.74,0,0,1-.74-.75h0a.74.74,0,0,1,.74-.75Z"/><path class="cls-2" d="M15.15,24.8a.75.75,0,0,1,.74.75h0a.75.75,0,0,1-.74.75h0a.74.74,0,0,1-.74-.75h0a.74.74,0,0,1,.74-.75Z"/><path class="cls-2" d="M15.15,19.41a.75.75,0,0,1,.74.75h0a.75.75,0,0,1-.74.75h0a.74.74,0,0,1-.74-.75h0a.74.74,0,0,1,.74-.75Z"/><path class="cls-2" d="M15.15,14a.74.74,0,0,1,.74.75h0a.75.75,0,0,1-.74.75h0a.74.74,0,0,1-.74-.75h0a.74.74,0,0,1,.74-.75Z"/><path class="cls-2" d="M15.15,8.63a.75.75,0,0,1,.74.75h0a.75.75,0,0,1-.74.75h0a.74.74,0,0,1-.74-.75h0a.74.74,0,0,1,.74-.75Z"/><path class="cls-2" d="M15.15,3.24a.75.75,0,0,1,.74.75h0a.75.75,0,0,1-.74.75h0A.74.74,0,0,1,14.4,4h0a.74.74,0,0,1,.74-.75Z"/><path class="cls-2" d="M18.39,38.27a.75.75,0,0,1,.74.75h0a.75.75,0,0,1-.74.75h0a.75.75,0,0,1-.75-.75h0a.75.75,0,0,1,.75-.75Z"/><path class="cls-2" d="M18.39,32.88a.74.74,0,0,1,.74.74h0a.75.75,0,0,1-.74.75h0a.75.75,0,0,1-.75-.75h0a.75.75,0,0,1,.75-.74Z"/><path class="cls-2" d="M18.39,27.49a.74.74,0,0,1,.74.75h0a.75.75,0,0,1-.74.74h0a.75.75,0,0,1-.75-.74h0a.75.75,0,0,1,.75-.75Z"/><path class="cls-2" d="M18.39,22.1a.74.74,0,0,1,.74.74h0a.74.74,0,0,1-.74.75h0a.75.75,0,0,1-.75-.75h0a.75.75,0,0,1,.75-.74Z"/><path class="cls-2" d="M18.39,16.71a.75.75,0,0,1,.74.74h0a.75.75,0,0,1-.74.75h0a.75.75,0,0,1-.75-.75h0a.75.75,0,0,1,.75-.74Z"/><path class="cls-2" d="M18.39,11.32a.74.74,0,0,1,.74.74h0a.75.75,0,0,1-.74.75h0a.75.75,0,0,1-.75-.75h0a.75.75,0,0,1,.75-.74Z"/><path class="cls-2" d="M18.39,5.93a.74.74,0,0,1,.74.75h0a.75.75,0,0,1-.74.74h0a.75.75,0,0,1-.75-.74h0a.75.75,0,0,1,.75-.75Z"/><path class="cls-2" d="M18.39.54a.74.74,0,0,1,.74.74h0a.75.75,0,0,1-.74.75h0a.75.75,0,0,1-.75-.75h0a.75.75,0,0,1,.75-.74Z"/><path class="cls-2" d="M21.37,41a.74.74,0,0,1,.75.74h0a.74.74,0,0,1-.75.75h0a.74.74,0,0,1-.74-.75h0a.74.74,0,0,1,.74-.74Z"/><path class="cls-2" d="M21.37,35.58a.74.74,0,0,1,.75.74h0a.74.74,0,0,1-.75.75h0a.74.74,0,0,1-.74-.75h0a.74.74,0,0,1,.74-.74Z"/><path class="cls-2" d="M21.37,30.19a.74.74,0,0,1,.75.75h0a.74.74,0,0,1-.75.75h0a.74.74,0,0,1-.74-.75h0a.74.74,0,0,1,.74-.75Z"/><path class="cls-2" d="M21.37,24.8a.75.75,0,0,1,.75.75h0a.74.74,0,0,1-.75.75h0a.74.74,0,0,1-.74-.75h0a.74.74,0,0,1,.74-.75Z"/><path class="cls-2" d="M21.37,19.41a.74.74,0,0,1,.75.75h0a.74.74,0,0,1-.75.75h0a.74.74,0,0,1-.74-.75h0a.74.74,0,0,1,.74-.75Z"/><path class="cls-2" d="M21.37,14a.74.74,0,0,1,.75.75h0a.74.74,0,0,1-.75.75h0a.74.74,0,0,1-.74-.75h0a.74.74,0,0,1,.74-.75Z"/><path class="cls-2" d="M21.37,8.63a.74.74,0,0,1,.75.75h0a.74.74,0,0,1-.75.75h0a.74.74,0,0,1-.74-.75h0a.74.74,0,0,1,.74-.75Z"/><path class="cls-2" d="M21.37,3.24a.74.74,0,0,1,.75.75h0a.74.74,0,0,1-.75.75h0A.74.74,0,0,1,20.62,4h0a.74.74,0,0,1,.74-.75Z"/><path class="cls-2" d="M24.61,38.27a.75.75,0,0,1,.74.75h0a.75.75,0,0,1-.74.75h0a.74.74,0,0,1-.74-.75h0a.74.74,0,0,1,.74-.75Z"/><path class="cls-2" d="M24.61,32.88a.74.74,0,0,1,.74.74h0a.75.75,0,0,1-.74.75h0a.74.74,0,0,1-.74-.75h0a.74.74,0,0,1,.74-.74Z"/><path class="cls-2" d="M24.61,27.49a.74.74,0,0,1,.74.75h0a.75.75,0,0,1-.74.74h0a.74.74,0,0,1-.74-.74h0a.74.74,0,0,1,.74-.75Z"/><path class="cls-2" d="M24.61,22.1a.74.74,0,0,1,.74.74h0a.74.74,0,0,1-.74.75h0a.74.74,0,0,1-.74-.75h0a.74.74,0,0,1,.74-.74Z"/><path class="cls-2" d="M24.61,16.71a.75.75,0,0,1,.74.74h0a.75.75,0,0,1-.74.75h0a.74.74,0,0,1-.74-.75h0a.74.74,0,0,1,.74-.74Z"/><path class="cls-2" d="M24.61,11.32a.74.74,0,0,1,.74.74h0a.75.75,0,0,1-.74.75h0a.74.74,0,0,1-.74-.75h0a.74.74,0,0,1,.74-.74Z"/><path class="cls-2" d="M24.61,5.93a.74.74,0,0,1,.74.75h0a.75.75,0,0,1-.74.74h0a.74.74,0,0,1-.74-.74h0a.74.74,0,0,1,.74-.75Z"/><path class="cls-2" d="M24.61.54a.74.74,0,0,1,.74.74h0a.75.75,0,0,1-.74.75h0a.74.74,0,0,1-.74-.75h0a.74.74,0,0,1,.74-.74Z"/><path class="cls-2" d="M27.59,41a.74.74,0,0,1,.74.74h0a.74.74,0,0,1-.74.75h0a.75.75,0,0,1-.75-.75h0a.74.74,0,0,1,.75-.74Z"/><path class="cls-2" d="M27.59,35.58a.74.74,0,0,1,.74.74h0a.74.74,0,0,1-.74.75h0a.75.75,0,0,1-.75-.75h0a.74.74,0,0,1,.75-.74Z"/><path class="cls-2" d="M27.59,30.19a.74.74,0,0,1,.74.75h0a.74.74,0,0,1-.74.75h0a.75.75,0,0,1-.75-.75h0a.75.75,0,0,1,.75-.75Z"/><path class="cls-2" d="M27.59,24.8a.74.74,0,0,1,.74.75h0a.74.74,0,0,1-.74.75h0a.75.75,0,0,1-.75-.75h0a.75.75,0,0,1,.75-.75Z"/><path class="cls-2" d="M27.59,19.41a.74.74,0,0,1,.74.75h0a.74.74,0,0,1-.74.75h0a.75.75,0,0,1-.75-.75h0a.75.75,0,0,1,.75-.75Z"/><path class="cls-2" d="M27.59,14a.74.74,0,0,1,.74.75h0a.74.74,0,0,1-.74.75h0a.75.75,0,0,1-.75-.75h0a.75.75,0,0,1,.75-.75Z"/><path class="cls-2" d="M27.59,8.63a.74.74,0,0,1,.74.75h0a.74.74,0,0,1-.74.75h0a.75.75,0,0,1-.75-.75h0a.75.75,0,0,1,.75-.75Z"/><path class="cls-2" d="M27.59,3.24a.74.74,0,0,1,.74.75h0a.74.74,0,0,1-.74.75h0A.75.75,0,0,1,26.85,4h0a.75.75,0,0,1,.75-.75Z"/><path class="cls-2" d="M30.84,38.27a.75.75,0,0,1,.74.75h0a.75.75,0,0,1-.74.75h0a.75.75,0,0,1-.74-.75h0a.75.75,0,0,1,.74-.75Z"/><path class="cls-2" d="M30.84,32.88a.74.74,0,0,1,.74.74h0a.75.75,0,0,1-.74.75h0a.75.75,0,0,1-.74-.75h0a.74.74,0,0,1,.74-.74Z"/><path class="cls-2" d="M30.84,27.49a.74.74,0,0,1,.74.75h0a.75.75,0,0,1-.74.74h0a.75.75,0,0,1-.74-.74h0a.74.74,0,0,1,.74-.75Z"/><path class="cls-2" d="M30.84,22.1a.74.74,0,0,1,.74.74h0a.74.74,0,0,1-.74.75h0a.74.74,0,0,1-.74-.75h0a.74.74,0,0,1,.74-.74Z"/><path class="cls-2" d="M30.84,16.71a.75.75,0,0,1,.74.74h0a.75.75,0,0,1-.74.75h0a.75.75,0,0,1-.74-.75h0a.75.75,0,0,1,.74-.74Z"/><path class="cls-2" d="M30.84,11.32a.74.74,0,0,1,.74.74h0a.75.75,0,0,1-.74.75h0a.75.75,0,0,1-.74-.75h0a.74.74,0,0,1,.74-.74Z"/><path class="cls-2" d="M30.84,5.93a.74.74,0,0,1,.74.75h0a.75.75,0,0,1-.74.74h0a.75.75,0,0,1-.74-.74h0a.75.75,0,0,1,.74-.75Z"/><path class="cls-2" d="M30.84.54a.74.74,0,0,1,.74.74h0a.75.75,0,0,1-.74.75h0a.75.75,0,0,1-.74-.75h0a.74.74,0,0,1,.74-.74Z"/><path class="cls-2" d="M33.82,41a.74.74,0,0,1,.74.74h0a.74.74,0,0,1-.74.75h0a.74.74,0,0,1-.74-.75h0a.74.74,0,0,1,.74-.74Z"/><path class="cls-2" d="M33.82,35.58a.74.74,0,0,1,.74.74h0a.74.74,0,0,1-.74.75h0a.74.74,0,0,1-.74-.75h0a.74.74,0,0,1,.74-.74Z"/><path class="cls-2" d="M33.82,30.19a.74.74,0,0,1,.74.75h0a.74.74,0,0,1-.74.75h0a.74.74,0,0,1-.74-.75h0a.74.74,0,0,1,.74-.75Z"/><path class="cls-2" d="M33.82,24.8a.74.74,0,0,1,.74.75h0a.74.74,0,0,1-.74.75h0a.74.74,0,0,1-.74-.75h0a.74.74,0,0,1,.74-.75Z"/><path class="cls-2" d="M33.82,19.41a.74.74,0,0,1,.74.75h0a.74.74,0,0,1-.74.75h0a.74.74,0,0,1-.74-.75h0a.74.74,0,0,1,.74-.75Z"/><path class="cls-2" d="M33.82,14a.74.74,0,0,1,.74.75h0a.74.74,0,0,1-.74.75h0a.74.74,0,0,1-.74-.75h0a.74.74,0,0,1,.74-.75Z"/><path class="cls-2" d="M33.82,8.63a.74.74,0,0,1,.74.75h0a.74.74,0,0,1-.74.75h0a.74.74,0,0,1-.74-.75h0a.74.74,0,0,1,.74-.75Z"/><path class="cls-2" d="M33.82,3.24a.74.74,0,0,1,.74.75h0a.74.74,0,0,1-.74.75h0A.74.74,0,0,1,33.07,4h0a.74.74,0,0,1,.74-.75Z"/><path class="cls-2" d="M37.06,38.27a.74.74,0,0,1,.75.75h0a.74.74,0,0,1-.75.75h0a.75.75,0,0,1-.74-.75h0a.75.75,0,0,1,.74-.75Z"/><path class="cls-2" d="M37.06,32.88a.74.74,0,0,1,.75.74h0a.74.74,0,0,1-.75.75h0a.75.75,0,0,1-.74-.75h0a.74.74,0,0,1,.74-.74Z"/><path class="cls-2" d="M37.06,27.49a.74.74,0,0,1,.75.75h0a.74.74,0,0,1-.75.74h0a.75.75,0,0,1-.74-.74h0a.74.74,0,0,1,.74-.75Z"/><path class="cls-2" d="M37.06,22.1a.74.74,0,0,1,.75.74h0a.74.74,0,0,1-.75.75h0a.74.74,0,0,1-.74-.75h0a.74.74,0,0,1,.74-.74Z"/><path class="cls-2" d="M37.06,16.71a.74.74,0,0,1,.75.74h0a.74.74,0,0,1-.75.75h0a.75.75,0,0,1-.74-.75h0a.75.75,0,0,1,.74-.74Z"/><path class="cls-2" d="M37.06,11.32a.74.74,0,0,1,.75.74h0a.74.74,0,0,1-.75.75h0a.75.75,0,0,1-.74-.75h0a.74.74,0,0,1,.74-.74Z"/><path class="cls-2" d="M37.06,5.93a.74.74,0,0,1,.75.75h0a.74.74,0,0,1-.75.74h0a.75.75,0,0,1-.74-.74h0a.74.74,0,0,1,.74-.75Z"/><path class="cls-2" d="M37.06.54a.74.74,0,0,1,.75.74h0a.74.74,0,0,1-.75.75h0a.75.75,0,0,1-.74-.75h0a.74.74,0,0,1,.74-.74Z"/><path class="cls-2" d="M40,41a.74.74,0,0,1,.74.74h0a.74.74,0,0,1-.74.75h0a.74.74,0,0,1-.74-.75h0A.74.74,0,0,1,40,41Z"/><path class="cls-2" d="M40,35.58a.74.74,0,0,1,.74.74h0a.74.74,0,0,1-.74.75h0a.74.74,0,0,1-.74-.75h0a.74.74,0,0,1,.74-.74Z"/><path class="cls-2" d="M40,30.19a.74.74,0,0,1,.74.75h0a.74.74,0,0,1-.74.75h0a.74.74,0,0,1-.74-.75h0a.74.74,0,0,1,.74-.75Z"/><path class="cls-2" d="M40,24.8a.74.74,0,0,1,.74.75h0a.74.74,0,0,1-.74.75h0a.74.74,0,0,1-.74-.75h0A.74.74,0,0,1,40,24.8Z"/><path class="cls-2" d="M40,19.41a.74.74,0,0,1,.74.75h0a.74.74,0,0,1-.74.75h0a.74.74,0,0,1-.74-.75h0a.74.74,0,0,1,.74-.75Z"/><path class="cls-2" d="M40,14a.74.74,0,0,1,.74.75h0a.74.74,0,0,1-.74.75h0a.74.74,0,0,1-.74-.75h0A.74.74,0,0,1,40,14Z"/><path class="cls-2" d="M40,8.63a.74.74,0,0,1,.74.75h0a.74.74,0,0,1-.74.75h0a.74.74,0,0,1-.74-.75h0A.74.74,0,0,1,40,8.63Z"/><path class="cls-2" d="M40,3.24a.74.74,0,0,1,.74.75h0a.74.74,0,0,1-.74.75h0A.74.74,0,0,1,39.29,4h0A.74.74,0,0,1,40,3.24Z"/></pattern></defs><title>Asset 2</title><g id="Layer_2" data-name="Layer 2"><g id="Layer_4" data-name="Layer 4"><path class="cls-2" d="M319.49.25V85.38H.25V.25Zm-3.16,82V3.41H3.41v78.8Z" transform="translate(-0.25 -0.25)"/><rect class="cls-3" x="3.16" y="3.16" width="312.92" height="78.8"/><polygon class="cls-4" points="319.24 0 334.23 13.84 334.23 98.97 319.24 85.13 319.24 0"/><polygon class="cls-5" points="319.24 85.13 318.19 85.13 318.18 85.12 4.04 85.12 4.05 85.13 0 85.13 14.99 98.97 334.23 98.97 319.24 85.13"/></g></g></svg>