<svg xmlns="http://www.w3.org/2000/svg" xmlns:xlink="http://www.w3.org/1999/xlink" viewBox="0 0 334 99"><defs><style>.cls-1{fill:none;}.cls-2{fill:#073c5e;}.cls-3{fill:#fff;}.cls-4{fill:url(#New_Pattern);}.cls-5{fill:#f47621;}</style><pattern id="New_Pattern" data-name="New Pattern" width="43" height="43" patternTransform="translate(32.75 -12.25)" patternUnits="userSpaceOnUse" viewBox="0 0 43 43"><rect class="cls-1" width="43" height="43"/><path class="cls-2" d="M42.72,38.27a.75.75,0,0,1,.74.75h0a.75.75,0,0,1-.74.75h0A.75.75,0,0,1,42,39h0a.75.75,0,0,1,.75-.75Z"/><path class="cls-2" d="M42.72,32.88a.74.74,0,0,1,.74.74h0a.75.75,0,0,1-.74.75h0a.75.75,0,0,1-.75-.75h0a.75.75,0,0,1,.75-.74Z"/><path class="cls-2" d="M42.72,27.49a.74.74,0,0,1,.74.75h0a.75.75,0,0,1-.74.74h0a.75.75,0,0,1-.75-.74h0a.75.75,0,0,1,.75-.75Z"/><path class="cls-2" d="M42.72,22.1a.74.74,0,0,1,.74.74h0a.74.74,0,0,1-.74.75h0a.75.75,0,0,1-.75-.75h0a.75.75,0,0,1,.75-.74Z"/><path class="cls-2" d="M42.72,16.71a.75.75,0,0,1,.74.74h0a.75.75,0,0,1-.74.75h0a.75.75,0,0,1-.75-.75h0a.75.75,0,0,1,.75-.74Z"/><path class="cls-2" d="M42.72,11.32a.74.74,0,0,1,.74.74h0a.75.75,0,0,1-.74.75h0a.75.75,0,0,1-.75-.75h0a.75.75,0,0,1,.75-.74Z"/><path class="cls-2" d="M42.72,5.93a.75.75,0,0,1,.74.75h0a.75.75,0,0,1-.74.74h0A.75.75,0,0,1,42,6.68h0a.75.75,0,0,1,.75-.75Z"/><path class="cls-2" d="M42.72.54a.74.74,0,0,1,.74.74h0a.75.75,0,0,1-.74.75h0A.75.75,0,0,1,42,1.28h0a.75.75,0,0,1,.75-.74Z"/><path class="cls-2" d="M-.28,38.27A.75.75,0,0,1,.46,39h0a.75.75,0,0,1-.74.75h0A.75.75,0,0,1-1,39h0a.75.75,0,0,1,.75-.75Z"/><path class="cls-2" d="M-.28,32.88a.74.74,0,0,1,.74.74h0a.75.75,0,0,1-.74.75h0A.75.75,0,0,1-1,33.63h0a.75.75,0,0,1,.75-.74Z"/><path class="cls-2" d="M-.28,27.49a.74.74,0,0,1,.74.75h0A.75.75,0,0,1-.28,29h0A.75.75,0,0,1-1,28.24h0a.75.75,0,0,1,.75-.75Z"/><path class="cls-2" d="M-.28,22.1a.74.74,0,0,1,.74.74h0a.74.74,0,0,1-.74.75h0A.75.75,0,0,1-1,22.85h0a.75.75,0,0,1,.75-.74Z"/><path class="cls-2" d="M-.28,16.71a.75.75,0,0,1,.74.74h0a.75.75,0,0,1-.74.75h0A.75.75,0,0,1-1,17.46h0a.75.75,0,0,1,.75-.74Z"/><path class="cls-2" d="M-.28,11.32a.74.74,0,0,1,.74.74h0a.75.75,0,0,1-.74.75h0A.75.75,0,0,1-1,12.07h0a.75.75,0,0,1,.75-.74Z"/><path class="cls-2" d="M-.28,5.93a.75.75,0,0,1,.74.75h0a.75.75,0,0,1-.74.74h0A.75.75,0,0,1-1,6.68h0a.75.75,0,0,1,.75-.75Z"/><path class="cls-2" d="M-.28.54a.74.74,0,0,1,.74.74h0A.75.75,0,0,1-.28,2h0A.75.75,0,0,1-1,1.28h0A.75.75,0,0,1-.28.54Z"/><path class="cls-2" d="M2.7,41a.74.74,0,0,1,.74.74h0a.75.75,0,0,1-.74.75h0A.75.75,0,0,1,2,41.71H2A.75.75,0,0,1,2.7,41Z"/><path class="cls-2" d="M2.7,35.58a.74.74,0,0,1,.74.74h0a.74.74,0,0,1-.74.75h0A.75.75,0,0,1,2,36.32H2a.75.75,0,0,1,.75-.74Z"/><path class="cls-2" d="M2.7,30.19a.75.75,0,0,1,.74.75h0a.75.75,0,0,1-.74.75h0A.75.75,0,0,1,2,30.93H2a.75.75,0,0,1,.75-.75Z"/><path class="cls-2" d="M2.7,24.8a.75.75,0,0,1,.74.75h0a.75.75,0,0,1-.74.75h0A.75.75,0,0,1,2,25.54H2a.75.75,0,0,1,.75-.75Z"/><path class="cls-2" d="M2.7,19.41a.75.75,0,0,1,.74.75h0a.75.75,0,0,1-.74.75h0A.75.75,0,0,1,2,20.15H2a.75.75,0,0,1,.75-.75Z"/><path class="cls-2" d="M2.7,14a.75.75,0,0,1,.74.75h0a.75.75,0,0,1-.74.75h0A.75.75,0,0,1,2,14.76H2A.75.75,0,0,1,2.7,14Z"/><path class="cls-2" d="M2.7,8.63a.75.75,0,0,1,.74.75h0a.75.75,0,0,1-.74.75h0A.75.75,0,0,1,2,9.37H2a.75.75,0,0,1,.75-.75Z"/><path class="cls-2" d="M2.7,3.24A.75.75,0,0,1,3.44,4h0a.75.75,0,0,1-.74.75h0A.75.75,0,0,1,2,4H2a.75.75,0,0,1,.75-.75Z"/><path class="cls-2" d="M5.94,38.27a.75.75,0,0,1,.74.75h0a.75.75,0,0,1-.74.75h0A.75.75,0,0,1,5.2,39h0a.75.75,0,0,1,.75-.75Z"/><path class="cls-2" d="M5.94,32.88a.74.74,0,0,1,.74.74h0a.75.75,0,0,1-.74.75h0a.75.75,0,0,1-.75-.75h0a.74.74,0,0,1,.75-.74Z"/><path class="cls-2" d="M5.94,27.49a.74.74,0,0,1,.74.75h0a.75.75,0,0,1-.74.74h0a.75.75,0,0,1-.75-.74h0a.74.74,0,0,1,.75-.75Z"/><path class="cls-2" d="M5.94,22.1a.74.74,0,0,1,.74.74h0a.74.74,0,0,1-.74.75h0a.75.75,0,0,1-.75-.75h0a.74.74,0,0,1,.75-.74Z"/><path class="cls-2" d="M5.94,16.71a.75.75,0,0,1,.74.74h0a.75.75,0,0,1-.74.75h0a.75.75,0,0,1-.75-.75h0a.75.75,0,0,1,.75-.74Z"/><path class="cls-2" d="M5.94,11.32a.74.74,0,0,1,.74.74h0a.75.75,0,0,1-.74.75h0a.75.75,0,0,1-.75-.75h0a.74.74,0,0,1,.75-.74Z"/><path class="cls-2" d="M5.94,5.93a.74.74,0,0,1,.74.75h0a.75.75,0,0,1-.74.74h0a.75.75,0,0,1-.75-.74h0a.75.75,0,0,1,.75-.75Z"/><path class="cls-2" d="M5.94.54a.74.74,0,0,1,.74.74h0A.75.75,0,0,1,5.94,2h0a.75.75,0,0,1-.75-.75h0A.74.74,0,0,1,5.94.54Z"/><path class="cls-2" d="M8.92,41a.74.74,0,0,1,.74.74h0a.75.75,0,0,1-.74.75h0a.75.75,0,0,1-.75-.75h0A.75.75,0,0,1,8.92,41Z"/><path class="cls-2" d="M8.92,35.58a.74.74,0,0,1,.74.74h0a.74.74,0,0,1-.74.75h0a.75.75,0,0,1-.75-.75h0a.75.75,0,0,1,.75-.74Z"/><path class="cls-2" d="M8.92,30.19a.75.75,0,0,1,.74.75h0a.75.75,0,0,1-.74.75h0a.75.75,0,0,1-.75-.75h0a.75.75,0,0,1,.75-.75Z"/><path class="cls-2" d="M8.92,24.8a.75.75,0,0,1,.74.75h0a.75.75,0,0,1-.74.75h0a.75.75,0,0,1-.75-.75h0a.75.75,0,0,1,.75-.75Z"/><path class="cls-2" d="M8.92,19.41a.75.75,0,0,1,.74.75h0a.75.75,0,0,1-.74.75h0a.75.75,0,0,1-.75-.75h0a.75.75,0,0,1,.75-.75Z"/><path class="cls-2" d="M8.92,14a.74.74,0,0,1,.74.75h0a.75.75,0,0,1-.74.75h0a.75.75,0,0,1-.75-.75h0A.75.75,0,0,1,8.92,14Z"/><path class="cls-2" d="M8.92,8.63a.75.75,0,0,1,.74.75h0a.75.75,0,0,1-.74.75h0a.75.75,0,0,1-.75-.75h0a.75.75,0,0,1,.75-.75Z"/><path class="cls-2" d="M8.92,3.24A.75.75,0,0,1,9.67,4h0a.75.75,0,0,1-.74.75h0A.75.75,0,0,1,8.18,4h0a.75.75,0,0,1,.75-.75Z"/><path class="cls-2" d="M12.17,38.27a.75.75,0,0,1,.74.75h0a.75.75,0,0,1-.74.75h0a.75.75,0,0,1-.75-.75h0a.75.75,0,0,1,.75-.75Z"/><path class="cls-2" d="M12.17,32.88a.74.74,0,0,1,.74.74h0a.75.75,0,0,1-.74.75h0a.75.75,0,0,1-.75-.75h0a.75.75,0,0,1,.75-.74Z"/><path class="cls-2" d="M12.17,27.49a.74.74,0,0,1,.74.75h0a.75.75,0,0,1-.74.74h0a.75.75,0,0,1-.75-.74h0a.75.75,0,0,1,.75-.75Z"/><path class="cls-2" d="M12.17,22.1a.74.74,0,0,1,.74.74h0a.74.74,0,0,1-.74.75h0a.75.75,0,0,1-.75-.75h0a.75.75,0,0,1,.75-.74Z"/><path class="cls-2" d="M12.17,16.71a.75.75,0,0,1,.74.74h0a.75.75,0,0,1-.74.75h0a.75.75,0,0,1-.75-.75h0a.75.75,0,0,1,.75-.74Z"/><path class="cls-2" d="M12.17,11.32a.74.74,0,0,1,.74.74h0a.75.75,0,0,1-.74.75h0a.75.75,0,0,1-.75-.75h0a.75.75,0,0,1,.75-.74Z"/><path class="cls-2" d="M12.17,5.93a.75.75,0,0,1,.74.75h0a.75.75,0,0,1-.74.74h0a.75.75,0,0,1-.75-.74h0a.75.75,0,0,1,.75-.75Z"/><path class="cls-2" d="M12.17.54a.74.74,0,0,1,.74.74h0a.75.75,0,0,1-.74.75h0a.75.75,0,0,1-.75-.75h0a.75.75,0,0,1,.75-.74Z"/><path class="cls-2" d="M15.15,41a.74.74,0,0,1,.74.74h0a.75.75,0,0,1-.74.75h0a.74.74,0,0,1-.74-.75h0a.74.74,0,0,1,.74-.74Z"/><path class="cls-2" d="M15.15,35.58a.74.74,0,0,1,.74.74h0a.74.74,0,0,1-.74.75h0a.74.74,0,0,1-.74-.75h0a.74.74,0,0,1,.74-.74Z"/><path class="cls-2" d="M15.15,30.19a.75.75,0,0,1,.74.75h0a.75.75,0,0,1-.74.75h0a.74.74,0,0,1-.74-.75h0a.74.74,0,0,1,.74-.75Z"/><path class="cls-2" d="M15.15,24.8a.75.75,0,0,1,.74.75h0a.75.75,0,0,1-.74.75h0a.74.74,0,0,1-.74-.75h0a.74.74,0,0,1,.74-.75Z"/><path class="cls-2" d="M15.15,19.41a.75.75,0,0,1,.74.75h0a.75.75,0,0,1-.74.75h0a.74.74,0,0,1-.74-.75h0a.74.74,0,0,1,.74-.75Z"/><path class="cls-2" d="M15.15,14a.74.74,0,0,1,.74.75h0a.75.75,0,0,1-.74.75h0a.74.74,0,0,1-.74-.75h0a.74.74,0,0,1,.74-.75Z"/><path class="cls-2" d="M15.15,8.63a.75.75,0,0,1,.74.75h0a.75.75,0,0,1-.74.75h0a.74.74,0,0,1-.74-.75h0a.74.74,0,0,1,.74-.75Z"/><path class="cls-2" d="M15.15,3.24a.75.75,0,0,1,.74.75h0a.75.75,0,0,1-.74.75h0A.74.74,0,0,1,14.4,4h0a.74.74,0,0,1,.74-.75Z"/><path class="cls-2" d="M18.39,38.27a.75.75,0,0,1,.74.75h0a.75.75,0,0,1-.74.75h0a.75.75,0,0,1-.75-.75h0a.75.75,0,0,1,.75-.75Z"/><path class="cls-2" d="M18.39,32.88a.74.74,0,0,1,.74.74h0a.75.75,0,0,1-.74.75h0a.75.75,0,0,1-.75-.75h0a.75.75,0,0,1,.75-.74Z"/><path class="cls-2" d="M18.39,27.49a.74.74,0,0,1,.74.75h0a.75.75,0,0,1-.74.74h0a.75.75,0,0,1-.75-.74h0a.75.75,0,0,1,.75-.75Z"/><path class="cls-2" d="M18.39,22.1a.74.74,0,0,1,.74.74h0a.74.74,0,0,1-.74.75h0a.75.75,0,0,1-.75-.75h0a.75.75,0,0,1,.75-.74Z"/><path class="cls-2" d="M18.39,16.71a.75.75,0,0,1,.74.74h0a.75.75,0,0,1-.74.75h0a.75.75,0,0,1-.75-.75h0a.75.75,0,0,1,.75-.74Z"/><path class="cls-2" d="M18.39,11.32a.74.74,0,0,1,.74.74h0a.75.75,0,0,1-.74.75h0a.75.75,0,0,1-.75-.75h0a.75.75,0,0,1,.75-.74Z"/><path class="cls-2" d="M18.39,5.93a.74.74,0,0,1,.74.75h0a.75.75,0,0,1-.74.74h0a.75.75,0,0,1-.75-.74h0a.75.75,0,0,1,.75-.75Z"/><path class="cls-2" d="M18.39.54a.74.74,0,0,1,.74.74h0a.75.75,0,0,1-.74.75h0a.75.75,0,0,1-.75-.75h0a.75.75,0,0,1,.75-.74Z"/><path class="cls-2" d="M21.37,41a.74.74,0,0,1,.75.74h0a.74.74,0,0,1-.75.75h0a.74.74,0,0,1-.74-.75h0a.74.74,0,0,1,.74-.74Z"/><path class="cls-2" d="M21.37,35.58a.74.74,0,0,1,.75.74h0a.74.74,0,0,1-.75.75h0a.74.74,0,0,1-.74-.75h0a.74.74,0,0,1,.74-.74Z"/><path class="cls-2" d="M21.37,30.19a.74.74,0,0,1,.75.75h0a.74.74,0,0,1-.75.75h0a.74.74,0,0,1-.74-.75h0a.74.74,0,0,1,.74-.75Z"/><path class="cls-2" d="M21.37,24.8a.75.75,0,0,1,.75.75h0a.74.74,0,0,1-.75.75h0a.74.74,0,0,1-.74-.75h0a.74.74,0,0,1,.74-.75Z"/><path class="cls-2" d="M21.37,19.41a.74.74,0,0,1,.75.75h0a.74.74,0,0,1-.75.75h0a.74.74,0,0,1-.74-.75h0a.74.74,0,0,1,.74-.75Z"/><path class="cls-2" d="M21.37,14a.74.74,0,0,1,.75.75h0a.74.74,0,0,1-.75.75h0a.74.74,0,0,1-.74-.75h0a.74.74,0,0,1,.74-.75Z"/><path class="cls-2" d="M21.37,8.63a.74.74,0,0,1,.75.75h0a.74.74,0,0,1-.75.75h0a.74.74,0,0,1-.74-.75h0a.74.74,0,0,1,.74-.75Z"/><path class="cls-2" d="M21.37,3.24a.74.74,0,0,1,.75.75h0a.74.74,0,0,1-.75.75h0A.74.74,0,0,1,20.62,4h0a.74.74,0,0,1,.74-.75Z"/><path class="cls-2" d="M24.61,38.27a.75.75,0,0,1,.74.75h0a.75.75,0,0,1-.74.75h0a.74.74,0,0,1-.74-.75h0a.74.74,0,0,1,.74-.75Z"/><path class="cls-2" d="M24.61,32.88a.74.74,0,0,1,.74.74h0a.75.75,0,0,1-.74.75h0a.74.74,0,0,1-.74-.75h0a.74.74,0,0,1,.74-.74Z"/><path class="cls-2" d="M24.61,27.49a.74.74,0,0,1,.74.75h0a.75.75,0,0,1-.74.74h0a.74.74,0,0,1-.74-.74h0a.74.74,0,0,1,.74-.75Z"/><path class="cls-2" d="M24.61,22.1a.74.74,0,0,1,.74.74h0a.74.74,0,0,1-.74.75h0a.74.74,0,0,1-.74-.75h0a.74.74,0,0,1,.74-.74Z"/><path class="cls-2" d="M24.61,16.71a.75.75,0,0,1,.74.74h0a.75.75,0,0,1-.74.75h0a.74.74,0,0,1-.74-.75h0a.74.74,0,0,1,.74-.74Z"/><path class="cls-2" d="M24.61,11.32a.74.74,0,0,1,.74.74h0a.75.75,0,0,1-.74.75h0a.74.74,0,0,1-.74-.75h0a.74.74,0,0,1,.74-.74Z"/><path class="cls-2" d="M24.61,5.93a.74.74,0,0,1,.74.75h0a.75.75,0,0,1-.74.74h0a.74.74,0,0,1-.74-.74h0a.74.74,0,0,1,.74-.75Z"/><path class="cls-2" d="M24.61.54a.74.74,0,0,1,.74.74h0a.75.75,0,0,1-.74.75h0a.74.74,0,0,1-.74-.75h0a.74.74,0,0,1,.74-.74Z"/><path class="cls-2" d="M27.59,41a.74.74,0,0,1,.74.74h0a.74.74,0,0,1-.74.75h0a.75.75,0,0,1-.75-.75h0a.74.74,0,0,1,.75-.74Z"/><path class="cls-2" d="M27.59,35.58a.74.74,0,0,1,.74.74h0a.74.74,0,0,1-.74.75h0a.75.75,0,0,1-.75-.75h0a.74.74,0,0,1,.75-.74Z"/><path class="cls-2" d="M27.59,30.19a.74.74,0,0,1,.74.75h0a.74.74,0,0,1-.74.75h0a.75.75,0,0,1-.75-.75h0a.75.75,0,0,1,.75-.75Z"/><path class="cls-2" d="M27.59,24.8a.74.74,0,0,1,.74.75h0a.74.74,0,0,1-.74.75h0a.75.75,0,0,1-.75-.75h0a.75.75,0,0,1,.75-.75Z"/><path class="cls-2" d="M27.59,19.41a.74.74,0,0,1,.74.75h0a.74.74,0,0,1-.74.75h0a.75.75,0,0,1-.75-.75h0a.75.75,0,0,1,.75-.75Z"/><path class="cls-2" d="M27.59,14a.74.74,0,0,1,.74.75h0a.74.74,0,0,1-.74.75h0a.75.75,0,0,1-.75-.75h0a.75.75,0,0,1,.75-.75Z"/><path class="cls-2" d="M27.59,8.63a.74.74,0,0,1,.74.75h0a.74.74,0,0,1-.74.75h0a.75.75,0,0,1-.75-.75h0a.75.75,0,0,1,.75-.75Z"/><path class="cls-2" d="M27.59,3.24a.74.74,0,0,1,.74.75h0a.74.74,0,0,1-.74.75h0A.75.75,0,0,1,26.85,4h0a.75.75,0,0,1,.75-.75Z"/><path class="cls-2" d="M30.84,38.27a.75.75,0,0,1,.74.75h0a.75.75,0,0,1-.74.75h0a.75.75,0,0,1-.74-.75h0a.75.75,0,0,1,.74-.75Z"/><path class="cls-2" d="M30.84,32.88a.74.74,0,0,1,.74.74h0a.75.75,0,0,1-.74.75h0a.75.75,0,0,1-.74-.75h0a.74.74,0,0,1,.74-.74Z"/><path class="cls-2" d="M30.84,27.49a.74.74,0,0,1,.74.75h0a.75.75,0,0,1-.74.74h0a.75.75,0,0,1-.74-.74h0a.74.74,0,0,1,.74-.75Z"/><path class="cls-2" d="M30.84,22.1a.74.74,0,0,1,.74.74h0a.74.74,0,0,1-.74.75h0a.74.74,0,0,1-.74-.75h0a.74.74,0,0,1,.74-.74Z"/><path class="cls-2" d="M30.84,16.71a.75.75,0,0,1,.74.74h0a.75.75,0,0,1-.74.75h0a.75.75,0,0,1-.74-.75h0a.75.75,0,0,1,.74-.74Z"/><path class="cls-2" d="M30.84,11.32a.74.74,0,0,1,.74.74h0a.75.75,0,0,1-.74.75h0a.75.75,0,0,1-.74-.75h0a.74.74,0,0,1,.74-.74Z"/><path class="cls-2" d="M30.84,5.93a.74.74,0,0,1,.74.75h0a.75.75,0,0,1-.74.74h0a.75.75,0,0,1-.74-.74h0a.75.75,0,0,1,.74-.75Z"/><path class="cls-2" d="M30.84.54a.74.74,0,0,1,.74.74h0a.75.75,0,0,1-.74.75h0a.75.75,0,0,1-.74-.75h0a.74.74,0,0,1,.74-.74Z"/><path class="cls-2" d="M33.82,41a.74.74,0,0,1,.74.74h0a.74.74,0,0,1-.74.75h0a.74.74,0,0,1-.74-.75h0a.74.74,0,0,1,.74-.74Z"/><path class="cls-2" d="M33.82,35.58a.74.74,0,0,1,.74.74h0a.74.74,0,0,1-.74.75h0a.74.74,0,0,1-.74-.75h0a.74.74,0,0,1,.74-.74Z"/><path class="cls-2" d="M33.82,30.19a.74.74,0,0,1,.74.75h0a.74.74,0,0,1-.74.75h0a.74.74,0,0,1-.74-.75h0a.74.74,0,0,1,.74-.75Z"/><path class="cls-2" d="M33.82,24.8a.74.74,0,0,1,.74.75h0a.74.74,0,0,1-.74.75h0a.74.74,0,0,1-.74-.75h0a.74.74,0,0,1,.74-.75Z"/><path class="cls-2" d="M33.82,19.41a.74.74,0,0,1,.74.75h0a.74.74,0,0,1-.74.75h0a.74.74,0,0,1-.74-.75h0a.74.74,0,0,1,.74-.75Z"/><path class="cls-2" d="M33.82,14a.74.74,0,0,1,.74.75h0a.74.74,0,0,1-.74.75h0a.74.74,0,0,1-.74-.75h0a.74.74,0,0,1,.74-.75Z"/><path class="cls-2" d="M33.82,8.63a.74.74,0,0,1,.74.75h0a.74.74,0,0,1-.74.75h0a.74.74,0,0,1-.74-.75h0a.74.74,0,0,1,.74-.75Z"/><path class="cls-2" d="M33.82,3.24a.74.74,0,0,1,.74.75h0a.74.74,0,0,1-.74.75h0A.74.74,0,0,1,33.07,4h0a.74.74,0,0,1,.74-.75Z"/><path class="cls-2" d="M37.06,38.27a.74.74,0,0,1,.75.75h0a.74.74,0,0,1-.75.75h0a.75.75,0,0,1-.74-.75h0a.75.75,0,0,1,.74-.75Z"/><path class="cls-2" d="M37.06,32.88a.74.74,0,0,1,.75.74h0a.74.74,0,0,1-.75.75h0a.75.75,0,0,1-.74-.75h0a.74.74,0,0,1,.74-.74Z"/><path class="cls-2" d="M37.06,27.49a.74.74,0,0,1,.75.75h0a.74.74,0,0,1-.75.74h0a.75.75,0,0,1-.74-.74h0a.74.74,0,0,1,.74-.75Z"/><path class="cls-2" d="M37.06,22.1a.74.74,0,0,1,.75.74h0a.74.74,0,0,1-.75.75h0a.74.74,0,0,1-.74-.75h0a.74.74,0,0,1,.74-.74Z"/><path class="cls-2" d="M37.06,16.71a.74.74,0,0,1,.75.74h0a.74.74,0,0,1-.75.75h0a.75.75,0,0,1-.74-.75h0a.75.75,0,0,1,.74-.74Z"/><path class="cls-2" d="M37.06,11.32a.74.74,0,0,1,.75.74h0a.74.74,0,0,1-.75.75h0a.75.75,0,0,1-.74-.75h0a.74.74,0,0,1,.74-.74Z"/><path class="cls-2" d="M37.06,5.93a.74.74,0,0,1,.75.75h0a.74.74,0,0,1-.75.74h0a.75.75,0,0,1-.74-.74h0a.74.74,0,0,1,.74-.75Z"/><path class="cls-2" d="M37.06.54a.74.74,0,0,1,.75.74h0a.74.74,0,0,1-.75.75h0a.75.75,0,0,1-.74-.75h0a.74.74,0,0,1,.74-.74Z"/><path class="cls-2" d="M40,41a.74.74,0,0,1,.74.74h0a.74.74,0,0,1-.74.75h0a.74.74,0,0,1-.74-.75h0A.74.74,0,0,1,40,41Z"/><path class="cls-2" d="M40,35.58a.74.74,0,0,1,.74.74h0a.74.74,0,0,1-.74.75h0a.74.74,0,0,1-.74-.75h0a.74.74,0,0,1,.74-.74Z"/><path class="cls-2" d="M40,30.19a.74.74,0,0,1,.74.75h0a.74.74,0,0,1-.74.75h0a.74.74,0,0,1-.74-.75h0a.74.74,0,0,1,.74-.75Z"/><path class="cls-2" d="M40,24.8a.74.74,0,0,1,.74.75h0a.74.74,0,0,1-.74.75h0a.74.74,0,0,1-.74-.75h0A.74.74,0,0,1,40,24.8Z"/><path class="cls-2" d="M40,19.41a.74.74,0,0,1,.74.75h0a.74.74,0,0,1-.74.75h0a.74.74,0,0,1-.74-.75h0a.74.74,0,0,1,.74-.75Z"/><path class="cls-2" d="M40,14a.74.74,0,0,1,.74.75h0a.74.74,0,0,1-.74.75h0a.74.74,0,0,1-.74-.75h0A.74.74,0,0,1,40,14Z"/><path class="cls-2" d="M40,8.63a.74.74,0,0,1,.74.75h0a.74.74,0,0,1-.74.75h0a.74.74,0,0,1-.74-.75h0A.74.74,0,0,1,40,8.63Z"/><path class="cls-2" d="M40,3.24a.74.74,0,0,1,.74.75h0a.74.74,0,0,1-.74.75h0A.74.74,0,0,1,39.29,4h0A.74.74,0,0,1,40,3.24Z"/></pattern></defs><title>call-for-speakers_1</title><g id="Layer_2" data-name="Layer 2"><g id="Layer_4" data-name="Layer 4"><path class="cls-2" d="M319.49.25V85.38H.25V.25Zm-3.16,82V3.41H3.41v78.8Z" transform="translate(-0.25 -0.25)"/><rect class="cls-3" x="3.16" y="3.16" width="312.92" height="78.8"/><polygon class="cls-4" points="319.24 0 334.23 13.84 334.23 98.97 319.24 85.13 319.24 0"/><polygon class="cls-5" points="319.24 85.13 318.19 85.13 318.18 85.12 4.04 85.12 4.05 85.13 0 85.13 14.99 98.97 334.23 98.97 319.24 85.13"/><path class="cls-2" d="M52.59,34.85c3.43,0,5.52,1.66,6.26,3.8.29.83.06,1.2-.74,1.49l-1.83.6c-.83.32-1.2.12-1.52-.71a2.31,2.31,0,0,0-2.34-1.46c-1.54,0-2.32.74-2.32,2.14v4c0,1.4.77,2.14,2.32,2.14a2.31,2.31,0,0,0,2.34-1.46c.31-.8.66-.94,1.52-.69l1.86.57c.8.26,1.09.66.74,1.52-1,2.37-3.06,3.77-6.58,3.77-4.55,0-6.52-2.29-6.52-6.06v-3.6C45.79,37.16,47.9,34.85,52.59,34.85Z" transform="translate(-0.25 -0.25)"/><path class="cls-2" d="M68.32,34.85c4.83,0,6.38,2.52,6.38,6v7.26c0,1-.23,1.32-1.06,1.66a14.4,14.4,0,0,1-5.4.77c-5.2,0-6.55-1.66-6.55-4.72,0-3.57,2-4.69,6.66-4.69.74,0,1.57,0,2,.06v-.63c0-1.4-.63-2.12-2.2-2.12a2.7,2.7,0,0,0-2.37,1.06c-.46.63-.69.77-1.46.46l-1.57-.66c-.74-.31-1-.71-.57-1.52C63.2,35.93,65.23,34.85,68.32,34.85ZM68,44.45c-1.63,0-2,.6-2,1.37s.31,1.4,1.92,1.4a15.89,15.89,0,0,0,2.26-.11c.11,0,.2-.06.2-.2v-2.4C69.83,44.51,68.75,44.45,68,44.45Z" transform="translate(-0.25 -0.25)"/><path class="cls-2" d="M82,50.15H79.72c-.77,0-1-.26-1-1.06V30c0-.8.26-1.06,1-1.06H82c.8,0,1.06.26,1.06,1.06v19C83,49.89,82.75,50.15,82,50.15Z" transform="translate(-0.25 -0.25)"/><path class="cls-2" d="M90.56,50.15H88.33c-.77,0-1-.26-1-1.06V30c0-.8.26-1.06,1-1.06h2.23c.8,0,1.06.26,1.06,1.06v19C91.62,49.89,91.36,50.15,90.56,50.15Z" transform="translate(-0.25 -0.25)"/><path class="cls-2" d="M111.86,30.07v1.66c0,.83-.29,1.09-1.09,1.09-1.92,0-2.6.74-2.6,2.37v.09h2.63c.77,0,1.06.26,1.06,1.06V38c0,.8-.29,1.06-1.06,1.06h-2.63v10c0,.8-.26,1.06-1.09,1.06h-2.17c-.8,0-1.06-.26-1.06-1.06v-10h-1.26c-.77,0-1-.26-1-1.06V36.33c0-.8.26-1.06,1-1.06h1.26v-.09c0-4,2.2-6.15,6.55-6.21h.37C111.57,29,111.86,29.24,111.86,30.07Z" transform="translate(-0.25 -0.25)"/><path class="cls-2" d="M121,34.85c4.52,0,6.83,2.29,6.83,6v3.69c0,3.75-2.32,6-6.83,6s-6.81-2.26-6.81-6V40.88C114.17,37.13,116.52,34.85,121,34.85Zm0,3.83c-1.66,0-2.49.74-2.49,2.14V44.6c0,1.37.83,2.15,2.49,2.15s2.52-.77,2.52-2.15V40.82C123.5,39.42,122.67,38.68,121,38.68Z" transform="translate(-0.25 -0.25)"/><path class="cls-2" d="M139.08,34.85c.77,0,1.06.26,1.06,1.06v1.77c0,.77-.29,1-1.06,1H138a8.74,8.74,0,0,0-2,.2.19.19,0,0,0-.17.2v10c0,.8-.26,1.06-1,1.06h-2.23c-.8,0-1.06-.26-1.06-1.06V37.39a1.43,1.43,0,0,1,1.14-1.66,17,17,0,0,1,5.49-.89Z" transform="translate(-0.25 -0.25)"/><path class="cls-2" d="M155.14,34.85c3.43,0,5.35,1.17,6.35,3.06.4.77.2,1.17-.57,1.52l-1.69.71c-.8.34-1,.2-1.46-.46a2.65,2.65,0,0,0-2.49-1.09c-1.54,0-2.12.34-2.12,1,0,.89.77,1.12,2.77,1.29,3.83.37,6.06,1.29,6.06,4.69,0,2.95-2.26,5-6.43,5-3.52,0-5.72-1.26-6.58-3.4-.29-.74-.09-1.17.69-1.43l1.74-.57c.74-.26,1.06-.14,1.4.6s1.12,1.09,2.6,1.09,2.46-.37,2.46-1.17c0-1-.8-1.17-3-1.37-3-.29-5.86-1.06-5.86-4.69C149,36.82,151.05,34.85,155.14,34.85Z" transform="translate(-0.25 -0.25)"/><path class="cls-2" d="M172.33,34.85c4.26,0,6.23,2.17,6.23,5.92v3.6c0,4-2.2,6.21-6.61,6.21a11.41,11.41,0,0,1-2.26-.26v5.06c0,.8-.26,1.06-1,1.06h-2.23c-.8,0-1.06-.26-1.06-1.06v-18a1.43,1.43,0,0,1,1.14-1.66A16,16,0,0,1,172.33,34.85Zm-.51,3.86a9.56,9.56,0,0,0-2,.2.18.18,0,0,0-.14.2v7.44a12.66,12.66,0,0,0,1.92.17c1.77,0,2.6-.74,2.6-2.34V40.79C174.21,39.45,173.36,38.71,171.81,38.71Z" transform="translate(-0.25 -0.25)"/><path class="cls-2" d="M188.68,34.85c4.75,0,6.89,2.75,6.89,6v1.74c0,.86-.37,1.43-1.49,1.43h-7.95v.71c0,1.54,1,2.26,2.57,2.26a3.17,3.17,0,0,0,2.72-1.14c.49-.66.83-.8,1.66-.37l1.4.71c.8.4.92.92.46,1.69-1.06,1.69-3,2.66-6.29,2.66-4.92,0-6.83-2.75-6.83-6.35v-3C181.82,37.08,184.25,34.85,188.68,34.85Zm0,3.43c-1.66,0-2.54.77-2.54,2.2v.46h5.09v-.46C191.22,39.05,190.37,38.28,188.68,38.28Z" transform="translate(-0.25 -0.25)"/><path class="cls-2" d="M205.06,34.85c4.83,0,6.38,2.52,6.38,6v7.26c0,1-.23,1.32-1.06,1.66a14.4,14.4,0,0,1-5.4.77c-5.2,0-6.55-1.66-6.55-4.72,0-3.57,2-4.69,6.66-4.69.74,0,1.57,0,2,.06v-.63c0-1.4-.63-2.12-2.2-2.12a2.7,2.7,0,0,0-2.37,1.06c-.46.63-.69.77-1.46.46l-1.57-.66c-.74-.31-1-.71-.57-1.52C199.94,35.93,202,34.85,205.06,34.85Zm-.34,9.61c-1.63,0-2,.6-2,1.37s.31,1.4,1.92,1.4a15.89,15.89,0,0,0,2.26-.11c.11,0,.2-.06.2-.2v-2.4C206.58,44.51,205.49,44.45,204.72,44.45Z" transform="translate(-0.25 -0.25)"/><path class="cls-2" d="M227.91,50.15h-2c-1.23,0-1.52-.14-1.89-1l-1.52-3.52a1.74,1.74,0,0,0-1.83-1.14h-1v4.55c0,.83-.26,1.09-1.09,1.09h-2.14c-.83,0-1.09-.26-1.09-1.09v-19c0-.83.26-1.09,1.09-1.09h2.14c.83,0,1.09.26,1.09,1.09V40.68h.77l3.23-4.55c.52-.8.86-.86,2-.86h1.92c1.06,0,1.29.46.71,1.26l-3.83,5.23a5.11,5.11,0,0,1,1.6,2.06l2.49,5C229.11,49.77,229,50.15,227.91,50.15Z" transform="translate(-0.25 -0.25)"/><path class="cls-2" d="M238,34.85c4.75,0,6.89,2.75,6.89,6v1.74c0,.86-.37,1.43-1.49,1.43h-7.95v.71c0,1.54,1,2.26,2.57,2.26a3.17,3.17,0,0,0,2.72-1.14c.49-.66.83-.8,1.66-.37l1.4.71c.8.4.92.92.46,1.69-1.06,1.69-3,2.66-6.29,2.66-4.92,0-6.83-2.75-6.83-6.35v-3C231.16,37.08,233.59,34.85,238,34.85Zm0,3.43c-1.66,0-2.54.77-2.54,2.2v.46h5.09v-.46C240.57,39.05,239.71,38.28,238,38.28Z" transform="translate(-0.25 -0.25)"/><path class="cls-2" d="M256,34.85c.77,0,1.06.26,1.06,1.06v1.77c0,.77-.29,1-1.06,1h-1.06a8.74,8.74,0,0,0-2,.2.19.19,0,0,0-.17.2v10c0,.8-.26,1.06-1,1.06h-2.23c-.8,0-1.06-.26-1.06-1.06V37.39a1.43,1.43,0,0,1,1.14-1.66,17,17,0,0,1,5.49-.89Z" transform="translate(-0.25 -0.25)"/><path class="cls-2" d="M265.56,34.85c3.43,0,5.35,1.17,6.35,3.06.4.77.2,1.17-.57,1.52l-1.69.71c-.8.34-1,.2-1.46-.46a2.65,2.65,0,0,0-2.49-1.09c-1.54,0-2.12.34-2.12,1,0,.89.77,1.12,2.77,1.29,3.83.37,6.06,1.29,6.06,4.69,0,2.95-2.26,5-6.43,5-3.52,0-5.72-1.26-6.58-3.4-.29-.74-.09-1.17.69-1.43l1.74-.57c.74-.26,1.06-.14,1.4.6s1.12,1.09,2.6,1.09,2.46-.37,2.46-1.17c0-1-.8-1.17-3-1.37-3-.29-5.86-1.06-5.86-4.69C259.41,36.82,261.47,34.85,265.56,34.85Z" transform="translate(-0.25 -0.25)"/></g></g></svg>