<?xml version="1.0" encoding="UTF-8" standalone="no"?>
<!DOCTYPE svg PUBLIC "-//W3C//DTD SVG 1.1//EN" "http://www.w3.org/Graphics/SVG/1.1/DTD/svg11.dtd">
<svg width="100%" height="100%" viewBox="0 0 315 299" version="1.1" xmlns="http://www.w3.org/2000/svg" xmlns:xlink="http://www.w3.org/1999/xlink" xml:space="preserve" style="fill-rule:evenodd;clip-rule:evenodd;stroke-linejoin:round;stroke-miterlimit:1.41421;">
    <g transform="matrix(1,0,0,1,-212,-390.975)">
        <path d="M391.811,678.586L354.012,640.774C362.562,656.827 375.765,670.023 391.811,678.586" style="fill:white;fill-rule:nonzero;"/>
        <path d="M347.728,625.959L406.632,684.863C409.537,685.803 412.491,686.592 415.505,687.24L345.357,617.087C345.997,620.101 346.794,623.066 347.728,625.959" style="fill:white;fill-rule:nonzero;"/>
        <path d="M343.35,600.046C343.398,602.387 343.544,604.685 343.768,606.965L425.621,688.817C427.719,689.029 429.841,689.157 431.976,689.23L432.255,688.956L343.35,600.046Z" style="fill:white;fill-rule:nonzero;"/>
        <path d="M343.529,591.701L440.897,689.059C442.883,688.932 444.857,688.738 446.804,688.477L344.114,585.787C343.86,587.739 343.66,589.706 343.529,591.701" style="fill:white;fill-rule:nonzero;"/>
        <path d="M345.376,578.509L454.082,687.222C455.84,686.84 457.571,686.409 459.291,685.937L346.662,573.294C346.179,575.023 345.751,576.75 345.376,578.509" style="fill:white;fill-rule:nonzero;"/>
        <path d="M348.72,566.829L465.764,683.875C467.338,683.305 468.902,682.704 470.43,682.049L350.546,562.159C349.897,563.693 349.29,565.252 348.72,566.829" style="fill:white;fill-rule:nonzero;"/>
        <path d="M353.259,556.338L476.252,679.332C477.68,678.605 479.072,677.834 480.455,677.04L355.546,552.135C354.751,553.512 353.987,554.912 353.259,556.338" style="fill:white;fill-rule:nonzero;"/>
        <path d="M358.839,546.877L485.707,673.759C486.999,672.892 488.266,671.988 489.509,671.072L361.526,543.081C360.6,544.324 359.7,545.592 358.839,546.877" style="fill:white;fill-rule:nonzero;"/>
        <path d="M365.328,538.345L494.246,667.264C495.411,666.27 496.551,665.244 497.661,664.184L368.409,534.937C367.353,536.046 366.331,537.186 365.328,538.345" style="fill:white;fill-rule:nonzero;"/>
        <path d="M372.702,530.703L501.896,659.89C502.936,658.756 503.955,657.609 504.934,656.432L376.164,527.665C374.985,528.641 373.83,529.654 372.702,530.703" style="fill:white;fill-rule:nonzero;"/>
        <path d="M380.956,523.917L508.68,651.636C509.589,650.381 510.478,649.106 511.33,647.791L384.795,521.261C383.494,522.11 382.211,523.001 380.956,523.917" style="fill:white;fill-rule:nonzero;"/>
        <path d="M390.113,518.034L514.55,642.478C515.335,641.09 516.081,639.671 516.787,638.227L394.364,515.803C392.927,516.506 391.505,517.259 390.113,518.034" style="fill:white;fill-rule:nonzero;"/>
        <path d="M400.256,513.152L519.435,632.339C520.074,630.786 520.663,629.215 521.214,627.621L404.971,511.381C403.38,511.927 401.805,512.522 400.256,513.152" style="fill:white;fill-rule:nonzero;"/>
        <path d="M411.521,509.398L523.197,621.077C523.652,619.336 524.056,617.572 524.411,615.789L416.806,508.179C415.026,508.538 413.261,508.937 411.521,509.398" style="fill:white;fill-rule:nonzero;"/>
        <path d="M424.18,507.022L525.569,608.409C525.796,606.426 525.96,604.431 526.06,602.412L430.187,506.531C428.164,506.627 426.166,506.797 424.18,507.022" style="fill:white;fill-rule:nonzero;"/>
        <path d="M438.69,506.506L526.085,593.902C525.988,591.52 525.797,589.16 525.521,586.836L445.755,507.076C443.426,506.797 441.067,506.61 438.69,506.506" style="fill:white;fill-rule:nonzero;"/>
        <path d="M456.158,508.943L523.653,576.435C522.901,573.294 521.979,570.201 520.906,567.193L465.391,511.684C462.387,510.618 459.297,509.696 456.158,508.943" style="fill:white;fill-rule:nonzero;"/>
        <path d="M481.517,519.272L513.319,551.074C505.529,538.017 494.58,527.071 481.517,519.272" style="fill:white;fill-rule:nonzero;"/>
        <path d="M451.134,510.536C451.134,576.466 397.494,630.101 331.567,630.101C265.637,630.101 212,576.466 212,510.536C212,444.606 265.637,390.975 331.567,390.975L331.567,393.213C266.878,393.213 214.244,445.846 214.244,510.536C214.244,575.228 266.875,627.857 331.567,627.857C396.259,627.863 448.89,575.228 448.89,510.536L451.134,510.536Z" style="fill:white;fill-rule:nonzero;"/>
    </g>
</svg>
