<?xml version="1.0" encoding="UTF-8" standalone="no"?>
<!DOCTYPE svg PUBLIC "-//W3C//DTD SVG 1.1//EN" "http://www.w3.org/Graphics/SVG/1.1/DTD/svg11.dtd">
<svg width="100%" height="100%" viewBox="0 0 228 175" version="1.1" xmlns="http://www.w3.org/2000/svg" xmlns:xlink="http://www.w3.org/1999/xlink" xml:space="preserve" style="fill-rule:evenodd;clip-rule:evenodd;stroke-linejoin:round;stroke-miterlimit:1.41421;">
    <g transform="matrix(1,0,0,1,-488.205,-192.946)">
        <path d="M610.726,226.228L550.879,286.08L548.955,285.9L512.283,281.134L571.383,222.034L610.726,226.228ZM612.836,227.424L672.363,286.953L612.836,346.473L553.315,286.953L612.836,227.424ZM571.496,342.058L513.029,283.591L551.664,288.609L610.128,347.075L571.496,342.058ZM570.402,344.273L612.865,349.786L612.846,349.77L675.664,286.948L612.839,224.12L570.519,219.594L508.12,281.991L570.402,344.273Z" style="fill:white;fill-rule:nonzero;"/>
        <path d="M714.66,366.563C713.907,367.31 712.696,367.314 711.942,366.563L646.786,301.419C646.033,300.663 646.033,299.457 646.786,298.701C647.538,297.95 648.758,297.945 649.514,298.701L714.66,363.835C715.419,364.592 715.419,365.807 714.66,366.563" style="fill:rgb(17,174,180);fill-rule:nonzero;"/>
        <path d="M638.367,290.279C637.611,291.03 636.4,291.035 635.647,290.274L608.166,262.803C607.42,262.061 607.415,260.837 608.171,260.09C608.922,259.339 610.138,259.339 610.888,260.09L638.367,287.556C639.12,288.312 639.116,289.523 638.367,290.279" style="fill:rgb(17,174,180);fill-rule:nonzero;"/>
        <path d="M598.051,249.97C597.295,250.717 596.084,250.721 595.328,249.965L586.859,241.51C586.117,240.754 586.112,239.533 586.863,238.787C587.619,238.036 588.84,238.036 589.586,238.787L598.046,247.252C598.802,248.003 598.802,249.219 598.051,249.97" style="fill:rgb(17,174,180);fill-rule:nonzero;"/>
        <path d="M580.207,232.131C579.46,232.882 578.24,232.882 577.484,232.131L574.297,228.944C573.546,228.188 573.541,226.977 574.297,226.221C575.049,225.465 576.264,225.465 577.015,226.217L580.202,229.408C580.958,230.16 580.958,231.375 580.207,232.131" style="fill:rgb(17,174,180);fill-rule:nonzero;"/>
        <path d="M566.053,217.972C565.292,218.723 564.072,218.723 563.321,217.972L560.129,214.775C559.387,214.029 559.383,212.813 560.134,212.057C560.885,211.311 562.105,211.311 562.852,212.057L566.053,215.244C566.795,216.005 566.795,217.221 566.053,217.972" style="fill:rgb(17,174,180);fill-rule:nonzero;"/>
        <path d="M643.291,348.011C642.54,348.762 641.327,348.762 640.571,348.011L575.417,282.867C574.661,282.115 574.661,280.9 575.412,280.144C576.168,279.393 577.389,279.393 578.14,280.144L643.291,345.288C644.045,346.045 644.045,347.264 643.291,348.011" style="fill:rgb(17,174,180);fill-rule:nonzero;"/>
        <path d="M567,271.728C566.249,272.479 565.028,272.479 564.272,271.728L536.802,244.262C536.05,243.505 536.05,242.295 536.802,241.534C537.553,240.788 538.778,240.792 539.519,241.539L567,269C567.747,269.761 567.747,270.981 567,271.728" style="fill:rgb(17,174,180);fill-rule:nonzero;"/>
        <path d="M526.681,231.423C525.925,232.17 524.709,232.17 523.958,231.423L515.498,222.958C514.742,222.207 514.742,220.986 515.498,220.24C516.249,219.479 517.465,219.479 518.216,220.24L526.681,228.691C527.428,229.442 527.428,230.672 526.681,231.423" style="fill:rgb(17,174,180);fill-rule:nonzero;"/>
        <path d="M508.837,213.584C508.09,214.33 506.87,214.326 506.114,213.579L502.927,210.392C502.181,209.646 502.181,208.421 502.927,207.669C503.674,206.914 504.894,206.918 505.65,207.669L508.842,210.866C509.588,211.613 509.593,212.828 508.837,213.584" style="fill:rgb(17,174,180);fill-rule:nonzero;"/>
        <path d="M494.678,199.42C493.931,200.176 492.707,200.176 491.955,199.415L488.768,196.229C488.017,195.482 488.017,194.262 488.768,193.511C489.525,192.754 490.74,192.759 491.491,193.515L494.678,196.697C495.425,197.449 495.425,198.669 494.678,199.42" style="fill:rgb(17,174,180);fill-rule:nonzero;"/>
    </g>
</svg>
