<?xml version="1.0" encoding="UTF-8"?>
<svg width="16px" height="16px" viewBox="0 0 16 16" version="1.1" xmlns="http://www.w3.org/2000/svg" xmlns:xlink="http://www.w3.org/1999/xlink">
    <!-- Generator: Sketch 46.2 (44496) - http://www.bohemiancoding.com/sketch -->
    <title>dot-blue</title>
    <desc>Created with Sketch.</desc>
    <defs></defs>
    <g id="Page-1" stroke="none" stroke-width="1" fill="none" fill-rule="evenodd">
        <g id="dot-blue" fill="#073C5E">
            <path d="M0,14 C1.1045695,14 2,14.8954305 2,16 L1.66533454e-16,16 L0,14 Z M0,2 C1.1045695,2 2,1.1045695 2,0 L5.55111512e-17,0 L0,2 Z M14,16 C14,14.8954305 14.8954305,14 16,14 L16,16 L14,16 Z M16,2 C14.8954305,2 14,1.1045695 14,0 L16,0 L16,2 Z M8,10 C6.8954305,10 6,9.1045695 6,8 C6,6.8954305 6.8954305,6 8,6 C9.1045695,6 10,6.8954305 10,8 C10,9.1045695 9.1045695,10 8,10 Z" id="Combined-Shape"></path>
        </g>
    </g>
</svg>