<?xml version="1.0" encoding="UTF-8" standalone="no"?>
<!DOCTYPE svg PUBLIC "-//W3C//DTD SVG 1.1//EN" "http://www.w3.org/Graphics/SVG/1.1/DTD/svg11.dtd">
<svg width="100%" height="100%" viewBox="0 0 190 134" version="1.1" xmlns="http://www.w3.org/2000/svg" xmlns:xlink="http://www.w3.org/1999/xlink" xml:space="preserve" style="fill-rule:evenodd;clip-rule:evenodd;stroke-linejoin:round;stroke-miterlimit:1.41421;">
    <g transform="matrix(1,0,0,1,-622.484,-14.8828)">
        <path d="M809.484,49.654L809.484,113.348L778.338,144.441L747.192,113.348L747.192,49.654L778.338,18.565L809.484,49.654ZM639.346,85.874L746.114,115.954L773.319,143.109L639.346,85.874ZM746.114,47.05L639.343,77.132L773.319,19.894L746.114,47.05ZM744.586,50.187L744.586,112.816L633.441,81.502L744.586,50.187ZM778.361,14.906L778.338,14.883L778.283,14.941L622.484,81.502L778.283,148.065L778.338,148.121L778.361,148.098L778.395,148.111L778.431,148.026L812.089,114.429L812.089,48.573L778.431,14.978L778.395,14.892L778.361,14.906Z" style="fill:rgb(244,118,33);fill-rule:nonzero;"/>
    </g>
</svg>
