<?xml version="1.0" encoding="UTF-8" standalone="no"?>
<!DOCTYPE svg PUBLIC "-//W3C//DTD SVG 1.1//EN" "http://www.w3.org/Graphics/SVG/1.1/DTD/svg11.dtd">
<svg width="100%" height="100%" viewBox="0 0 134 63" version="1.1" xmlns="http://www.w3.org/2000/svg" xmlns:xlink="http://www.w3.org/1999/xlink" xml:space="preserve" style="fill-rule:evenodd;clip-rule:evenodd;stroke-linejoin:round;stroke-miterlimit:1.41421;">
    <g transform="matrix(1,0,0,1,-279.104,-208.543)">
        <path d="M306.572,257.794L304.339,257.794L304.339,264.531L311.073,264.531L311.073,262.298L306.572,262.298L306.572,257.794Z" style="fill:rgb(19,175,181);fill-rule:nonzero;"/>
        <path d="M325.648,262.298L321.148,262.298L321.148,264.531L327.881,264.531L327.881,257.794L325.648,257.794L325.648,262.298Z" style="fill:rgb(19,175,181);fill-rule:nonzero;"/>
        <path d="M321.172,249.164L325.648,249.164L325.648,253.64L327.881,253.64L327.881,246.931L321.172,246.931L321.172,249.164Z" style="fill:rgb(19,175,181);fill-rule:nonzero;"/>
        <path d="M306.572,249.164L311.05,249.164L311.05,246.931L304.339,246.931L304.339,253.64L306.572,253.64L306.572,249.164Z" style="fill:rgb(19,175,181);fill-rule:nonzero;"/>
        <path d="M317.231,251.423L314.998,251.423L314.998,254.614L311.805,254.614L311.805,256.847L314.998,256.847L314.998,260.043L317.231,260.043L317.231,256.847L320.422,256.847L320.422,254.614L317.231,254.614L317.231,251.423Z" style="fill:rgb(19,175,181);fill-rule:nonzero;"/>
        <path d="M346.702,239.456C346.106,239.456 345.622,238.972 345.622,238.376C345.622,237.783 346.106,237.299 346.702,237.299C347.296,237.299 347.779,237.783 347.779,238.376C347.779,238.972 347.296,239.456 346.702,239.456M346.702,235.065C344.875,235.065 343.389,236.551 343.389,238.376C343.389,240.204 344.875,241.689 346.702,241.689C348.527,241.689 350.013,240.204 350.013,238.376C350.013,236.551 348.527,235.065 346.702,235.065" style="fill:rgb(19,175,181);fill-rule:nonzero;"/>
        <path d="M410.838,240.535L406.661,240.535L361.908,240.535L361.908,236.216L410.838,236.216L410.838,240.535ZM396.999,268.693L358.477,268.693L348.581,244.76L361.908,244.76L361.908,242.768L403.769,242.768L396.999,268.693ZM333.697,268.693L295.175,268.693L288.404,242.768L330.268,242.768L330.268,244.76L343.595,244.76L333.697,268.693ZM281.337,240.535L281.337,236.216L330.268,236.216L330.268,240.535L285.512,240.535L281.337,240.535ZM332.501,234.133L359.675,234.133L359.675,242.526L332.501,242.526L332.501,234.133ZM372.372,208.543L361.799,208.543L361.799,210.776L371.657,210.776L404.259,233.983L361.908,233.983L361.908,231.9L330.268,231.9L330.268,233.983L287.913,233.983L320.517,210.776L330.375,210.776L330.375,208.543L319.804,208.543L284.063,233.983L279.104,233.983L279.104,242.768L286.095,242.768L293.45,270.926L335.191,270.926L346.011,244.76L346.165,244.76L356.983,270.926L398.722,270.926L406.079,242.768L413.071,242.768L413.071,233.983L408.111,233.983L372.372,208.543Z" style="fill:rgb(19,175,181);fill-rule:nonzero;"/>
    </g>
</svg>
