<?xml version="1.0" encoding="UTF-8" standalone="no"?>
<!DOCTYPE svg PUBLIC "-//W3C//DTD SVG 1.1//EN" "http://www.w3.org/Graphics/SVG/1.1/DTD/svg11.dtd">
<svg width="100%" height="100%" viewBox="0 0 176 125" version="1.1" xmlns="http://www.w3.org/2000/svg" xmlns:xlink="http://www.w3.org/1999/xlink" xml:space="preserve" style="fill-rule:evenodd;clip-rule:evenodd;stroke-linejoin:round;stroke-miterlimit:1.41421;">
    <g transform="matrix(1,0,0,1,-402.635,-19.9143)">
        <path d="M426.18,112.293L426.18,34.487C426.18,33.787 426.749,33.218 427.449,33.218L553.034,33.218C553.736,33.218 554.306,33.787 554.306,34.494L554.441,112.293L426.18,112.293ZM553.034,30.017L427.449,30.017C424.984,30.017 422.979,32.024 422.979,34.487L422.979,115.494L557.648,115.494L557.507,34.487C557.507,32.024 555.5,30.017 553.034,30.017" style="fill:rgb(19,175,181);fill-rule:nonzero;"/>
        <path d="M405.836,133.215L405.836,125.59L574.799,125.59L574.799,133.215C574.799,137.351 568.961,140.84 562.051,140.84L418.586,140.84C411.674,140.84 405.836,137.351 405.836,133.215M416.082,31.811C416.082,27.016 419.962,23.115 424.731,23.115L555.901,23.115C560.668,23.115 564.547,27.016 564.547,31.811L564.547,122.39L416.082,122.39L416.082,31.811ZM578,133.215L578,122.39L567.748,122.39L567.748,31.811C567.748,25.253 562.434,19.914 555.901,19.914L424.731,19.914C418.196,19.914 412.88,25.253 412.88,31.811L412.88,122.39L402.635,122.39L402.635,133.215C402.635,139.286 409.642,144.04 418.586,144.04L562.051,144.04C570.995,144.04 578,139.286 578,133.215" style="fill:rgb(19,175,181);fill-rule:nonzero;"/>
    </g>
</svg>
