<?xml version="1.0" encoding="UTF-8" standalone="no"?>
<!DOCTYPE svg PUBLIC "-//W3C//DTD SVG 1.1//EN" "http://www.w3.org/Graphics/SVG/1.1/DTD/svg11.dtd">
<svg width="100%" height="100%" viewBox="0 0 444 232" version="1.1" xmlns="http://www.w3.org/2000/svg" xmlns:xlink="http://www.w3.org/1999/xlink" xml:space="preserve" style="fill-rule:evenodd;clip-rule:evenodd;stroke-linejoin:round;stroke-miterlimit:1.41421;">
    <g transform="matrix(1,0,0,1,-154.466,-388.956)">
        <g transform="matrix(2.66667,0,0,2.66667,-2.84217e-14,1.42109e-14)">
            <g>
                <path d="M155.446,165.398L161.634,168.976L194.333,187.851L209.353,196.52L155.446,227.643L155.446,208.649L60.805,208.649L60.805,184.391L155.446,184.391L155.446,166.971L155.446,165.398ZM152.566,169.847L152.566,181.511L69.881,181.511L69.881,169.843L152.566,169.847ZM66.993,172.576L66.993,181.511L61.425,181.511L66.993,172.576ZM212.551,195.04L207.05,191.864L218.724,185.126L212.551,195.04ZM164.521,150.85L218.422,181.973L204.17,190.203L177.526,174.821L164.521,167.311L164.521,150.85ZM161.634,151.463L161.634,165.649L155.135,161.898L161.634,151.463ZM161.634,145.888L152.573,160.421L152.566,160.406L152.566,160.443L152.558,160.45L152.566,160.45L152.566,166.971L67.015,166.971L67.008,166.963L67.008,166.971L66.993,166.971L66.993,166.993L57.947,181.511L57.925,181.511L57.925,211.526L152.566,211.526L152.566,232.631L215.098,196.528L215.106,196.524L215.113,196.52L224.167,181.984L224.181,181.973L161.634,145.858L161.634,145.896L161.634,145.888Z" style="fill:rgb(244,118,33);"/>
            </g>
        </g>
    </g>
</svg>
