<?xml version="1.0" encoding="UTF-8" standalone="no"?>
<!DOCTYPE svg PUBLIC "-//W3C//DTD SVG 1.1//EN" "http://www.w3.org/Graphics/SVG/1.1/DTD/svg11.dtd">
<svg width="100%" height="100%" viewBox="0 0 47 87" version="1.1" xmlns="http://www.w3.org/2000/svg" xmlns:xlink="http://www.w3.org/1999/xlink" xml:space="preserve" style="fill-rule:evenodd;clip-rule:evenodd;stroke-linejoin:round;stroke-miterlimit:1.41421;">
    <g transform="matrix(1,0,0,1,-325.335,-482.021)">
        <path d="M369.235,493.969L327.967,493.969L327.967,493.728C327.967,488.725 332.039,484.654 337.044,484.654L360.159,484.654C365.163,484.654 369.235,488.725 369.235,493.728L369.235,493.969ZM360.159,565.918L337.044,565.918C332.039,565.918 327.967,561.847 327.967,556.842L327.967,552.965L369.235,552.965L369.235,556.842C369.235,561.847 365.163,565.918 360.159,565.918M327.967,496.602L369.235,496.602L369.235,550.333L327.967,550.333L327.967,496.602ZM360.159,482.021L337.044,482.021C330.588,482.021 325.335,487.273 325.335,493.728L325.335,556.842C325.335,563.299 330.588,568.551 337.044,568.551L360.159,568.551C366.616,568.551 371.867,563.299 371.867,556.842L371.867,493.728C371.867,487.273 366.616,482.021 360.159,482.021" style="fill:rgb(19,175,181);fill-rule:nonzero;"/>
        <rect x="344.317" y="487.995" width="8.573" height="2.632" style="fill:rgb(19,175,181);fill-rule:nonzero;"/>
        <path d="M347.124,557.932L350.085,557.932L350.085,560.888L347.124,560.888L347.124,557.932ZM344.492,563.52L352.718,563.52L352.718,555.299L344.492,555.299L344.492,563.52Z" style="fill:rgb(19,175,181);fill-rule:nonzero;"/>
    </g>
</svg>
