<?xml version="1.0" encoding="UTF-8" standalone="no"?>
<!DOCTYPE svg PUBLIC "-//W3C//DTD SVG 1.1//EN" "http://www.w3.org/Graphics/SVG/1.1/DTD/svg11.dtd">
<svg width="100%" height="100%" viewBox="0 0 838 796" version="1.1" xmlns="http://www.w3.org/2000/svg" xmlns:xlink="http://www.w3.org/1999/xlink" xml:space="preserve" style="fill-rule:evenodd;clip-rule:evenodd;stroke-linejoin:round;stroke-miterlimit:1.41421;">
    <g transform="matrix(1,0,0,1,74.6672,-2674.6)">
        <g transform="matrix(2.66667,0,0,2.66667,-2.84217e-14,1.42109e-14)">
            <path d="M151.811,1290.59L114.012,1252.77C122.562,1268.83 135.765,1282.02 151.811,1290.59" style="fill:white;fill-rule:nonzero;"/>
        </g>
        <g transform="matrix(2.66667,0,0,2.66667,-2.84217e-14,1.42109e-14)">
            <path d="M107.729,1237.96L166.633,1296.86C169.538,1297.8 172.492,1298.59 175.505,1299.24L105.358,1229.09C105.998,1232.1 106.795,1235.07 107.729,1237.96" style="fill:white;fill-rule:nonzero;"/>
        </g>
        <g transform="matrix(2.66667,0,0,2.66667,-2.84217e-14,1.42109e-14)">
            <path d="M103.35,1212.05C103.398,1214.39 103.544,1216.68 103.768,1218.96L185.621,1300.82C187.719,1301.03 189.841,1301.16 191.976,1301.23L192.255,1300.96L103.35,1212.05Z" style="fill:white;fill-rule:nonzero;"/>
        </g>
        <g transform="matrix(2.66667,0,0,2.66667,-2.84217e-14,1.42109e-14)">
            <path d="M103.529,1203.7L200.897,1301.06C202.883,1300.93 204.857,1300.74 206.804,1300.48L104.114,1197.79C103.86,1199.74 103.66,1201.71 103.529,1203.7" style="fill:white;fill-rule:nonzero;"/>
        </g>
        <g transform="matrix(2.66667,0,0,2.66667,-2.84217e-14,1.42109e-14)">
            <path d="M105.375,1190.51L214.082,1299.22C215.839,1298.84 217.57,1298.41 219.291,1297.94L106.661,1185.29C106.179,1187.02 105.751,1188.75 105.375,1190.51" style="fill:white;fill-rule:nonzero;"/>
        </g>
        <g transform="matrix(2.66667,0,0,2.66667,-2.84217e-14,1.42109e-14)">
            <path d="M108.72,1178.83L225.764,1295.88C227.338,1295.31 228.902,1294.7 230.43,1294.05L110.546,1174.16C109.897,1175.69 109.29,1177.25 108.72,1178.83" style="fill:white;fill-rule:nonzero;"/>
        </g>
        <g transform="matrix(2.66667,0,0,2.66667,-2.84217e-14,1.42109e-14)">
            <path d="M113.259,1168.34L236.252,1291.33C237.68,1290.61 239.072,1289.83 240.455,1289.04L115.546,1164.13C114.751,1165.51 113.987,1166.91 113.259,1168.34" style="fill:white;fill-rule:nonzero;"/>
        </g>
        <g transform="matrix(2.66667,0,0,2.66667,-2.84217e-14,1.42109e-14)">
            <path d="M118.839,1158.88L245.707,1285.76C246.999,1284.89 248.266,1283.99 249.509,1283.07L121.526,1155.08C120.6,1156.32 119.7,1157.59 118.839,1158.88" style="fill:white;fill-rule:nonzero;"/>
        </g>
        <g transform="matrix(2.66667,0,0,2.66667,-2.84217e-14,1.42109e-14)">
            <path d="M125.328,1150.35L254.246,1279.26C255.411,1278.27 256.551,1277.24 257.661,1276.18L128.409,1146.94C127.353,1148.05 126.331,1149.19 125.328,1150.35" style="fill:white;fill-rule:nonzero;"/>
        </g>
        <g transform="matrix(2.66667,0,0,2.66667,-2.84217e-14,1.42109e-14)">
            <path d="M132.702,1142.7L261.896,1271.89C262.936,1270.76 263.955,1269.61 264.934,1268.43L136.164,1139.66C134.985,1140.64 133.83,1141.65 132.702,1142.7" style="fill:white;fill-rule:nonzero;"/>
        </g>
        <g transform="matrix(2.66667,0,0,2.66667,-2.84217e-14,1.42109e-14)">
            <path d="M140.956,1135.92L268.68,1263.64C269.589,1262.38 270.478,1261.11 271.33,1259.79L144.795,1133.26C143.494,1134.11 142.211,1135 140.956,1135.92" style="fill:white;fill-rule:nonzero;"/>
        </g>
        <g transform="matrix(2.66667,0,0,2.66667,-2.84217e-14,1.42109e-14)">
            <path d="M150.113,1130.03L274.55,1254.48C275.335,1253.09 276.081,1251.67 276.787,1250.23L154.364,1127.8C152.927,1128.51 151.505,1129.26 150.113,1130.03" style="fill:white;fill-rule:nonzero;"/>
        </g>
        <g transform="matrix(2.66667,0,0,2.66667,-2.84217e-14,1.42109e-14)">
            <path d="M160.256,1125.15L279.435,1244.34C280.074,1242.79 280.663,1241.21 281.214,1239.62L164.971,1123.38C163.38,1123.93 161.805,1124.52 160.256,1125.15" style="fill:white;fill-rule:nonzero;"/>
        </g>
        <g transform="matrix(2.66667,0,0,2.66667,-2.84217e-14,1.42109e-14)">
            <path d="M171.521,1121.4L283.197,1233.08C283.652,1231.34 284.056,1229.57 284.411,1227.79L176.806,1120.18C175.026,1120.54 173.261,1120.94 171.521,1121.4" style="fill:white;fill-rule:nonzero;"/>
        </g>
        <g transform="matrix(2.66667,0,0,2.66667,-2.84217e-14,1.42109e-14)">
            <path d="M184.18,1119.02L285.569,1220.41C285.796,1218.43 285.96,1216.43 286.06,1214.41L190.187,1118.53C188.164,1118.63 186.166,1118.8 184.18,1119.02" style="fill:white;fill-rule:nonzero;"/>
        </g>
        <g transform="matrix(2.66667,0,0,2.66667,-2.84217e-14,1.42109e-14)">
            <path d="M198.689,1118.51L286.085,1205.9C285.987,1203.52 285.797,1201.16 285.52,1198.84L205.754,1119.08C203.425,1118.8 201.067,1118.61 198.689,1118.51" style="fill:white;fill-rule:nonzero;"/>
        </g>
        <g transform="matrix(2.66667,0,0,2.66667,-2.84217e-14,1.42109e-14)">
            <path d="M216.158,1120.94L283.653,1188.43C282.901,1185.29 281.979,1182.2 280.906,1179.19L225.391,1123.68C222.387,1122.62 219.297,1121.7 216.158,1120.94" style="fill:white;fill-rule:nonzero;"/>
        </g>
        <g transform="matrix(2.66667,0,0,2.66667,-2.84217e-14,1.42109e-14)">
            <path d="M241.517,1131.27L273.319,1163.07C265.529,1150.02 254.58,1139.07 241.517,1131.27" style="fill:white;fill-rule:nonzero;"/>
        </g>
        <g transform="matrix(2.66667,0,0,2.66667,-2.84217e-14,1.42109e-14)">
            <path d="M211.134,1122.54C211.134,1188.47 157.494,1242.1 91.567,1242.1C25.637,1242.1 -28,1188.47 -28,1122.54C-28,1056.61 25.637,1002.98 91.567,1002.98L91.567,1005.21C26.878,1005.21 -25.756,1057.85 -25.756,1122.54C-25.756,1187.23 26.875,1239.86 91.567,1239.86C156.259,1239.86 208.89,1187.23 208.89,1122.54L211.134,1122.54Z" style="fill:white;fill-rule:nonzero;"/>
        </g>
        <g transform="matrix(2.66667,0,0,2.66667,-2.84217e-14,1.42109e-14)">
            <path d="M129.235,1105.97L87.967,1105.97L87.967,1105.73C87.967,1100.73 92.039,1096.65 97.044,1096.65L120.159,1096.65C125.163,1096.65 129.235,1100.73 129.235,1105.73L129.235,1105.97ZM120.159,1177.92L97.044,1177.92C92.039,1177.92 87.967,1173.85 87.967,1168.84L87.967,1164.96L129.235,1164.96L129.235,1168.84C129.235,1173.85 125.163,1177.92 120.159,1177.92M87.967,1108.6L129.235,1108.6L129.235,1162.33L87.967,1162.33L87.967,1108.6ZM120.159,1094.02L97.044,1094.02C90.588,1094.02 85.335,1099.27 85.335,1105.73L85.335,1168.84C85.335,1175.3 90.588,1180.55 97.044,1180.55L120.159,1180.55C126.616,1180.55 131.867,1175.3 131.867,1168.84L131.867,1105.73C131.867,1099.27 126.616,1094.02 120.159,1094.02" style="fill:rgb(19,175,181);fill-rule:nonzero;"/>
        </g>
        <g transform="matrix(2.66667,0,0,2.66667,-2.84217e-14,1.42109e-14)">
            <rect x="104.317" y="1100" width="8.573" height="2.632" style="fill:rgb(19,175,181);fill-rule:nonzero;"/>
        </g>
        <g transform="matrix(2.66667,0,0,2.66667,-2.84217e-14,1.42109e-14)">
            <path d="M107.124,1169.93L110.085,1169.93L110.085,1172.89L107.124,1172.89L107.124,1169.93ZM104.492,1175.52L112.718,1175.52L112.718,1167.3L104.492,1167.3L104.492,1175.52Z" style="fill:rgb(19,175,181);fill-rule:nonzero;"/>
        </g>
    </g>
</svg>
