<?xml version="1.0" encoding="UTF-8"?>
<svg width="72px" height="72px" viewBox="0 0 72 72" version="1.1" xmlns="http://www.w3.org/2000/svg" xmlns:xlink="http://www.w3.org/1999/xlink">
    <!-- Generator: Sketch 46.2 (44496) - http://www.bohemiancoding.com/sketch -->
    <title>Artboard</title>
    <desc>Created with Sketch.</desc>
    <defs></defs>
    <g id="Page-1" stroke="none" stroke-width="1" fill="none" fill-rule="evenodd">
        <g id="Artboard"></g>
        <g id="Untitled">
            <rect id="Rectangle-path" x="0" y="0" width="72" height="72"></rect>
            <g id="Group" transform="translate(3.000000, 0.000000)" fill-rule="nonzero" fill="#093D5E">
                <path d="M66.5465627,65.3463687 L42.8491797,3.47486034 C42.353961,2.07821229 41.7330814,1.22346369 40.8357475,0.69273743 C40.0206644,0.212290503 38.9799627,0.00558659218 37.3566508,0.00558659218 L29.7216017,0.00558659218 C26.9067949,0.00558659218 25.3668763,0.553072626 24.2319288,3.66480447 L0.531689831,65.3463687 C-0.0589169492,66.9050279 -0.0754813559,68.0446927 0.480854237,68.8268156 C1.03147797,69.603352 2.09788305,69.9776536 3.74118644,69.9776536 L10.5834288,69.9776536 C15.6509949,69.9776536 17.2491746,69.1620112 18.3601322,66.0111732 L18.8941915,64.4748603 L17.6941288,64.4748603 L17.2851593,65.6536313 C16.4072458,68.1396648 15.421378,68.8659218 10.5834288,68.8659218 L3.74118644,68.8659218 C2.51427797,68.8659218 1.73118136,68.6424581 1.41360169,68.1955307 C1.08973898,67.7374302 1.15142712,66.9106145 1.59581017,65.7374302 L25.2983339,4.04469274 C26.2133746,1.54189944 27.2055254,1.11731844 29.7216017,1.11731844 L37.3566508,1.11731844 C40.0697864,1.11731844 41.0196695,1.70391061 41.7782051,3.84916201 L65.4813,65.7374302 C65.9176864,66.8882682 65.9708068,67.7094972 65.6378051,68.1787709 C65.3128,68.6368715 64.5388424,68.8659218 63.3370661,68.8659218 L55.8996475,68.8659218 C50.9543153,68.8659218 49.8656339,68.0670391 49.1013864,65.6592179 L48.7032695,64.4748603 L47.5072051,64.4748603 L48.0189881,66 C48.9985729,69.0837989 50.7663949,69.9776536 55.8996475,69.9776536 L63.3370661,69.9776536 C64.9552373,69.9776536 66.0125034,69.5977654 66.5705525,68.8100559 C67.1360271,68.0167598 67.1286017,66.8826816 66.5465627,65.3463687" id="Shape"></path>
            </g>
            <g id="Group" transform="translate(30.000000, 16.000000)" fill-rule="nonzero" fill="#093D5E">
                <polygon id="Shape" points="2.39370088 2.90307692 11.8370499 2.90307692 11.8370499 1.55261538 11.8370499 1.52676923 11.8370499 0.169846154 10.6564927 0.169846154 10.6564927 1.52676923 9.47593548 1.52676923 8.2953783 1.52676923 7.11537537 1.52676923 5.93481818 1.52676923 4.75481525 1.52676923 3.57425806 1.52676923 2.39370088 1.52676923 1.2131437 1.52676923 1.2131437 0.169846154 0.0325865103 0.169846154 0.0325865103 2.90307692"></polygon>
            </g>
            <g id="Group" transform="translate(28.000000, 19.000000)" fill-rule="nonzero" fill="#093D5E">
                <polygon id="Shape" points="1.806 1.48692308 1.806 0.0942307692 0.2085 0.0942307692 0.2085 2.87961538 1.806 2.87961538"></polygon>
            </g>
            <g id="Group" transform="translate(27.000000, 22.000000)" fill-rule="nonzero" fill="#093D5E">
                <polygon id="Shape" points="1.95257143 1.44738462 1.95257143 0.0710769231 0.126857143 0.0710769231 0.126857143 2.82369231 1.95257143 2.82369231"></polygon>
            </g>
            <g id="Group" transform="translate(26.000000, 51.000000)" fill-rule="nonzero" fill="#093D5E">
                <polygon id="Shape" points="1.84114286 0.226153846 0.0154285714 0.226153846 0.0154285714 2.97876923 1.84114286 2.97876923 1.84114286 1.60246154"></polygon>
            </g>
            <g id="Group" transform="translate(26.000000, 24.000000)" fill-rule="nonzero" fill="#093D5E">
                <polygon id="Shape" points="1.84114286 2.56842105 1.84114286 1.29323308 1.84114286 0.0120300752 0.0154285714 0.0120300752 0.0154285714 3.84962406 1.84114286 3.84962406"></polygon>
            </g>
            <g id="Group" transform="translate(25.000000, 47.000000)" fill-rule="nonzero" fill="#093D5E">
                <polygon id="Shape" points="1.80064286 1.37675 1.80064286 0.152 0.127071429 0.152 0.127071429 3.82625 1.80064286 3.82625 1.80064286 2.6015"></polygon>
            </g>
            <g id="Group" transform="translate(25.000000, 27.000000)" fill-rule="nonzero" fill="#093D5E">
                <polygon id="Shape" points="1.80064286 2.61131579 1.80064286 1.32210526 1.80064286 0.0328947368 0.127071429 0.0328947368 0.127071429 3.90052632 1.80064286 3.90052632"></polygon>
            </g>
            <g id="Group" transform="translate(23.000000, 31.000000)" fill-rule="nonzero" fill="#093D5E">
                <polygon id="Shape" points="1.55196923 8.52833333 1.55196923 16.9773333 2.92827692 16.9773333 2.92827692 15.7703333 2.92827692 14.5633333 2.92827692 13.3563333 2.92827692 12.1493333 2.92827692 10.9423333 2.92827692 9.73533333 2.92827692 8.52833333 2.92827692 7.32133333 2.92827692 6.11433333 2.92827692 4.90733333 2.92827692 3.70033333 2.92827692 2.49333333 2.92827692 1.28633333 2.92827692 0.0793333333 1.55196923 0.0793333333 1.55196923 3.70033333 0.175661538 3.70033333 0.175661538 7.32133333 1.55196923 7.32133333"></polygon>
            </g>
            <g id="Group" transform="translate(19.000000, 60.000000)" fill-rule="nonzero" fill="#093D5E">
                <polygon id="Shape" points="1.7775 0.168 0.18 0.168 0.18 2.92061538 1.7775 2.92061538 1.7775 1.54430769"></polygon>
            </g>
            <g id="Group" transform="translate(18.000000, 52.000000)" fill-rule="nonzero" fill="#093D5E">
                <polygon id="Shape" points="1.92 5.69767442 1.92 4.55837209 1.92 3.41906977 1.92 2.27976744 1.92 1.14046512 1.92 0.0011627907 0.0942857143 0.0011627907 0.0942857143 7.97627907 1.92 7.97627907 1.92 6.83697674"></polygon>
            </g>
            <g id="Group" transform="translate(20.000000, 62.000000)" fill-rule="nonzero" fill="#093D5E">
                <polygon id="Shape" points="0.009 0.16 0.009 1.98571429 2.9903 1.98571429 2.9903 0.16 1.4993 0.16"></polygon>
            </g>
            <g id="Group" transform="translate(22.000000, 38.000000)" fill-rule="nonzero" fill="#093D5E">
                <polygon id="Shape" points="1.96771429 2.5785 1.96771429 1.35375 1.96771429 0.129 0.142 0.129 0.142 3.80325 1.96771429 3.80325"></polygon>
            </g>
            <g id="Group" transform="translate(20.000000, 42.000000)" fill-rule="nonzero" fill="#093D5E">
                <polygon id="Shape" points="1.85628571 3.72222222 1.85628571 2.53888889 1.85628571 1.35555556 1.85628571 0.172222222 0.0314285714 0.172222222 0.0314285714 4.90555556 1.85628571 4.90555556"></polygon>
            </g>
            <g id="Group" transform="translate(19.000000, 46.000000)" fill-rule="nonzero" fill="#093D5E">
                <polygon id="Shape" points="1.7775 3.64192308 1.7775 2.45403846 1.7775 1.26615385 1.7775 0.0782692308 0.18 0.0782692308 0.18 4.82980769 1.7775 4.82980769"></polygon>
            </g>
            <g id="Group" transform="translate(24.000000, 57.000000)" fill-rule="nonzero" fill="#093D5E">
                <polygon id="Shape" points="1.32755263 0.100576923 1.32755263 1.28846154 0.0383421053 1.28846154 0.0383421053 4.85211538 1.32755263 4.85211538 1.32755263 3.66423077 1.32755263 2.47634615 2.61676316 2.47634615 2.61676316 1.28846154 3.90597368 1.28846154 3.90597368 0.100576923 2.61676316 0.100576923"></polygon>
            </g>
            <g id="Group" transform="translate(23.000000, 61.000000)" fill-rule="nonzero" fill="#093D5E">
                <rect id="Rectangle-path" x="0.22175" y="0.0485714286" width="1.5975" height="1.82571429"></rect>
            </g>
            <g id="Group" transform="translate(32.000000, 65.000000)" fill-rule="nonzero" fill="#093D5E">
                <polygon id="Shape" points="1.82685714 1.44115385 1.82685714 0.0484615385 0.00114285714 0.0484615385 0.00114285714 2.83384615 1.82685714 2.83384615"></polygon>
            </g>
            <g id="Group" transform="translate(35.000000, 69.000000)" fill-rule="nonzero" fill="#093D5E">
                <polygon id="Shape" points="0.145230769 0.225 0.145230769 1.8225 2.92996154 1.8225 2.92996154 0.225 1.53726923 0.225"></polygon>
            </g>
            <g id="Group" transform="translate(35.000000, 70.000000)" fill-rule="nonzero" fill="#093D5E">
                <rect id="Rectangle-path" x="0.157714286" y="0.134285714" width="1.67278571" height="1.82571429"></rect>
            </g>
            <g id="Group" transform="translate(34.000000, 68.000000)" fill-rule="nonzero" fill="#093D5E">
                <rect id="Rectangle-path" x="0.112571429" y="0.145714286" width="1.82571429" height="1.82571429"></rect>
            </g>
            <g id="Group" transform="translate(31.000000, 60.000000)" fill-rule="nonzero" fill="#093D5E">
                <polygon id="Shape" points="0.113082707 1.43759398 0.113082707 4 1.39428571 4 1.39428571 2.71879699 3.95669173 2.71879699 3.95669173 1.43759398 2.67548872 1.43759398 1.39428571 1.43759398 1.39428571 0.156390977 0.113082707 0.156390977"></polygon>
            </g>
            <g id="Group" transform="translate(34.000000, 64.000000)" fill-rule="nonzero" fill="#093D5E">
                <rect id="Rectangle-path" x="0.112571429" y="0.2375" width="1.82571429" height="1.5975"></rect>
            </g>
            <g id="Group" transform="translate(30.000000, 57.000000)" fill-rule="nonzero" fill="#093D5E">
                <polygon id="Shape" points="9.47593548 0 8.2953783 0 7.11482111 0 5.93426393 0 4.754261 0 3.57425806 0 2.39370088 0 1.21258944 0 0.0325865103 0 0.0325865103 1.23066667 2.39370088 1.23066667 2.39370088 2.46133333 3.57425806 2.46133333 3.57425806 1.23066667 8.2953783 1.23066667 8.2953783 2.46133333 9.47593548 2.46133333 9.47593548 3.692 8.2953783 3.692 8.2953783 4.92266667 10.6564927 4.92266667 10.6564927 3.692 10.6564927 2.46133333 10.6564927 1.23066667 11.8370499 1.23066667 11.8370499 0 10.6564927 0"></polygon>
            </g>
            <g id="Group" transform="translate(42.000000, 19.000000)" fill-rule="nonzero" fill="#093D5E">
                <polygon id="Shape" points="0.0337142857 2.87961538 1.85942857 2.87961538 1.85942857 1.48692308 1.85942857 0.0942307692 0.0337142857 0.0942307692"></polygon>
            </g>
            <g id="Group" transform="translate(27.000000, 54.000000)" fill-rule="nonzero" fill="#093D5E">
                <polygon id="Shape" points="16.9807333 0.15075 15.7737333 0.15075 15.7737333 1.3755 14.5667333 1.3755 13.3597333 1.3755 12.1527333 1.3755 10.9463 1.3755 9.7393 1.3755 8.5323 1.3755 7.32586667 1.3755 6.11886667 1.3755 4.91186667 1.3755 3.70486667 1.3755 2.49786667 1.3755 1.29143333 1.3755 1.29143333 0.15075 0.0844333333 0.15075 0.0844333333 2.60025 1.29143333 2.60025 1.29143333 3.825 2.49786667 3.825 2.49786667 2.60025 14.5667333 2.60025 14.5667333 3.825 15.7737333 3.825 15.7737333 2.60025 16.9807333 2.60025 16.9807333 1.3755"></polygon>
            </g>
            <g id="Group" transform="translate(43.000000, 22.000000)" fill-rule="nonzero" fill="#093D5E">
                <polygon id="Shape" points="0.145142857 2.82369231 1.97085714 2.82369231 1.97085714 1.44738462 1.97085714 0.0710769231 0.145142857 0.0710769231"></polygon>
            </g>
            <g id="Group" transform="translate(44.000000, 51.000000)" fill-rule="nonzero" fill="#093D5E">
                <polygon id="Shape" points="0.187571429 1.60246154 0.187571429 2.97876923 1.86114286 2.97876923 1.86114286 1.60246154 1.86114286 0.226153846 0.187571429 0.226153846"></polygon>
            </g>
            <g id="Group" transform="translate(44.000000, 24.000000)" fill-rule="nonzero" fill="#093D5E">
                <polygon id="Shape" points="0.187571429 2.56842105 0.187571429 3.84962406 1.86114286 3.84962406 1.86114286 2.56842105 1.86114286 1.29323308 1.86114286 0.0120300752 0.187571429 0.0120300752"></polygon>
            </g>
            <g id="Group" transform="translate(46.000000, 27.000000)" fill-rule="nonzero" fill="#093D5E">
                <polygon id="Shape" points="0.0822857143 2.61131579 0.0822857143 3.90052632 1.908 3.90052632 1.908 2.61131579 1.908 1.32210526 1.908 0.0328947368 0.0822857143 0.0328947368"></polygon>
            </g>
            <g id="Group" transform="translate(46.000000, 47.000000)" fill-rule="nonzero" fill="#093D5E">
                <polygon id="Shape" points="0.0822857143 1.37675 0.0822857143 3.82625 1.908 3.82625 1.908 2.6015 1.908 1.37675 1.908 0.152 0.0822857143 0.152"></polygon>
            </g>
            <g id="Group" transform="translate(46.000000, 31.000000)" fill-rule="nonzero" fill="#093D5E">
                <polygon id="Shape" points="0.146030769 2.49333333 0.146030769 16.9773333 1.52233846 16.9773333 1.52233846 15.7703333 1.52233846 14.5633333 1.52233846 13.3563333 1.52233846 12.1493333 1.52233846 10.9423333 1.52233846 9.73533333 1.52233846 8.52833333 1.52233846 7.32133333 2.89864615 7.32133333 2.89864615 6.11433333 2.89864615 4.90733333 2.89864615 3.70033333 1.52233846 3.70033333 1.52233846 2.49333333 1.52233846 1.28633333 1.52233846 0.0793333333 0.146030769 0.0793333333"></polygon>
            </g>
            <g id="Group" transform="translate(51.000000, 60.000000)" fill-rule="nonzero" fill="#093D5E">
                <polygon id="Shape" points="0.0671428571 1.54430769 0.0671428571 2.92061538 1.89285714 2.92061538 1.89285714 1.54430769 1.89285714 0.168 0.0671428571 0.168"></polygon>
            </g>
            <g id="Group" transform="translate(49.000000, 62.000000)" fill-rule="nonzero" fill="#093D5E">
                <polygon id="Shape" points="0.0826153846 0.16 0.0826153846 1.98571429 2.83523077 1.98571429 2.83523077 0.16 1.45892308 0.16"></polygon>
            </g>
            <g id="Group" transform="translate(49.000000, 38.000000)" fill-rule="nonzero" fill="#093D5E">
                <polygon id="Shape" points="0.13 2.5785 0.13 3.80325 1.95571429 3.80325 1.95571429 2.5785 1.95571429 1.35375 1.95571429 0.129 0.13 0.129"></polygon>
            </g>
            <g id="Group" transform="translate(50.000000, 42.000000)" fill-rule="nonzero" fill="#093D5E">
                <polygon id="Shape" points="0.21125 2.53888889 0.21125 4.90555556 1.80875 4.90555556 1.80875 3.72222222 1.80875 2.53888889 1.80875 1.35555556 1.80875 0.172222222 0.21125 0.172222222"></polygon>
            </g>
            <g id="Group" transform="translate(51.000000, 46.000000)" fill-rule="nonzero" fill="#093D5E">
                <polygon id="Shape" points="0.0671428571 2.45403846 0.0671428571 4.82980769 1.89285714 4.82980769 1.89285714 3.64192308 1.89285714 2.45403846 1.89285714 1.26615385 1.89285714 0.0782692308 0.0671428571 0.0782692308"></polygon>
            </g>
            <g id="Group" transform="translate(53.000000, 52.000000)" fill-rule="nonzero" fill="#093D5E">
                <polygon id="Shape" points="0.116071429 0.0011627907 0.116071429 7.97627907 1.78964286 7.97627907 1.78964286 6.83697674 1.78964286 5.69767442 1.78964286 4.55837209 1.78964286 3.41906977 1.78964286 2.27976744 1.78964286 1.14046512 1.78964286 0.0011627907"></polygon>
            </g>
            <g id="Group" transform="translate(46.000000, 58.000000)" fill-rule="nonzero" fill="#093D5E">
                <polygon id="Shape" points="1.76625 0.084 0.16875 0.084 0.16875 2.83661538 1.76625 2.83661538 1.76625 1.46030769"></polygon>
            </g>
            <g id="Group" transform="translate(46.000000, 57.000000)" fill-rule="nonzero" fill="#093D5E">
                <rect id="Rectangle-path" x="0.0822857143" y="0" width="1.82571429" height="1.82571429"></rect>
            </g>
            <g id="Group" transform="translate(44.000000, 57.000000)" fill-rule="nonzero" fill="#093D5E">
                <rect id="Rectangle-path" x="0.187571429" y="0.112142857" width="1.67357143" height="1.67357143"></rect>
            </g>
            <g id="Group" transform="translate(48.000000, 61.000000)" fill-rule="nonzero" fill="#093D5E">
                <rect id="Rectangle-path" x="0.0185714286" y="0.0485714286" width="1.82571429" height="1.82571429"></rect>
            </g>
            <g id="Group" transform="translate(38.000000, 65.000000)" fill-rule="nonzero" fill="#093D5E">
                <polygon id="Shape" points="0.237 2.83384615 1.8345 2.83384615 1.8345 1.44115385 1.8345 0.0484615385 0.237 0.0484615385"></polygon>
            </g>
            <g id="Group" transform="translate(39.000000, 64.000000)" fill-rule="nonzero" fill="#093D5E">
                <rect id="Rectangle-path" x="0.0965714286" y="0.2375" width="1.82571429" height="1.5975"></rect>
            </g>
            <g id="Group" transform="translate(37.000000, 67.000000)" fill-rule="nonzero" fill="#093D5E">
                <polygon id="Shape" points="0.160285714 1.40215385 0.160285714 2.77846154 1.986 2.77846154 1.986 1.40215385 1.986 0.0258461538 0.160285714 0.0258461538"></polygon>
            </g>
            <g id="Group" transform="translate(36.000000, 60.000000)" fill-rule="nonzero" fill="#093D5E">
                <rect id="Rectangle-path" x="0.0488571429" y="0.195" width="1.82571429" height="1.5975"></rect>
            </g>
            <g id="Group" transform="translate(37.000000, 62.000000)" fill-rule="nonzero" fill="#093D5E">
                <polygon id="Shape" points="0.160285714 1.48153846 0.160285714 2.85784615 1.986 2.85784615 1.986 1.48153846 1.986 0.105230769 0.160285714 0.105230769"></polygon>
            </g>
            <g id="Group" transform="translate(36.000000, 65.000000)" fill-rule="nonzero" fill="#093D5E">
                <rect id="Rectangle-path" x="0.0488571429" y="0.0971428571" width="1.82571429" height="1.82571429"></rect>
            </g>
            <g id="Group" transform="translate(31.000000, 27.000000)" fill-rule="nonzero" fill="#093D5E">
                <polygon id="Shape" points="1.39428571 2.61131579 2.67548872 2.61131579 2.67548872 1.32210526 3.95669173 1.32210526 3.95669173 0.0328947368 2.67548872 0.0328947368 1.39428571 0.0328947368 1.39428571 1.32210526 0.113082707 1.32210526 0.113082707 3.90052632 1.39428571 3.90052632"></polygon>
            </g>
            <g id="Group" transform="translate(30.000000, 31.000000)" fill-rule="nonzero" fill="#093D5E">
                <polygon id="Shape" points="1.88971429 1.46676923 1.88971429 0.0904615385 0.0648571429 0.0904615385 0.0648571429 2.84307692 1.88971429 2.84307692"></polygon>
            </g>
            <g id="Group" transform="translate(31.000000, 34.000000)" fill-rule="nonzero" fill="#093D5E">
                <polygon id="Shape" points="2.67548872 2.5924812 2.67548872 1.3112782 1.39428571 1.3112782 1.39428571 0.030075188 0.113082707 0.030075188 0.113082707 2.5924812 1.39428571 2.5924812 1.39428571 3.87368421 3.95669173 3.87368421 3.95669173 2.5924812"></polygon>
            </g>
            <g id="Group" transform="translate(35.000000, 37.000000)" fill-rule="nonzero" fill="#093D5E">
                <polygon id="Shape" points="0.145230769 0.105714286 0.145230769 1.93142857 2.92996154 1.93142857 2.92996154 0.105714286 1.53726923 0.105714286"></polygon>
            </g>
            <g id="Group" transform="translate(37.000000, 27.000000)" fill-rule="nonzero" fill="#093D5E">
                <polygon id="Shape" points="1.39308271 1.32210526 1.39308271 2.61131579 2.67428571 2.61131579 2.67428571 3.90052632 3.95548872 3.90052632 3.95548872 2.61131579 3.95548872 1.32210526 2.67428571 1.32210526 2.67428571 0.0328947368 1.39308271 0.0328947368 0.111879699 0.0328947368 0.111879699 1.32210526"></polygon>
            </g>
            <g id="Group" transform="translate(35.000000, 26.000000)" fill-rule="nonzero" fill="#093D5E">
                <polygon id="Shape" points="2.92996154 1.8125 2.92996154 0.215 1.53726923 0.215 0.145230769 0.215 0.145230769 1.8125"></polygon>
            </g>
            <g id="Group" transform="translate(41.000000, 31.000000)" fill-rule="nonzero" fill="#093D5E">
                <polygon id="Shape" points="0.182 2.84307692 1.7795 2.84307692 1.7795 1.46676923 1.7795 0.0904615385 0.182 0.0904615385"></polygon>
            </g>
            <g id="Group" transform="translate(37.000000, 34.000000)" fill-rule="nonzero" fill="#093D5E">
                <polygon id="Shape" points="2.67428571 1.3112782 1.39308271 1.3112782 1.39308271 2.5924812 0.111879699 2.5924812 0.111879699 3.87368421 2.67428571 3.87368421 2.67428571 2.5924812 3.95548872 2.5924812 3.95548872 1.3112782 3.95548872 0.030075188 2.67428571 0.030075188"></polygon>
            </g>
            <g id="Group" transform="translate(31.000000, 15.000000)" fill-rule="nonzero" fill="#093D5E">
                <rect id="Rectangle-path" x="0.1535" y="0.108571429" width="1.5975" height="1.82571429"></rect>
            </g>
            <g id="Group" transform="translate(32.000000, 15.000000)" fill-rule="nonzero" fill="#093D5E">
                <rect id="Rectangle-path" x="0.00114285714" y="0.2475" width="1.82571429" height="1.5975"></rect>
            </g>
            <g id="Group" transform="translate(34.000000, 12.000000)" fill-rule="nonzero" fill="#093D5E">
                <polygon id="Shape" points="1.24886538 1.42153846 3.62296154 1.42153846 3.62296154 2.79784615 4.81084615 2.79784615 4.81084615 1.42153846 3.62351923 1.42153846 3.62351923 0.0452307692 2.43563462 0.0452307692 1.24830769 0.0452307692 1.24830769 1.42153846 0.0609807692 1.42153846 0.0609807692 2.79784615 1.24886538 2.79784615"></polygon>
            </g>
            <g id="Group" transform="translate(39.000000, 15.000000)" fill-rule="nonzero" fill="#093D5E">
                <rect id="Rectangle-path" x="0.0965714286" y="0.108571429" width="1.82571429" height="1.82571429"></rect>
            </g>
            <g id="Group" transform="translate(38.000000, 15.000000)" fill-rule="nonzero" fill="#093D5E">
                <rect id="Rectangle-path" x="0.237" y="0.2475" width="1.5975" height="1.5975"></rect>
            </g>
        </g>
    </g>
</svg>