<?xml version="1.0" encoding="UTF-8" standalone="no"?>
<!DOCTYPE svg PUBLIC "-//W3C//DTD SVG 1.1//EN" "http://www.w3.org/Graphics/SVG/1.1/DTD/svg11.dtd">
<svg width="100%" height="100%" viewBox="0 0 188 178" version="1.1" xmlns="http://www.w3.org/2000/svg" xmlns:xlink="http://www.w3.org/1999/xlink" xml:space="preserve" style="fill-rule:evenodd;clip-rule:evenodd;stroke-linejoin:round;stroke-miterlimit:1.41421;">
    <g transform="matrix(1,0,0,1,-38.7499,-217.53)">
        <path d="M221.148,225.244C222.811,229.11 223.726,234.277 223.726,239.792C223.726,245.3 222.811,250.468 221.148,254.335C219.635,257.861 217.651,259.881 215.712,259.881C213.77,259.881 211.788,257.861 210.273,254.335C208.61,250.468 207.695,245.3 207.695,239.792C207.695,234.277 208.61,229.11 210.273,225.244C211.788,221.716 213.77,219.699 215.712,219.699C217.651,219.699 219.635,221.716 221.148,225.244M53.419,219.699L211.223,219.699C210.125,220.84 209.13,222.417 208.281,224.389C206.506,228.519 205.53,233.991 205.53,239.792C205.53,245.59 206.506,251.061 208.281,255.192C209.13,257.163 210.125,258.741 211.223,259.881L53.419,259.881C54.517,258.741 55.512,257.163 56.361,255.192C58.136,251.061 59.112,245.59 59.112,239.792C59.112,233.991 58.136,228.519 56.361,224.389C55.512,222.417 54.517,220.84 53.419,219.699M43.494,254.335C41.833,250.468 40.917,245.3 40.917,239.792C40.917,234.277 41.833,229.11 43.494,225.244C45.007,221.716 46.991,219.699 48.93,219.699C50.874,219.699 52.855,221.716 54.37,225.244C56.032,229.11 56.947,234.277 56.947,239.792C56.947,245.3 56.032,250.468 54.37,254.335C52.855,257.861 50.874,259.881 48.93,259.881C46.991,259.881 45.007,257.861 43.494,254.335M48.93,217.53C46.042,217.53 43.403,219.966 41.504,224.389C39.728,228.519 38.75,233.991 38.75,239.792C38.75,245.59 39.728,251.061 41.504,255.192C43.403,259.611 46.042,262.047 48.93,262.047C49.07,262.047 49.209,262.039 49.347,262.03L49.347,262.047L214.972,262.047L214.972,261.994C215.215,262.03 215.461,262.047 215.712,262.047C218.602,262.047 221.24,259.611 223.14,255.192C224.916,251.061 225.892,245.59 225.892,239.792C225.892,233.991 224.916,228.519 223.14,224.389C221.24,219.966 218.602,217.53 215.712,217.53C215.461,217.53 215.215,217.552 214.972,217.586L214.972,217.53L49.347,217.53L49.347,217.552C49.209,217.536 49.07,217.53 48.93,217.53" style="fill:white;fill-rule:nonzero;"/>
        <path d="M96.057,393.11C96.703,393.11 97.229,393.635 97.229,394.282C97.229,394.932 96.703,395.457 96.057,395.457C95.408,395.457 94.879,394.932 94.879,394.282C94.879,393.635 95.408,393.11 96.057,393.11" style="fill:white;fill-rule:nonzero;"/>
        <path d="M96.057,384.623C96.703,384.623 97.229,385.147 97.229,385.795C97.229,386.443 96.703,386.968 96.057,386.968C95.408,386.968 94.879,386.443 94.879,385.795C94.879,385.147 95.408,384.623 96.057,384.623" style="fill:white;fill-rule:nonzero;"/>
        <path d="M96.057,376.134C96.703,376.134 97.229,376.656 97.229,377.305C97.229,377.954 96.703,378.479 96.057,378.479C95.408,378.479 94.879,377.954 94.879,377.305C94.879,376.656 95.408,376.134 96.057,376.134" style="fill:white;fill-rule:nonzero;"/>
        <path d="M96.057,367.645C96.703,367.645 97.229,368.169 97.229,368.816C97.229,369.465 96.703,369.991 96.057,369.991C95.408,369.991 94.879,369.465 94.879,368.816C94.879,368.169 95.408,367.645 96.057,367.645" style="fill:white;fill-rule:nonzero;"/>
        <path d="M96.057,359.156C96.703,359.156 97.229,359.68 97.229,360.329C97.229,360.977 96.703,361.501 96.057,361.501C95.408,361.501 94.879,360.977 94.879,360.329C94.879,359.68 95.408,359.156 96.057,359.156" style="fill:white;fill-rule:nonzero;"/>
        <path d="M96.057,350.666C96.703,350.666 97.229,351.19 97.229,351.841C97.229,352.487 96.703,353.013 96.057,353.013C95.408,353.013 94.879,352.487 94.879,351.841C94.879,351.19 95.408,350.666 96.057,350.666" style="fill:white;fill-rule:nonzero;"/>
        <path d="M96.057,342.179C96.703,342.179 97.229,342.705 97.229,343.351C97.229,344 96.703,344.524 96.057,344.524C95.408,344.524 94.879,344 94.879,343.351C94.879,342.705 95.408,342.179 96.057,342.179" style="fill:white;fill-rule:nonzero;"/>
        <path d="M96.057,333.69C96.703,333.69 97.229,334.216 97.229,334.863C97.229,335.511 96.703,336.037 96.057,336.037C95.408,336.037 94.879,335.511 94.879,334.863C94.879,334.216 95.408,333.69 96.057,333.69" style="fill:white;fill-rule:nonzero;"/>
        <path d="M96.057,325.201C96.703,325.201 97.229,325.725 97.229,326.373C97.229,327.022 96.703,327.548 96.057,327.548C95.408,327.548 94.879,327.022 94.879,326.373C94.879,325.725 95.408,325.201 96.057,325.201" style="fill:white;fill-rule:nonzero;"/>
        <path d="M96.057,316.712C96.703,316.712 97.229,317.236 97.229,317.884C97.229,318.533 96.703,319.057 96.057,319.057C95.408,319.057 94.879,318.533 94.879,317.884C94.879,317.236 95.408,316.712 96.057,316.712" style="fill:white;fill-rule:nonzero;"/>
        <path d="M96.057,308.224C96.703,308.224 97.229,308.75 97.229,309.397C97.229,310.045 96.703,310.571 96.057,310.571C95.408,310.571 94.879,310.045 94.879,309.397C94.879,308.75 95.408,308.224 96.057,308.224" style="fill:white;fill-rule:nonzero;"/>
        <path d="M96.057,299.735C96.703,299.735 97.229,300.259 97.229,300.907C97.229,301.556 96.703,302.082 96.057,302.082C95.408,302.082 94.879,301.556 94.879,300.907C94.879,300.259 95.408,299.735 96.057,299.735" style="fill:white;fill-rule:nonzero;"/>
        <path d="M96.057,291.248C96.703,291.248 97.229,291.771 97.229,292.421C97.229,293.067 96.703,293.593 96.057,293.593C95.408,293.593 94.879,293.067 94.879,292.421C94.879,291.771 95.408,291.248 96.057,291.248" style="fill:white;fill-rule:nonzero;"/>
        <path d="M96.057,282.757C96.703,282.757 97.229,283.281 97.229,283.929C97.229,284.578 96.703,285.102 96.057,285.102C95.408,285.102 94.879,284.578 94.879,283.929C94.879,283.281 95.408,282.757 96.057,282.757" style="fill:white;fill-rule:nonzero;"/>
        <path d="M96.057,274.269C96.703,274.269 97.229,274.795 97.229,275.441C97.229,276.09 96.703,276.616 96.057,276.616C95.408,276.616 94.879,276.09 94.879,275.441C94.879,274.795 95.408,274.269 96.057,274.269" style="fill:white;fill-rule:nonzero;"/>
        <path d="M96.057,265.78C96.703,265.78 97.229,266.304 97.229,266.952C97.229,267.601 96.703,268.127 96.057,268.127C95.408,268.127 94.879,267.601 94.879,266.952C94.879,266.304 95.408,265.78 96.057,265.78" style="fill:white;fill-rule:nonzero;"/>
        <path d="M96.057,257.291C96.703,257.291 97.229,257.815 97.229,258.466C97.229,259.112 96.703,259.638 96.057,259.638C95.408,259.638 94.879,259.112 94.879,258.466C94.879,257.815 95.408,257.291 96.057,257.291" style="fill:white;fill-rule:nonzero;"/>
        <path d="M96.057,248.802C96.703,248.802 97.229,249.326 97.229,249.973C97.229,250.623 96.703,251.149 96.057,251.149C95.408,251.149 94.879,250.623 94.879,249.973C94.879,249.326 95.408,248.802 96.057,248.802" style="fill:white;fill-rule:nonzero;"/>
        <path d="M100.747,388.865C101.393,388.865 101.919,389.391 101.919,390.039C101.919,390.686 101.393,391.211 100.747,391.211C100.101,391.211 99.572,390.686 99.572,390.039C99.572,389.391 100.101,388.865 100.747,388.865" style="fill:white;fill-rule:nonzero;"/>
        <path d="M100.747,380.377C101.393,380.377 101.919,380.903 101.919,381.552C101.919,382.199 101.393,382.725 100.747,382.725C100.101,382.725 99.572,382.199 99.572,381.552C99.572,380.903 100.101,380.377 100.747,380.377" style="fill:white;fill-rule:nonzero;"/>
        <path d="M100.747,371.888C101.393,371.888 101.919,372.414 101.919,373.061C101.919,373.71 101.393,374.236 100.747,374.236C100.101,374.236 99.572,373.71 99.572,373.061C99.572,372.414 100.101,371.888 100.747,371.888" style="fill:white;fill-rule:nonzero;"/>
        <path d="M100.747,363.399C101.393,363.399 101.919,363.925 101.919,364.572C101.919,365.22 101.393,365.746 100.747,365.746C100.101,365.746 99.572,365.22 99.572,364.572C99.572,363.925 100.101,363.399 100.747,363.399" style="fill:white;fill-rule:nonzero;"/>
        <path d="M100.747,354.912C101.393,354.912 101.919,355.436 101.919,356.085C101.919,356.733 101.393,357.259 100.747,357.259C100.101,357.259 99.572,356.733 99.572,356.085C99.572,355.436 100.101,354.912 100.747,354.912" style="fill:white;fill-rule:nonzero;"/>
        <path d="M100.747,346.423C101.393,346.423 101.919,346.947 101.919,347.596C101.919,348.242 101.393,348.77 100.747,348.77C100.101,348.77 99.572,348.242 99.572,347.596C99.572,346.947 100.101,346.423 100.747,346.423" style="fill:white;fill-rule:nonzero;"/>
        <path d="M100.747,337.933C101.393,337.933 101.919,338.459 101.919,339.106C101.919,339.755 101.393,340.28 100.747,340.28C100.101,340.28 99.572,339.755 99.572,339.106C99.572,338.459 100.101,337.933 100.747,337.933" style="fill:white;fill-rule:nonzero;"/>
        <path d="M100.747,329.446C101.393,329.446 101.919,329.972 101.919,330.618C101.919,331.267 101.393,331.791 100.747,331.791C100.101,331.791 99.572,331.267 99.572,330.618C99.572,329.972 100.101,329.446 100.747,329.446" style="fill:white;fill-rule:nonzero;"/>
        <path d="M100.747,320.957C101.393,320.957 101.919,321.483 101.919,322.13C101.919,322.778 101.393,323.304 100.747,323.304C100.101,323.304 99.572,322.778 99.572,322.13C99.572,321.483 100.101,320.957 100.747,320.957" style="fill:white;fill-rule:nonzero;"/>
        <path d="M100.747,312.468C101.393,312.468 101.919,312.992 101.919,313.639C101.919,314.288 101.393,314.815 100.747,314.815C100.101,314.815 99.572,314.288 99.572,313.639C99.572,312.992 100.101,312.468 100.747,312.468" style="fill:white;fill-rule:nonzero;"/>
        <path d="M100.747,303.98C101.393,303.98 101.919,304.504 101.919,305.151C101.919,305.8 101.393,306.325 100.747,306.325C100.101,306.325 99.572,305.8 99.572,305.151C99.572,304.504 100.101,303.98 100.747,303.98" style="fill:white;fill-rule:nonzero;"/>
        <path d="M100.747,295.49C101.393,295.49 101.919,296.016 101.919,296.664C101.919,297.311 101.393,297.837 100.747,297.837C100.101,297.837 99.572,297.311 99.572,296.664C99.572,296.016 100.101,295.49 100.747,295.49" style="fill:white;fill-rule:nonzero;"/>
        <path d="M100.747,287C101.393,287 101.919,287.528 101.919,288.174C101.919,288.823 101.393,289.349 100.747,289.349C100.101,289.349 99.572,288.823 99.572,288.174C99.572,287.528 100.101,287 100.747,287" style="fill:white;fill-rule:nonzero;"/>
        <path d="M100.747,278.513C101.393,278.513 101.919,279.039 101.919,279.686C101.919,280.334 101.393,280.86 100.747,280.86C100.101,280.86 99.572,280.334 99.572,279.686C99.572,279.039 100.101,278.513 100.747,278.513" style="fill:white;fill-rule:nonzero;"/>
        <path d="M100.747,270.023C101.393,270.023 101.919,270.547 101.919,271.198C101.919,271.845 101.393,272.371 100.747,272.371C100.101,272.371 99.572,271.845 99.572,271.198C99.572,270.547 100.101,270.023 100.747,270.023" style="fill:white;fill-rule:nonzero;"/>
        <path d="M100.747,261.535C101.393,261.535 101.919,262.061 101.919,262.708C101.919,263.356 101.393,263.882 100.747,263.882C100.101,263.882 99.572,263.356 99.572,262.708C99.572,262.061 100.101,261.535 100.747,261.535" style="fill:white;fill-rule:nonzero;"/>
        <path d="M100.747,253.046C101.393,253.046 101.919,253.572 101.919,254.219C101.919,254.867 101.393,255.393 100.747,255.393C100.101,255.393 99.572,254.867 99.572,254.219C99.572,253.572 100.101,253.046 100.747,253.046" style="fill:white;fill-rule:nonzero;"/>
        <path d="M105.856,384.623C106.502,384.623 107.028,385.147 107.028,385.795C107.028,386.443 106.502,386.968 105.856,386.968C105.207,386.968 104.681,386.443 104.681,385.795C104.681,385.147 105.207,384.623 105.856,384.623" style="fill:white;fill-rule:nonzero;"/>
        <path d="M105.856,376.134C106.502,376.134 107.028,376.656 107.028,377.305C107.028,377.954 106.502,378.479 105.856,378.479C105.207,378.479 104.681,377.954 104.681,377.305C104.681,376.656 105.207,376.134 105.856,376.134" style="fill:white;fill-rule:nonzero;"/>
        <path d="M105.856,367.645C106.502,367.645 107.028,368.169 107.028,368.816C107.028,369.465 106.502,369.991 105.856,369.991C105.207,369.991 104.681,369.465 104.681,368.816C104.681,368.169 105.207,367.645 105.856,367.645" style="fill:white;fill-rule:nonzero;"/>
        <path d="M105.856,359.156C106.502,359.156 107.028,359.68 107.028,360.329C107.028,360.977 106.502,361.501 105.856,361.501C105.207,361.501 104.681,360.977 104.681,360.329C104.681,359.68 105.207,359.156 105.856,359.156" style="fill:white;fill-rule:nonzero;"/>
        <path d="M105.856,350.666C106.502,350.666 107.028,351.19 107.028,351.841C107.028,352.487 106.502,353.013 105.856,353.013C105.207,353.013 104.681,352.487 104.681,351.841C104.681,351.19 105.207,350.666 105.856,350.666" style="fill:white;fill-rule:nonzero;"/>
        <path d="M105.856,342.179C106.502,342.179 107.028,342.705 107.028,343.351C107.028,344 106.502,344.524 105.856,344.524C105.207,344.524 104.681,344 104.681,343.351C104.681,342.705 105.207,342.179 105.856,342.179" style="fill:white;fill-rule:nonzero;"/>
        <path d="M105.856,333.69C106.502,333.69 107.028,334.216 107.028,334.863C107.028,335.511 106.502,336.037 105.856,336.037C105.207,336.037 104.681,335.511 104.681,334.863C104.681,334.216 105.207,333.69 105.856,333.69" style="fill:white;fill-rule:nonzero;"/>
        <path d="M105.856,325.201C106.502,325.201 107.028,325.725 107.028,326.373C107.028,327.022 106.502,327.548 105.856,327.548C105.207,327.548 104.681,327.022 104.681,326.373C104.681,325.725 105.207,325.201 105.856,325.201" style="fill:white;fill-rule:nonzero;"/>
        <path d="M105.856,316.712C106.502,316.712 107.028,317.236 107.028,317.884C107.028,318.533 106.502,319.057 105.856,319.057C105.207,319.057 104.681,318.533 104.681,317.884C104.681,317.236 105.207,316.712 105.856,316.712" style="fill:white;fill-rule:nonzero;"/>
        <path d="M105.856,308.224C106.502,308.224 107.028,308.75 107.028,309.397C107.028,310.045 106.502,310.571 105.856,310.571C105.207,310.571 104.681,310.045 104.681,309.397C104.681,308.75 105.207,308.224 105.856,308.224" style="fill:white;fill-rule:nonzero;"/>
        <path d="M105.856,299.735C106.502,299.735 107.028,300.259 107.028,300.907C107.028,301.556 106.502,302.082 105.856,302.082C105.207,302.082 104.681,301.556 104.681,300.907C104.681,300.259 105.207,299.735 105.856,299.735" style="fill:white;fill-rule:nonzero;"/>
        <path d="M105.856,291.248C106.502,291.248 107.028,291.771 107.028,292.421C107.028,293.067 106.502,293.593 105.856,293.593C105.207,293.593 104.681,293.067 104.681,292.421C104.681,291.771 105.207,291.248 105.856,291.248" style="fill:white;fill-rule:nonzero;"/>
        <path d="M105.856,282.757C106.502,282.757 107.028,283.281 107.028,283.929C107.028,284.578 106.502,285.102 105.856,285.102C105.207,285.102 104.681,284.578 104.681,283.929C104.681,283.281 105.207,282.757 105.856,282.757" style="fill:white;fill-rule:nonzero;"/>
        <path d="M105.856,274.269C106.502,274.269 107.028,274.795 107.028,275.441C107.028,276.09 106.502,276.616 105.856,276.616C105.207,276.616 104.681,276.09 104.681,275.441C104.681,274.795 105.207,274.269 105.856,274.269" style="fill:white;fill-rule:nonzero;"/>
        <path d="M105.856,265.78C106.502,265.78 107.028,266.304 107.028,266.952C107.028,267.601 106.502,268.127 105.856,268.127C105.207,268.127 104.681,267.601 104.681,266.952C104.681,266.304 105.207,265.78 105.856,265.78" style="fill:white;fill-rule:nonzero;"/>
        <path d="M105.856,257.291C106.502,257.291 107.028,257.815 107.028,258.466C107.028,259.112 106.502,259.638 105.856,259.638C105.207,259.638 104.681,259.112 104.681,258.466C104.681,257.815 105.207,257.291 105.856,257.291" style="fill:white;fill-rule:nonzero;"/>
        <path d="M105.856,248.802C106.502,248.802 107.028,249.326 107.028,249.973C107.028,250.623 106.502,251.149 105.856,251.149C105.207,251.149 104.681,250.623 104.681,249.973C104.681,249.326 105.207,248.802 105.856,248.802" style="fill:white;fill-rule:nonzero;"/>
        <path d="M110.549,380.377C111.195,380.377 111.721,380.903 111.721,381.552C111.721,382.199 111.195,382.725 110.549,382.725C109.9,382.725 109.371,382.199 109.371,381.552C109.371,380.903 109.9,380.377 110.549,380.377" style="fill:white;fill-rule:nonzero;"/>
        <path d="M110.549,371.888C111.195,371.888 111.721,372.414 111.721,373.061C111.721,373.71 111.195,374.236 110.549,374.236C109.9,374.236 109.371,373.71 109.371,373.061C109.371,372.414 109.9,371.888 110.549,371.888" style="fill:white;fill-rule:nonzero;"/>
        <path d="M110.549,363.399C111.195,363.399 111.721,363.925 111.721,364.572C111.721,365.22 111.195,365.746 110.549,365.746C109.9,365.746 109.371,365.22 109.371,364.572C109.371,363.925 109.9,363.399 110.549,363.399" style="fill:white;fill-rule:nonzero;"/>
        <path d="M110.549,354.912C111.195,354.912 111.721,355.436 111.721,356.085C111.721,356.733 111.195,357.259 110.549,357.259C109.9,357.259 109.371,356.733 109.371,356.085C109.371,355.436 109.9,354.912 110.549,354.912" style="fill:white;fill-rule:nonzero;"/>
        <path d="M110.549,346.423C111.195,346.423 111.721,346.947 111.721,347.596C111.721,348.242 111.195,348.77 110.549,348.77C109.9,348.77 109.371,348.242 109.371,347.596C109.371,346.947 109.9,346.423 110.549,346.423" style="fill:white;fill-rule:nonzero;"/>
        <path d="M110.549,337.933C111.195,337.933 111.721,338.459 111.721,339.106C111.721,339.755 111.195,340.28 110.549,340.28C109.9,340.28 109.371,339.755 109.371,339.106C109.371,338.459 109.9,337.933 110.549,337.933" style="fill:white;fill-rule:nonzero;"/>
        <path d="M110.549,329.446C111.195,329.446 111.721,329.972 111.721,330.618C111.721,331.267 111.195,331.791 110.549,331.791C109.9,331.791 109.371,331.267 109.371,330.618C109.371,329.972 109.9,329.446 110.549,329.446" style="fill:white;fill-rule:nonzero;"/>
        <path d="M110.549,320.957C111.195,320.957 111.721,321.483 111.721,322.13C111.721,322.778 111.195,323.304 110.549,323.304C109.9,323.304 109.371,322.778 109.371,322.13C109.371,321.483 109.9,320.957 110.549,320.957" style="fill:white;fill-rule:nonzero;"/>
        <path d="M110.549,312.468C111.195,312.468 111.721,312.992 111.721,313.639C111.721,314.288 111.195,314.815 110.549,314.815C109.9,314.815 109.371,314.288 109.371,313.639C109.371,312.992 109.9,312.468 110.549,312.468" style="fill:white;fill-rule:nonzero;"/>
        <path d="M110.549,303.98C111.195,303.98 111.721,304.504 111.721,305.151C111.721,305.8 111.195,306.325 110.549,306.325C109.9,306.325 109.371,305.8 109.371,305.151C109.371,304.504 109.9,303.98 110.549,303.98" style="fill:white;fill-rule:nonzero;"/>
        <path d="M110.549,295.49C111.195,295.49 111.721,296.016 111.721,296.664C111.721,297.311 111.195,297.837 110.549,297.837C109.9,297.837 109.371,297.311 109.371,296.664C109.371,296.016 109.9,295.49 110.549,295.49" style="fill:white;fill-rule:nonzero;"/>
        <path d="M110.549,287C111.195,287 111.721,287.528 111.721,288.174C111.721,288.823 111.195,289.349 110.549,289.349C109.9,289.349 109.371,288.823 109.371,288.174C109.371,287.528 109.9,287 110.549,287" style="fill:white;fill-rule:nonzero;"/>
        <path d="M110.549,278.513C111.195,278.513 111.721,279.039 111.721,279.686C111.721,280.334 111.195,280.86 110.549,280.86C109.9,280.86 109.371,280.334 109.371,279.686C109.371,279.039 109.9,278.513 110.549,278.513" style="fill:white;fill-rule:nonzero;"/>
        <path d="M110.549,270.023C111.195,270.023 111.721,270.547 111.721,271.198C111.721,271.845 111.195,272.371 110.549,272.371C109.9,272.371 109.371,271.845 109.371,271.198C109.371,270.547 109.9,270.023 110.549,270.023" style="fill:white;fill-rule:nonzero;"/>
        <path d="M110.549,261.535C111.195,261.535 111.721,262.061 111.721,262.708C111.721,263.356 111.195,263.882 110.549,263.882C109.9,263.882 109.371,263.356 109.371,262.708C109.371,262.061 109.9,261.535 110.549,261.535" style="fill:white;fill-rule:nonzero;"/>
        <path d="M110.549,253.046C111.195,253.046 111.721,253.572 111.721,254.219C111.721,254.867 111.195,255.393 110.549,255.393C109.9,255.393 109.371,254.867 109.371,254.219C109.371,253.572 109.9,253.046 110.549,253.046" style="fill:white;fill-rule:nonzero;"/>
        <path d="M115.655,376.134C116.301,376.134 116.827,376.656 116.827,377.305C116.827,377.954 116.301,378.479 115.655,378.479C115.009,378.479 114.48,377.954 114.48,377.305C114.48,376.656 115.009,376.134 115.655,376.134" style="fill:white;fill-rule:nonzero;"/>
        <path d="M115.655,367.645C116.301,367.645 116.827,368.169 116.827,368.816C116.827,369.465 116.301,369.991 115.655,369.991C115.009,369.991 114.48,369.465 114.48,368.816C114.48,368.169 115.009,367.645 115.655,367.645" style="fill:white;fill-rule:nonzero;"/>
        <path d="M115.655,359.156C116.301,359.156 116.827,359.68 116.827,360.329C116.827,360.977 116.301,361.501 115.655,361.501C115.009,361.501 114.48,360.977 114.48,360.329C114.48,359.68 115.009,359.156 115.655,359.156" style="fill:white;fill-rule:nonzero;"/>
        <path d="M115.655,350.666C116.301,350.666 116.827,351.19 116.827,351.841C116.827,352.487 116.301,353.013 115.655,353.013C115.009,353.013 114.48,352.487 114.48,351.841C114.48,351.19 115.009,350.666 115.655,350.666" style="fill:white;fill-rule:nonzero;"/>
        <path d="M115.655,342.179C116.301,342.179 116.827,342.705 116.827,343.351C116.827,344 116.301,344.524 115.655,344.524C115.009,344.524 114.48,344 114.48,343.351C114.48,342.705 115.009,342.179 115.655,342.179" style="fill:white;fill-rule:nonzero;"/>
        <path d="M115.655,333.69C116.301,333.69 116.827,334.216 116.827,334.863C116.827,335.511 116.301,336.037 115.655,336.037C115.009,336.037 114.48,335.511 114.48,334.863C114.48,334.216 115.009,333.69 115.655,333.69" style="fill:white;fill-rule:nonzero;"/>
        <path d="M115.655,325.201C116.301,325.201 116.827,325.725 116.827,326.373C116.827,327.022 116.301,327.548 115.655,327.548C115.009,327.548 114.48,327.022 114.48,326.373C114.48,325.725 115.009,325.201 115.655,325.201" style="fill:white;fill-rule:nonzero;"/>
        <path d="M115.655,316.712C116.301,316.712 116.827,317.236 116.827,317.884C116.827,318.533 116.301,319.057 115.655,319.057C115.009,319.057 114.48,318.533 114.48,317.884C114.48,317.236 115.009,316.712 115.655,316.712" style="fill:white;fill-rule:nonzero;"/>
        <path d="M115.655,308.224C116.301,308.224 116.827,308.75 116.827,309.397C116.827,310.045 116.301,310.571 115.655,310.571C115.009,310.571 114.48,310.045 114.48,309.397C114.48,308.75 115.009,308.224 115.655,308.224" style="fill:white;fill-rule:nonzero;"/>
        <path d="M115.655,299.735C116.301,299.735 116.827,300.259 116.827,300.907C116.827,301.556 116.301,302.082 115.655,302.082C115.009,302.082 114.48,301.556 114.48,300.907C114.48,300.259 115.009,299.735 115.655,299.735" style="fill:white;fill-rule:nonzero;"/>
        <path d="M115.655,291.248C116.301,291.248 116.827,291.771 116.827,292.421C116.827,293.067 116.301,293.593 115.655,293.593C115.009,293.593 114.48,293.067 114.48,292.421C114.48,291.771 115.009,291.248 115.655,291.248" style="fill:white;fill-rule:nonzero;"/>
        <path d="M115.655,282.757C116.301,282.757 116.827,283.281 116.827,283.929C116.827,284.578 116.301,285.102 115.655,285.102C115.009,285.102 114.48,284.578 114.48,283.929C114.48,283.281 115.009,282.757 115.655,282.757" style="fill:white;fill-rule:nonzero;"/>
        <path d="M115.655,274.269C116.301,274.269 116.827,274.795 116.827,275.441C116.827,276.09 116.301,276.616 115.655,276.616C115.009,276.616 114.48,276.09 114.48,275.441C114.48,274.795 115.009,274.269 115.655,274.269" style="fill:white;fill-rule:nonzero;"/>
        <path d="M115.655,265.78C116.301,265.78 116.827,266.304 116.827,266.952C116.827,267.601 116.301,268.127 115.655,268.127C115.009,268.127 114.48,267.601 114.48,266.952C114.48,266.304 115.009,265.78 115.655,265.78" style="fill:white;fill-rule:nonzero;"/>
        <path d="M115.655,257.291C116.301,257.291 116.827,257.815 116.827,258.466C116.827,259.112 116.301,259.638 115.655,259.638C115.009,259.638 114.48,259.112 114.48,258.466C114.48,257.815 115.009,257.291 115.655,257.291" style="fill:white;fill-rule:nonzero;"/>
        <path d="M115.655,248.802C116.301,248.802 116.827,249.326 116.827,249.973C116.827,250.623 116.301,251.149 115.655,251.149C115.009,251.149 114.48,250.623 114.48,249.973C114.48,249.326 115.009,248.802 115.655,248.802" style="fill:white;fill-rule:nonzero;"/>
        <path d="M120.348,371.888C120.994,371.888 121.52,372.414 121.52,373.061C121.52,373.71 120.994,374.236 120.348,374.236C119.699,374.236 119.177,373.71 119.177,373.061C119.177,372.414 119.699,371.888 120.348,371.888" style="fill:white;fill-rule:nonzero;"/>
        <path d="M120.348,363.399C120.994,363.399 121.52,363.925 121.52,364.572C121.52,365.22 120.994,365.746 120.348,365.746C119.699,365.746 119.177,365.22 119.177,364.572C119.177,363.925 119.699,363.399 120.348,363.399" style="fill:white;fill-rule:nonzero;"/>
        <path d="M120.348,354.912C120.994,354.912 121.52,355.436 121.52,356.085C121.52,356.733 120.994,357.259 120.348,357.259C119.699,357.259 119.177,356.733 119.177,356.085C119.177,355.436 119.699,354.912 120.348,354.912" style="fill:white;fill-rule:nonzero;"/>
        <path d="M120.348,346.423C120.994,346.423 121.52,346.947 121.52,347.596C121.52,348.242 120.994,348.77 120.348,348.77C119.699,348.77 119.177,348.242 119.177,347.596C119.177,346.947 119.699,346.423 120.348,346.423" style="fill:white;fill-rule:nonzero;"/>
        <path d="M120.348,337.933C120.994,337.933 121.52,338.459 121.52,339.106C121.52,339.755 120.994,340.28 120.348,340.28C119.699,340.28 119.177,339.755 119.177,339.106C119.177,338.459 119.699,337.933 120.348,337.933" style="fill:white;fill-rule:nonzero;"/>
        <path d="M120.348,329.446C120.994,329.446 121.52,329.972 121.52,330.618C121.52,331.267 120.994,331.791 120.348,331.791C119.699,331.791 119.177,331.267 119.177,330.618C119.177,329.972 119.699,329.446 120.348,329.446" style="fill:white;fill-rule:nonzero;"/>
        <path d="M120.348,320.957C120.994,320.957 121.52,321.483 121.52,322.13C121.52,322.778 120.994,323.304 120.348,323.304C119.699,323.304 119.177,322.778 119.177,322.13C119.177,321.483 119.699,320.957 120.348,320.957" style="fill:white;fill-rule:nonzero;"/>
        <path d="M120.348,312.468C120.994,312.468 121.52,312.992 121.52,313.639C121.52,314.288 120.994,314.815 120.348,314.815C119.699,314.815 119.177,314.288 119.177,313.639C119.177,312.992 119.699,312.468 120.348,312.468" style="fill:white;fill-rule:nonzero;"/>
        <path d="M120.348,303.98C120.994,303.98 121.52,304.504 121.52,305.151C121.52,305.8 120.994,306.325 120.348,306.325C119.699,306.325 119.177,305.8 119.177,305.151C119.177,304.504 119.699,303.98 120.348,303.98" style="fill:white;fill-rule:nonzero;"/>
        <path d="M120.348,295.49C120.994,295.49 121.52,296.016 121.52,296.664C121.52,297.311 120.994,297.837 120.348,297.837C119.699,297.837 119.177,297.311 119.177,296.664C119.177,296.016 119.699,295.49 120.348,295.49" style="fill:white;fill-rule:nonzero;"/>
        <path d="M120.348,287C120.994,287 121.52,287.528 121.52,288.174C121.52,288.823 120.994,289.349 120.348,289.349C119.699,289.349 119.177,288.823 119.177,288.174C119.177,287.528 119.699,287 120.348,287" style="fill:white;fill-rule:nonzero;"/>
        <path d="M120.348,278.513C120.994,278.513 121.52,279.039 121.52,279.686C121.52,280.334 120.994,280.86 120.348,280.86C119.699,280.86 119.177,280.334 119.177,279.686C119.177,279.039 119.699,278.513 120.348,278.513" style="fill:white;fill-rule:nonzero;"/>
        <path d="M120.348,270.023C120.994,270.023 121.52,270.547 121.52,271.198C121.52,271.845 120.994,272.371 120.348,272.371C119.699,272.371 119.177,271.845 119.177,271.198C119.177,270.547 119.699,270.023 120.348,270.023" style="fill:white;fill-rule:nonzero;"/>
        <path d="M120.348,261.535C120.994,261.535 121.52,262.061 121.52,262.708C121.52,263.356 120.994,263.882 120.348,263.882C119.699,263.882 119.177,263.356 119.177,262.708C119.177,262.061 119.699,261.535 120.348,261.535" style="fill:white;fill-rule:nonzero;"/>
        <path d="M120.348,253.046C120.994,253.046 121.52,253.572 121.52,254.219C121.52,254.867 120.994,255.393 120.348,255.393C119.699,255.393 119.177,254.867 119.177,254.219C119.177,253.572 119.699,253.046 120.348,253.046" style="fill:white;fill-rule:nonzero;"/>
        <path d="M125.454,367.645C126.1,367.645 126.625,368.169 126.625,368.816C126.625,369.465 126.1,369.991 125.454,369.991C124.808,369.991 124.279,369.465 124.279,368.816C124.279,368.169 124.808,367.645 125.454,367.645" style="fill:white;fill-rule:nonzero;"/>
        <path d="M125.454,359.156C126.1,359.156 126.625,359.68 126.625,360.329C126.625,360.977 126.1,361.501 125.454,361.501C124.808,361.501 124.279,360.977 124.279,360.329C124.279,359.68 124.808,359.156 125.454,359.156" style="fill:white;fill-rule:nonzero;"/>
        <path d="M125.454,350.666C126.1,350.666 126.625,351.19 126.625,351.841C126.625,352.487 126.1,353.013 125.454,353.013C124.808,353.013 124.279,352.487 124.279,351.841C124.279,351.19 124.808,350.666 125.454,350.666" style="fill:white;fill-rule:nonzero;"/>
        <path d="M125.454,342.179C126.1,342.179 126.625,342.705 126.625,343.351C126.625,344 126.1,344.524 125.454,344.524C124.808,344.524 124.279,344 124.279,343.351C124.279,342.705 124.808,342.179 125.454,342.179" style="fill:white;fill-rule:nonzero;"/>
        <path d="M125.454,333.69C126.1,333.69 126.625,334.216 126.625,334.863C126.625,335.511 126.1,336.037 125.454,336.037C124.808,336.037 124.279,335.511 124.279,334.863C124.279,334.216 124.808,333.69 125.454,333.69" style="fill:white;fill-rule:nonzero;"/>
        <path d="M125.454,325.201C126.1,325.201 126.625,325.725 126.625,326.373C126.625,327.022 126.1,327.548 125.454,327.548C124.808,327.548 124.279,327.022 124.279,326.373C124.279,325.725 124.808,325.201 125.454,325.201" style="fill:white;fill-rule:nonzero;"/>
        <path d="M125.454,316.712C126.1,316.712 126.625,317.236 126.625,317.884C126.625,318.533 126.1,319.057 125.454,319.057C124.808,319.057 124.279,318.533 124.279,317.884C124.279,317.236 124.808,316.712 125.454,316.712" style="fill:white;fill-rule:nonzero;"/>
        <path d="M125.454,308.224C126.1,308.224 126.625,308.75 126.625,309.397C126.625,310.045 126.1,310.571 125.454,310.571C124.808,310.571 124.279,310.045 124.279,309.397C124.279,308.75 124.808,308.224 125.454,308.224" style="fill:white;fill-rule:nonzero;"/>
        <path d="M125.454,299.735C126.1,299.735 126.625,300.259 126.625,300.907C126.625,301.556 126.1,302.082 125.454,302.082C124.808,302.082 124.279,301.556 124.279,300.907C124.279,300.259 124.808,299.735 125.454,299.735" style="fill:white;fill-rule:nonzero;"/>
        <path d="M125.454,291.248C126.1,291.248 126.625,291.771 126.625,292.421C126.625,293.067 126.1,293.593 125.454,293.593C124.808,293.593 124.279,293.067 124.279,292.421C124.279,291.771 124.808,291.248 125.454,291.248" style="fill:white;fill-rule:nonzero;"/>
        <path d="M125.454,282.757C126.1,282.757 126.625,283.281 126.625,283.929C126.625,284.578 126.1,285.102 125.454,285.102C124.808,285.102 124.279,284.578 124.279,283.929C124.279,283.281 124.808,282.757 125.454,282.757" style="fill:white;fill-rule:nonzero;"/>
        <path d="M125.454,274.269C126.1,274.269 126.625,274.795 126.625,275.441C126.625,276.09 126.1,276.616 125.454,276.616C124.808,276.616 124.279,276.09 124.279,275.441C124.279,274.795 124.808,274.269 125.454,274.269" style="fill:white;fill-rule:nonzero;"/>
        <path d="M125.454,265.78C126.1,265.78 126.625,266.304 126.625,266.952C126.625,267.601 126.1,268.127 125.454,268.127C124.808,268.127 124.279,267.601 124.279,266.952C124.279,266.304 124.808,265.78 125.454,265.78" style="fill:white;fill-rule:nonzero;"/>
        <path d="M125.454,257.291C126.1,257.291 126.625,257.815 126.625,258.466C126.625,259.112 126.1,259.638 125.454,259.638C124.808,259.638 124.279,259.112 124.279,258.466C124.279,257.815 124.808,257.291 125.454,257.291" style="fill:white;fill-rule:nonzero;"/>
        <path d="M125.454,248.802C126.1,248.802 126.625,249.326 126.625,249.973C126.625,250.623 126.1,251.149 125.454,251.149C124.808,251.149 124.279,250.623 124.279,249.973C124.279,249.326 124.808,248.802 125.454,248.802" style="fill:white;fill-rule:nonzero;"/>
        <path d="M130.147,363.399C130.799,363.399 131.323,363.925 131.323,364.572C131.323,365.22 130.799,365.746 130.147,365.746C129.498,365.746 128.975,365.22 128.975,364.572C128.975,363.925 129.498,363.399 130.147,363.399" style="fill:white;fill-rule:nonzero;"/>
        <path d="M130.147,354.912C130.799,354.912 131.323,355.436 131.323,356.085C131.323,356.733 130.799,357.259 130.147,357.259C129.498,357.259 128.975,356.733 128.975,356.085C128.975,355.436 129.498,354.912 130.147,354.912" style="fill:white;fill-rule:nonzero;"/>
        <path d="M130.147,346.423C130.799,346.423 131.323,346.947 131.323,347.596C131.323,348.242 130.799,348.77 130.147,348.77C129.498,348.77 128.975,348.242 128.975,347.596C128.975,346.947 129.498,346.423 130.147,346.423" style="fill:white;fill-rule:nonzero;"/>
        <path d="M130.147,337.933C130.799,337.933 131.323,338.459 131.323,339.106C131.323,339.755 130.799,340.28 130.147,340.28C129.498,340.28 128.975,339.755 128.975,339.106C128.975,338.459 129.498,337.933 130.147,337.933" style="fill:white;fill-rule:nonzero;"/>
        <path d="M130.147,329.446C130.799,329.446 131.323,329.972 131.323,330.618C131.323,331.267 130.799,331.791 130.147,331.791C129.498,331.791 128.975,331.267 128.975,330.618C128.975,329.972 129.498,329.446 130.147,329.446" style="fill:white;fill-rule:nonzero;"/>
        <path d="M130.147,320.957C130.799,320.957 131.323,321.483 131.323,322.13C131.323,322.778 130.799,323.304 130.147,323.304C129.498,323.304 128.975,322.778 128.975,322.13C128.975,321.483 129.498,320.957 130.147,320.957" style="fill:white;fill-rule:nonzero;"/>
        <path d="M130.147,312.468C130.799,312.468 131.323,312.992 131.323,313.639C131.323,314.288 130.799,314.815 130.147,314.815C129.498,314.815 128.975,314.288 128.975,313.639C128.975,312.992 129.498,312.468 130.147,312.468" style="fill:white;fill-rule:nonzero;"/>
        <path d="M130.147,303.98C130.799,303.98 131.323,304.504 131.323,305.151C131.323,305.8 130.799,306.325 130.147,306.325C129.498,306.325 128.975,305.8 128.975,305.151C128.975,304.504 129.498,303.98 130.147,303.98" style="fill:white;fill-rule:nonzero;"/>
        <path d="M130.147,295.49C130.799,295.49 131.323,296.016 131.323,296.664C131.323,297.311 130.799,297.837 130.147,297.837C129.498,297.837 128.975,297.311 128.975,296.664C128.975,296.016 129.498,295.49 130.147,295.49" style="fill:white;fill-rule:nonzero;"/>
        <path d="M130.147,287C130.799,287 131.323,287.528 131.323,288.174C131.323,288.823 130.799,289.349 130.147,289.349C129.498,289.349 128.975,288.823 128.975,288.174C128.975,287.528 129.498,287 130.147,287" style="fill:white;fill-rule:nonzero;"/>
        <path d="M130.147,278.513C130.799,278.513 131.323,279.039 131.323,279.686C131.323,280.334 130.799,280.86 130.147,280.86C129.498,280.86 128.975,280.334 128.975,279.686C128.975,279.039 129.498,278.513 130.147,278.513" style="fill:white;fill-rule:nonzero;"/>
        <path d="M130.147,270.023C130.799,270.023 131.323,270.547 131.323,271.198C131.323,271.845 130.799,272.371 130.147,272.371C129.498,272.371 128.975,271.845 128.975,271.198C128.975,270.547 129.498,270.023 130.147,270.023" style="fill:white;fill-rule:nonzero;"/>
        <path d="M130.147,261.535C130.799,261.535 131.323,262.061 131.323,262.708C131.323,263.356 130.799,263.882 130.147,263.882C129.498,263.882 128.975,263.356 128.975,262.708C128.975,262.061 129.498,261.535 130.147,261.535" style="fill:white;fill-rule:nonzero;"/>
        <path d="M130.147,253.046C130.799,253.046 131.323,253.572 131.323,254.219C131.323,254.867 130.799,255.393 130.147,255.393C129.498,255.393 128.975,254.867 128.975,254.219C128.975,253.572 129.498,253.046 130.147,253.046" style="fill:white;fill-rule:nonzero;"/>
        <path d="M135.256,359.156C135.902,359.156 136.428,359.68 136.428,360.329C136.428,360.977 135.902,361.501 135.256,361.501C134.607,361.501 134.084,360.977 134.084,360.329C134.084,359.68 134.607,359.156 135.256,359.156" style="fill:white;fill-rule:nonzero;"/>
        <path d="M135.256,350.666C135.902,350.666 136.428,351.19 136.428,351.841C136.428,352.487 135.902,353.013 135.256,353.013C134.607,353.013 134.084,352.487 134.084,351.841C134.084,351.19 134.607,350.666 135.256,350.666" style="fill:white;fill-rule:nonzero;"/>
        <path d="M135.256,342.179C135.902,342.179 136.428,342.705 136.428,343.351C136.428,344 135.902,344.524 135.256,344.524C134.607,344.524 134.084,344 134.084,343.351C134.084,342.705 134.607,342.179 135.256,342.179" style="fill:white;fill-rule:nonzero;"/>
        <path d="M135.256,333.69C135.902,333.69 136.428,334.216 136.428,334.863C136.428,335.511 135.902,336.037 135.256,336.037C134.607,336.037 134.084,335.511 134.084,334.863C134.084,334.216 134.607,333.69 135.256,333.69" style="fill:white;fill-rule:nonzero;"/>
        <path d="M135.256,325.201C135.902,325.201 136.428,325.725 136.428,326.373C136.428,327.022 135.902,327.548 135.256,327.548C134.607,327.548 134.084,327.022 134.084,326.373C134.084,325.725 134.607,325.201 135.256,325.201" style="fill:white;fill-rule:nonzero;"/>
        <path d="M135.256,316.712C135.902,316.712 136.428,317.236 136.428,317.884C136.428,318.533 135.902,319.057 135.256,319.057C134.607,319.057 134.084,318.533 134.084,317.884C134.084,317.236 134.607,316.712 135.256,316.712" style="fill:white;fill-rule:nonzero;"/>
        <path d="M135.256,308.224C135.902,308.224 136.428,308.75 136.428,309.397C136.428,310.045 135.902,310.571 135.256,310.571C134.607,310.571 134.084,310.045 134.084,309.397C134.084,308.75 134.607,308.224 135.256,308.224" style="fill:white;fill-rule:nonzero;"/>
        <path d="M135.256,299.735C135.902,299.735 136.428,300.259 136.428,300.907C136.428,301.556 135.902,302.082 135.256,302.082C134.607,302.082 134.084,301.556 134.084,300.907C134.084,300.259 134.607,299.735 135.256,299.735" style="fill:white;fill-rule:nonzero;"/>
        <path d="M135.256,291.248C135.902,291.248 136.428,291.771 136.428,292.421C136.428,293.067 135.902,293.593 135.256,293.593C134.607,293.593 134.084,293.067 134.084,292.421C134.084,291.771 134.607,291.248 135.256,291.248" style="fill:white;fill-rule:nonzero;"/>
        <path d="M135.256,282.757C135.902,282.757 136.428,283.281 136.428,283.929C136.428,284.578 135.902,285.102 135.256,285.102C134.607,285.102 134.084,284.578 134.084,283.929C134.084,283.281 134.607,282.757 135.256,282.757" style="fill:white;fill-rule:nonzero;"/>
        <path d="M135.256,274.269C135.902,274.269 136.428,274.795 136.428,275.441C136.428,276.09 135.902,276.616 135.256,276.616C134.607,276.616 134.084,276.09 134.084,275.441C134.084,274.795 134.607,274.269 135.256,274.269" style="fill:white;fill-rule:nonzero;"/>
        <path d="M135.256,265.78C135.902,265.78 136.428,266.304 136.428,266.952C136.428,267.601 135.902,268.127 135.256,268.127C134.607,268.127 134.084,267.601 134.084,266.952C134.084,266.304 134.607,265.78 135.256,265.78" style="fill:white;fill-rule:nonzero;"/>
        <path d="M135.256,257.291C135.902,257.291 136.428,257.815 136.428,258.466C136.428,259.112 135.902,259.638 135.256,259.638C134.607,259.638 134.084,259.112 134.084,258.466C134.084,257.815 134.607,257.291 135.256,257.291" style="fill:white;fill-rule:nonzero;"/>
        <path d="M135.256,248.802C135.902,248.802 136.428,249.326 136.428,249.973C136.428,250.623 135.902,251.149 135.256,251.149C134.607,251.149 134.084,250.623 134.084,249.973C134.084,249.326 134.607,248.802 135.256,248.802" style="fill:white;fill-rule:nonzero;"/>
        <path d="M139.949,354.912C140.598,354.912 141.121,355.436 141.121,356.085C141.121,356.733 140.598,357.259 139.949,357.259C139.3,357.259 138.774,356.733 138.774,356.085C138.774,355.436 139.3,354.912 139.949,354.912" style="fill:white;fill-rule:nonzero;"/>
        <path d="M139.949,346.423C140.598,346.423 141.121,346.947 141.121,347.596C141.121,348.242 140.598,348.77 139.949,348.77C139.3,348.77 138.774,348.242 138.774,347.596C138.774,346.947 139.3,346.423 139.949,346.423" style="fill:white;fill-rule:nonzero;"/>
        <path d="M139.949,337.933C140.598,337.933 141.121,338.459 141.121,339.106C141.121,339.755 140.598,340.28 139.949,340.28C139.3,340.28 138.774,339.755 138.774,339.106C138.774,338.459 139.3,337.933 139.949,337.933" style="fill:white;fill-rule:nonzero;"/>
        <path d="M139.949,329.446C140.598,329.446 141.121,329.972 141.121,330.618C141.121,331.267 140.598,331.791 139.949,331.791C139.3,331.791 138.774,331.267 138.774,330.618C138.774,329.972 139.3,329.446 139.949,329.446" style="fill:white;fill-rule:nonzero;"/>
        <path d="M139.949,320.957C140.598,320.957 141.121,321.483 141.121,322.13C141.121,322.778 140.598,323.304 139.949,323.304C139.3,323.304 138.774,322.778 138.774,322.13C138.774,321.483 139.3,320.957 139.949,320.957" style="fill:white;fill-rule:nonzero;"/>
        <path d="M139.949,312.468C140.598,312.468 141.121,312.992 141.121,313.639C141.121,314.288 140.598,314.815 139.949,314.815C139.3,314.815 138.774,314.288 138.774,313.639C138.774,312.992 139.3,312.468 139.949,312.468" style="fill:white;fill-rule:nonzero;"/>
        <path d="M139.949,303.98C140.598,303.98 141.121,304.504 141.121,305.151C141.121,305.8 140.598,306.325 139.949,306.325C139.3,306.325 138.774,305.8 138.774,305.151C138.774,304.504 139.3,303.98 139.949,303.98" style="fill:white;fill-rule:nonzero;"/>
        <path d="M139.949,295.49C140.598,295.49 141.121,296.016 141.121,296.664C141.121,297.311 140.598,297.837 139.949,297.837C139.3,297.837 138.774,297.311 138.774,296.664C138.774,296.016 139.3,295.49 139.949,295.49" style="fill:white;fill-rule:nonzero;"/>
        <path d="M139.949,287C140.598,287 141.121,287.528 141.121,288.174C141.121,288.823 140.598,289.349 139.949,289.349C139.3,289.349 138.774,288.823 138.774,288.174C138.774,287.528 139.3,287 139.949,287" style="fill:white;fill-rule:nonzero;"/>
        <path d="M139.949,278.513C140.598,278.513 141.121,279.039 141.121,279.686C141.121,280.334 140.598,280.86 139.949,280.86C139.3,280.86 138.774,280.334 138.774,279.686C138.774,279.039 139.3,278.513 139.949,278.513" style="fill:white;fill-rule:nonzero;"/>
        <path d="M139.949,270.023C140.598,270.023 141.121,270.547 141.121,271.198C141.121,271.845 140.598,272.371 139.949,272.371C139.3,272.371 138.774,271.845 138.774,271.198C138.774,270.547 139.3,270.023 139.949,270.023" style="fill:white;fill-rule:nonzero;"/>
        <path d="M139.949,261.535C140.598,261.535 141.121,262.061 141.121,262.708C141.121,263.356 140.598,263.882 139.949,263.882C139.3,263.882 138.774,263.356 138.774,262.708C138.774,262.061 139.3,261.535 139.949,261.535" style="fill:white;fill-rule:nonzero;"/>
        <path d="M139.949,253.046C140.598,253.046 141.121,253.572 141.121,254.219C141.121,254.867 140.598,255.393 139.949,255.393C139.3,255.393 138.774,254.867 138.774,254.219C138.774,253.572 139.3,253.046 139.949,253.046" style="fill:white;fill-rule:nonzero;"/>
        <path d="M145.055,350.666C145.701,350.666 146.227,351.19 146.227,351.841C146.227,352.487 145.701,353.013 145.055,353.013C144.409,353.013 143.883,352.487 143.883,351.841C143.883,351.19 144.409,350.666 145.055,350.666" style="fill:white;fill-rule:nonzero;"/>
        <path d="M145.055,342.179C145.701,342.179 146.227,342.705 146.227,343.351C146.227,344 145.701,344.524 145.055,344.524C144.409,344.524 143.883,344 143.883,343.351C143.883,342.705 144.409,342.179 145.055,342.179" style="fill:white;fill-rule:nonzero;"/>
        <path d="M145.055,333.69C145.701,333.69 146.227,334.216 146.227,334.863C146.227,335.511 145.701,336.037 145.055,336.037C144.409,336.037 143.883,335.511 143.883,334.863C143.883,334.216 144.409,333.69 145.055,333.69" style="fill:white;fill-rule:nonzero;"/>
        <path d="M145.055,325.201C145.701,325.201 146.227,325.725 146.227,326.373C146.227,327.022 145.701,327.548 145.055,327.548C144.409,327.548 143.883,327.022 143.883,326.373C143.883,325.725 144.409,325.201 145.055,325.201" style="fill:white;fill-rule:nonzero;"/>
        <path d="M145.055,316.712C145.701,316.712 146.227,317.236 146.227,317.884C146.227,318.533 145.701,319.057 145.055,319.057C144.409,319.057 143.883,318.533 143.883,317.884C143.883,317.236 144.409,316.712 145.055,316.712" style="fill:white;fill-rule:nonzero;"/>
        <path d="M145.055,308.224C145.701,308.224 146.227,308.75 146.227,309.397C146.227,310.045 145.701,310.571 145.055,310.571C144.409,310.571 143.883,310.045 143.883,309.397C143.883,308.75 144.409,308.224 145.055,308.224" style="fill:white;fill-rule:nonzero;"/>
        <path d="M145.055,299.735C145.701,299.735 146.227,300.259 146.227,300.907C146.227,301.556 145.701,302.082 145.055,302.082C144.409,302.082 143.883,301.556 143.883,300.907C143.883,300.259 144.409,299.735 145.055,299.735" style="fill:white;fill-rule:nonzero;"/>
        <path d="M145.055,291.248C145.701,291.248 146.227,291.771 146.227,292.421C146.227,293.067 145.701,293.593 145.055,293.593C144.409,293.593 143.883,293.067 143.883,292.421C143.883,291.771 144.409,291.248 145.055,291.248" style="fill:white;fill-rule:nonzero;"/>
        <path d="M145.055,282.757C145.701,282.757 146.227,283.281 146.227,283.929C146.227,284.578 145.701,285.102 145.055,285.102C144.409,285.102 143.883,284.578 143.883,283.929C143.883,283.281 144.409,282.757 145.055,282.757" style="fill:white;fill-rule:nonzero;"/>
        <path d="M145.055,274.269C145.701,274.269 146.227,274.795 146.227,275.441C146.227,276.09 145.701,276.616 145.055,276.616C144.409,276.616 143.883,276.09 143.883,275.441C143.883,274.795 144.409,274.269 145.055,274.269" style="fill:white;fill-rule:nonzero;"/>
        <path d="M145.055,265.78C145.701,265.78 146.227,266.304 146.227,266.952C146.227,267.601 145.701,268.127 145.055,268.127C144.409,268.127 143.883,267.601 143.883,266.952C143.883,266.304 144.409,265.78 145.055,265.78" style="fill:white;fill-rule:nonzero;"/>
        <path d="M145.055,257.291C145.701,257.291 146.227,257.815 146.227,258.466C146.227,259.112 145.701,259.638 145.055,259.638C144.409,259.638 143.883,259.112 143.883,258.466C143.883,257.815 144.409,257.291 145.055,257.291" style="fill:white;fill-rule:nonzero;"/>
        <path d="M145.055,248.802C145.701,248.802 146.227,249.326 146.227,249.973C146.227,250.623 145.701,251.149 145.055,251.149C144.409,251.149 143.883,250.623 143.883,249.973C143.883,249.326 144.409,248.802 145.055,248.802" style="fill:white;fill-rule:nonzero;"/>
        <path d="M149.748,346.423C150.397,346.423 150.92,346.947 150.92,347.596C150.92,348.242 150.397,348.77 149.748,348.77C149.099,348.77 148.576,348.242 148.576,347.596C148.576,346.947 149.099,346.423 149.748,346.423" style="fill:white;fill-rule:nonzero;"/>
        <path d="M149.748,337.933C150.397,337.933 150.92,338.459 150.92,339.106C150.92,339.755 150.397,340.28 149.748,340.28C149.099,340.28 148.576,339.755 148.576,339.106C148.576,338.459 149.099,337.933 149.748,337.933" style="fill:white;fill-rule:nonzero;"/>
        <path d="M149.748,329.446C150.397,329.446 150.92,329.972 150.92,330.618C150.92,331.267 150.397,331.791 149.748,331.791C149.099,331.791 148.576,331.267 148.576,330.618C148.576,329.972 149.099,329.446 149.748,329.446" style="fill:white;fill-rule:nonzero;"/>
        <path d="M149.748,320.957C150.397,320.957 150.92,321.483 150.92,322.13C150.92,322.778 150.397,323.304 149.748,323.304C149.099,323.304 148.576,322.778 148.576,322.13C148.576,321.483 149.099,320.957 149.748,320.957" style="fill:white;fill-rule:nonzero;"/>
        <path d="M149.748,312.468C150.397,312.468 150.92,312.992 150.92,313.639C150.92,314.288 150.397,314.815 149.748,314.815C149.099,314.815 148.576,314.288 148.576,313.639C148.576,312.992 149.099,312.468 149.748,312.468" style="fill:white;fill-rule:nonzero;"/>
        <path d="M149.748,303.98C150.397,303.98 150.92,304.504 150.92,305.151C150.92,305.8 150.397,306.325 149.748,306.325C149.099,306.325 148.576,305.8 148.576,305.151C148.576,304.504 149.099,303.98 149.748,303.98" style="fill:white;fill-rule:nonzero;"/>
        <path d="M149.748,295.49C150.397,295.49 150.92,296.016 150.92,296.664C150.92,297.311 150.397,297.837 149.748,297.837C149.099,297.837 148.576,297.311 148.576,296.664C148.576,296.016 149.099,295.49 149.748,295.49" style="fill:white;fill-rule:nonzero;"/>
        <path d="M149.748,287C150.397,287 150.92,287.528 150.92,288.174C150.92,288.823 150.397,289.349 149.748,289.349C149.099,289.349 148.576,288.823 148.576,288.174C148.576,287.528 149.099,287 149.748,287" style="fill:white;fill-rule:nonzero;"/>
        <path d="M149.748,278.513C150.397,278.513 150.92,279.039 150.92,279.686C150.92,280.334 150.397,280.86 149.748,280.86C149.099,280.86 148.576,280.334 148.576,279.686C148.576,279.039 149.099,278.513 149.748,278.513" style="fill:white;fill-rule:nonzero;"/>
        <path d="M149.748,270.023C150.397,270.023 150.92,270.547 150.92,271.198C150.92,271.845 150.397,272.371 149.748,272.371C149.099,272.371 148.576,271.845 148.576,271.198C148.576,270.547 149.099,270.023 149.748,270.023" style="fill:white;fill-rule:nonzero;"/>
        <path d="M149.748,261.535C150.397,261.535 150.92,262.061 150.92,262.708C150.92,263.356 150.397,263.882 149.748,263.882C149.099,263.882 148.576,263.356 148.576,262.708C148.576,262.061 149.099,261.535 149.748,261.535" style="fill:white;fill-rule:nonzero;"/>
        <path d="M149.748,253.046C150.397,253.046 150.92,253.572 150.92,254.219C150.92,254.867 150.397,255.393 149.748,255.393C149.099,255.393 148.576,254.867 148.576,254.219C148.576,253.572 149.099,253.046 149.748,253.046" style="fill:white;fill-rule:nonzero;"/>
        <path d="M154.854,342.179C155.506,342.179 156.029,342.705 156.029,343.351C156.029,344 155.506,344.524 154.854,344.524C154.208,344.524 153.682,344 153.682,343.351C153.682,342.705 154.208,342.179 154.854,342.179" style="fill:white;fill-rule:nonzero;"/>
        <path d="M154.854,333.69C155.506,333.69 156.029,334.216 156.029,334.863C156.029,335.511 155.506,336.037 154.854,336.037C154.208,336.037 153.682,335.511 153.682,334.863C153.682,334.216 154.208,333.69 154.854,333.69" style="fill:white;fill-rule:nonzero;"/>
        <path d="M154.854,325.201C155.506,325.201 156.029,325.725 156.029,326.373C156.029,327.022 155.506,327.548 154.854,327.548C154.208,327.548 153.682,327.022 153.682,326.373C153.682,325.725 154.208,325.201 154.854,325.201" style="fill:white;fill-rule:nonzero;"/>
        <path d="M154.854,316.712C155.506,316.712 156.029,317.236 156.029,317.884C156.029,318.533 155.506,319.057 154.854,319.057C154.208,319.057 153.682,318.533 153.682,317.884C153.682,317.236 154.208,316.712 154.854,316.712" style="fill:white;fill-rule:nonzero;"/>
        <path d="M154.854,308.224C155.506,308.224 156.029,308.75 156.029,309.397C156.029,310.045 155.506,310.571 154.854,310.571C154.208,310.571 153.682,310.045 153.682,309.397C153.682,308.75 154.208,308.224 154.854,308.224" style="fill:white;fill-rule:nonzero;"/>
        <path d="M154.854,299.735C155.506,299.735 156.029,300.259 156.029,300.907C156.029,301.556 155.506,302.082 154.854,302.082C154.208,302.082 153.682,301.556 153.682,300.907C153.682,300.259 154.208,299.735 154.854,299.735" style="fill:white;fill-rule:nonzero;"/>
        <path d="M154.854,291.248C155.506,291.248 156.029,291.771 156.029,292.421C156.029,293.067 155.506,293.593 154.854,293.593C154.208,293.593 153.682,293.067 153.682,292.421C153.682,291.771 154.208,291.248 154.854,291.248" style="fill:white;fill-rule:nonzero;"/>
        <path d="M154.854,282.757C155.506,282.757 156.029,283.281 156.029,283.929C156.029,284.578 155.506,285.102 154.854,285.102C154.208,285.102 153.682,284.578 153.682,283.929C153.682,283.281 154.208,282.757 154.854,282.757" style="fill:white;fill-rule:nonzero;"/>
        <path d="M154.854,274.269C155.506,274.269 156.029,274.795 156.029,275.441C156.029,276.09 155.506,276.616 154.854,276.616C154.208,276.616 153.682,276.09 153.682,275.441C153.682,274.795 154.208,274.269 154.854,274.269" style="fill:white;fill-rule:nonzero;"/>
        <path d="M154.854,265.78C155.506,265.78 156.029,266.304 156.029,266.952C156.029,267.601 155.506,268.127 154.854,268.127C154.208,268.127 153.682,267.601 153.682,266.952C153.682,266.304 154.208,265.78 154.854,265.78" style="fill:white;fill-rule:nonzero;"/>
        <path d="M154.854,257.291C155.506,257.291 156.029,257.815 156.029,258.466C156.029,259.112 155.506,259.638 154.854,259.638C154.208,259.638 153.682,259.112 153.682,258.466C153.682,257.815 154.208,257.291 154.854,257.291" style="fill:white;fill-rule:nonzero;"/>
        <path d="M154.854,248.802C155.506,248.802 156.029,249.326 156.029,249.973C156.029,250.623 155.506,251.149 154.854,251.149C154.208,251.149 153.682,250.623 153.682,249.973C153.682,249.326 154.208,248.802 154.854,248.802" style="fill:white;fill-rule:nonzero;"/>
        <path d="M159.547,337.933C160.199,337.933 160.719,338.459 160.719,339.106C160.719,339.755 160.199,340.28 159.547,340.28C158.898,340.28 158.375,339.755 158.375,339.106C158.375,338.459 158.898,337.933 159.547,337.933" style="fill:white;fill-rule:nonzero;"/>
        <path d="M159.547,329.446C160.199,329.446 160.719,329.972 160.719,330.618C160.719,331.267 160.199,331.791 159.547,331.791C158.898,331.791 158.375,331.267 158.375,330.618C158.375,329.972 158.898,329.446 159.547,329.446" style="fill:white;fill-rule:nonzero;"/>
        <path d="M159.547,320.957C160.199,320.957 160.719,321.483 160.719,322.13C160.719,322.778 160.199,323.304 159.547,323.304C158.898,323.304 158.375,322.778 158.375,322.13C158.375,321.483 158.898,320.957 159.547,320.957" style="fill:white;fill-rule:nonzero;"/>
        <path d="M159.547,312.468C160.199,312.468 160.719,312.992 160.719,313.639C160.719,314.288 160.199,314.815 159.547,314.815C158.898,314.815 158.375,314.288 158.375,313.639C158.375,312.992 158.898,312.468 159.547,312.468" style="fill:white;fill-rule:nonzero;"/>
        <path d="M159.547,303.98C160.199,303.98 160.719,304.504 160.719,305.151C160.719,305.8 160.199,306.325 159.547,306.325C158.898,306.325 158.375,305.8 158.375,305.151C158.375,304.504 158.898,303.98 159.547,303.98" style="fill:white;fill-rule:nonzero;"/>
        <path d="M159.547,295.49C160.199,295.49 160.719,296.016 160.719,296.664C160.719,297.311 160.199,297.837 159.547,297.837C158.898,297.837 158.375,297.311 158.375,296.664C158.375,296.016 158.898,295.49 159.547,295.49" style="fill:white;fill-rule:nonzero;"/>
        <path d="M159.547,287C160.199,287 160.719,287.528 160.719,288.174C160.719,288.823 160.199,289.349 159.547,289.349C158.898,289.349 158.375,288.823 158.375,288.174C158.375,287.528 158.898,287 159.547,287" style="fill:white;fill-rule:nonzero;"/>
        <path d="M159.547,278.513C160.199,278.513 160.719,279.039 160.719,279.686C160.719,280.334 160.199,280.86 159.547,280.86C158.898,280.86 158.375,280.334 158.375,279.686C158.375,279.039 158.898,278.513 159.547,278.513" style="fill:white;fill-rule:nonzero;"/>
        <path d="M159.547,270.023C160.199,270.023 160.719,270.547 160.719,271.198C160.719,271.845 160.199,272.371 159.547,272.371C158.898,272.371 158.375,271.845 158.375,271.198C158.375,270.547 158.898,270.023 159.547,270.023" style="fill:white;fill-rule:nonzero;"/>
        <path d="M159.547,261.535C160.199,261.535 160.719,262.061 160.719,262.708C160.719,263.356 160.199,263.882 159.547,263.882C158.898,263.882 158.375,263.356 158.375,262.708C158.375,262.061 158.898,261.535 159.547,261.535" style="fill:white;fill-rule:nonzero;"/>
        <path d="M159.547,253.046C160.199,253.046 160.719,253.572 160.719,254.219C160.719,254.867 160.199,255.393 159.547,255.393C158.898,255.393 158.375,254.867 158.375,254.219C158.375,253.572 158.898,253.046 159.547,253.046" style="fill:white;fill-rule:nonzero;"/>
        <path d="M164.653,333.69C165.305,333.69 165.828,334.216 165.828,334.863C165.828,335.511 165.305,336.037 164.653,336.037C164.007,336.037 163.484,335.511 163.484,334.863C163.484,334.216 164.007,333.69 164.653,333.69" style="fill:white;fill-rule:nonzero;"/>
        <path d="M164.653,325.201C165.305,325.201 165.828,325.725 165.828,326.373C165.828,327.022 165.305,327.548 164.653,327.548C164.007,327.548 163.484,327.022 163.484,326.373C163.484,325.725 164.007,325.201 164.653,325.201" style="fill:white;fill-rule:nonzero;"/>
        <path d="M164.653,316.712C165.305,316.712 165.828,317.236 165.828,317.884C165.828,318.533 165.305,319.057 164.653,319.057C164.007,319.057 163.484,318.533 163.484,317.884C163.484,317.236 164.007,316.712 164.653,316.712" style="fill:white;fill-rule:nonzero;"/>
        <path d="M164.653,308.224C165.305,308.224 165.828,308.75 165.828,309.397C165.828,310.045 165.305,310.571 164.653,310.571C164.007,310.571 163.484,310.045 163.484,309.397C163.484,308.75 164.007,308.224 164.653,308.224" style="fill:white;fill-rule:nonzero;"/>
        <path d="M164.653,299.735C165.305,299.735 165.828,300.259 165.828,300.907C165.828,301.556 165.305,302.082 164.653,302.082C164.007,302.082 163.484,301.556 163.484,300.907C163.484,300.259 164.007,299.735 164.653,299.735" style="fill:white;fill-rule:nonzero;"/>
        <path d="M164.653,291.248C165.305,291.248 165.828,291.771 165.828,292.421C165.828,293.067 165.305,293.593 164.653,293.593C164.007,293.593 163.484,293.067 163.484,292.421C163.484,291.771 164.007,291.248 164.653,291.248" style="fill:white;fill-rule:nonzero;"/>
        <path d="M164.653,282.757C165.305,282.757 165.828,283.281 165.828,283.929C165.828,284.578 165.305,285.102 164.653,285.102C164.007,285.102 163.484,284.578 163.484,283.929C163.484,283.281 164.007,282.757 164.653,282.757" style="fill:white;fill-rule:nonzero;"/>
        <path d="M164.653,274.269C165.305,274.269 165.828,274.795 165.828,275.441C165.828,276.09 165.305,276.616 164.653,276.616C164.007,276.616 163.484,276.09 163.484,275.441C163.484,274.795 164.007,274.269 164.653,274.269" style="fill:white;fill-rule:nonzero;"/>
        <path d="M164.653,265.78C165.305,265.78 165.828,266.304 165.828,266.952C165.828,267.601 165.305,268.127 164.653,268.127C164.007,268.127 163.484,267.601 163.484,266.952C163.484,266.304 164.007,265.78 164.653,265.78" style="fill:white;fill-rule:nonzero;"/>
        <path d="M164.653,257.291C165.305,257.291 165.828,257.815 165.828,258.466C165.828,259.112 165.305,259.638 164.653,259.638C164.007,259.638 163.484,259.112 163.484,258.466C163.484,257.815 164.007,257.291 164.653,257.291" style="fill:white;fill-rule:nonzero;"/>
        <path d="M164.653,248.802C165.305,248.802 165.828,249.326 165.828,249.973C165.828,250.623 165.305,251.149 164.653,251.149C164.007,251.149 163.484,250.623 163.484,249.973C163.484,249.326 164.007,248.802 164.653,248.802" style="fill:white;fill-rule:nonzero;"/>
    </g>
</svg>
