<?xml version="1.0" encoding="UTF-8" standalone="no"?>
<!DOCTYPE svg PUBLIC "-//W3C//DTD SVG 1.1//EN" "http://www.w3.org/Graphics/SVG/1.1/DTD/svg11.dtd">
<svg width="100%" height="100%" viewBox="0 0 392 1292" version="1.1" xmlns="http://www.w3.org/2000/svg" xmlns:xlink="http://www.w3.org/1999/xlink" xml:space="preserve" style="fill-rule:evenodd;clip-rule:evenodd;stroke-linejoin:round;stroke-miterlimit:1.41421;">
    <g transform="matrix(1,0,0,1,-2821.28,-2989.18)">
        <g transform="matrix(2.66667,0,0,2.66667,-2.84217e-14,1.42109e-14)">
            <path d="M1075.43,1584.95L1061.8,1566.41L1075.43,1547.88L1061.81,1529.36L1075.43,1510.84L1061.8,1492.3L1075.43,1473.77L1061.81,1455.25L1075.43,1436.73L1061.8,1418.19L1075.43,1399.66L1060.46,1379.3L1057.98,1381.12L1071.62,1399.66L1057.98,1418.19L1071.62,1436.73L1058.02,1455.2L1057.98,1455.24L1057.99,1455.25L1057.98,1455.26L1058.02,1455.29L1071.62,1473.77L1057.98,1492.3L1071.62,1510.84L1058.02,1529.32L1057.98,1529.35L1057.99,1529.36L1057.98,1529.37L1058.02,1529.4L1071.62,1547.88L1057.98,1566.41L1071.62,1584.95L1057.98,1603.49L1060.46,1605.3L1075.43,1584.95Z" style="fill:rgb(19,175,181);fill-rule:nonzero;"/>
        </g>
        <g transform="matrix(2.66667,0,0,2.66667,-2.84217e-14,1.42109e-14)">
            <path d="M1089.88,1547.97L1076.25,1529.44L1089.88,1510.9L1076.26,1492.38L1089.88,1473.86L1076.25,1455.33L1089.88,1436.79L1076.26,1418.27L1089.88,1399.75L1076.25,1381.22L1089.88,1362.68L1074.91,1342.33L1072.44,1344.15L1086.07,1362.68L1072.44,1381.22L1086.07,1399.75L1072.48,1418.23L1072.44,1418.26L1072.45,1418.27L1072.44,1418.28L1072.48,1418.31L1086.07,1436.79L1072.44,1455.33L1072.44,1455.33L1086.07,1473.86L1072.48,1492.34L1072.44,1492.37L1072.45,1492.38L1072.44,1492.4L1072.48,1492.42L1086.07,1510.9L1072.44,1529.44L1086.07,1547.97L1072.44,1566.51L1074.91,1568.33L1089.88,1547.97Z" style="fill:rgb(19,175,181);fill-rule:nonzero;"/>
        </g>
        <g transform="matrix(2.66667,0,0,2.66667,-2.84217e-14,1.42109e-14)">
            <path d="M1104.34,1511L1090.71,1492.46L1104.34,1473.93L1090.72,1455.41L1104.34,1436.88L1090.71,1418.35L1104.34,1399.81L1090.72,1381.29L1104.34,1362.77L1090.71,1344.24L1104.34,1325.7L1089.37,1305.35L1086.89,1307.17L1100.52,1325.7L1086.89,1344.24L1100.52,1362.77L1086.93,1381.25L1086.89,1381.28L1086.9,1381.29L1086.89,1381.31L1086.93,1381.34L1100.52,1399.81L1086.89,1418.35L1100.52,1436.88L1086.93,1455.36L1086.89,1455.39L1086.9,1455.41L1086.89,1455.42L1086.93,1455.45L1100.52,1473.93L1086.89,1492.46L1100.52,1511L1086.89,1529.53L1089.37,1531.35L1104.34,1511Z" style="fill:rgb(19,175,181);fill-rule:nonzero;"/>
        </g>
        <g transform="matrix(2.66667,0,0,2.66667,-2.84217e-14,1.42109e-14)">
            <path d="M1118.79,1473.43L1105.16,1454.9L1118.79,1436.36L1105.17,1417.84L1118.79,1399.32L1105.16,1380.79L1118.79,1362.25L1105.17,1343.73L1118.79,1325.21L1105.16,1306.67L1118.79,1288.14L1103.82,1267.78L1101.34,1269.61L1114.97,1288.14L1101.34,1306.67L1114.97,1325.21L1101.38,1343.69L1101.34,1343.72L1101.35,1343.73L1101.34,1343.74L1101.38,1343.77L1114.97,1362.25L1101.34,1380.79L1114.97,1399.32L1101.38,1417.8L1101.34,1417.83L1101.35,1417.84L1101.34,1417.85L1101.38,1417.88L1114.97,1436.36L1101.34,1454.9L1114.97,1473.43L1101.34,1491.96L1103.82,1493.79L1118.79,1473.43Z" style="fill:rgb(19,175,181);fill-rule:nonzero;"/>
        </g>
        <g transform="matrix(2.66667,0,0,2.66667,-2.84217e-14,1.42109e-14)">
            <path d="M1133.24,1436.75L1119.61,1418.21L1133.24,1399.68L1119.62,1381.16L1133.24,1362.63L1119.61,1344.1L1133.24,1325.57L1119.62,1307.05L1133.24,1288.52L1119.61,1269.99L1133.24,1251.45L1118.27,1231.1L1115.8,1232.92L1129.43,1251.45L1115.8,1269.99L1129.43,1288.52L1115.84,1307L1115.8,1307.03L1115.8,1307.05L1115.8,1307.06L1115.84,1307.09L1129.43,1325.57L1115.8,1344.1L1115.8,1344.1L1129.43,1362.63L1115.84,1381.11L1115.8,1381.14L1115.8,1381.16L1115.8,1381.17L1115.84,1381.2L1129.43,1399.68L1115.8,1418.21L1129.43,1436.75L1115.8,1455.28L1118.27,1457.1L1133.24,1436.75Z" style="fill:rgb(19,175,181);fill-rule:nonzero;"/>
        </g>
        <g transform="matrix(2.66667,0,0,2.66667,-2.84217e-14,1.42109e-14)">
            <path d="M1146.95,1474.79L1133.32,1456.26L1146.95,1437.73L1133.33,1419.2L1146.95,1400.68L1133.32,1382.15L1146.95,1363.62L1133.33,1345.09L1146.95,1326.57L1133.32,1308.04L1146.95,1289.5L1131.98,1269.15L1129.5,1270.97L1143.13,1289.5L1129.5,1308.04L1143.13,1326.57L1129.54,1345.05L1129.5,1345.08L1129.51,1345.09L1129.5,1345.11L1129.54,1345.13L1143.13,1363.62L1129.5,1382.15L1143.13,1400.68L1129.54,1419.16L1129.5,1419.19L1129.51,1419.2L1129.5,1419.22L1129.54,1419.25L1143.13,1437.73L1129.5,1456.26L1143.13,1474.79L1129.5,1493.33L1131.98,1495.15L1146.95,1474.79Z" style="fill:rgb(19,175,181);fill-rule:nonzero;"/>
        </g>
        <g transform="matrix(2.66667,0,0,2.66667,-2.84217e-14,1.42109e-14)">
            <path d="M1161.4,1437.82L1147.77,1419.28L1161.4,1400.75L1147.78,1382.23L1161.4,1363.7L1147.77,1345.17L1161.4,1326.63L1147.78,1308.12L1161.4,1289.59L1147.77,1271.06L1161.4,1252.53L1146.43,1232.17L1143.96,1233.99L1157.59,1252.53L1143.96,1271.06L1157.59,1289.59L1144,1308.07L1143.96,1308.1L1143.96,1308.12L1143.96,1308.13L1144,1308.16L1157.59,1326.63L1143.96,1345.17L1143.96,1345.17L1157.59,1363.7L1144,1382.18L1143.96,1382.21L1143.96,1382.23L1143.96,1382.24L1144,1382.27L1157.59,1400.75L1143.96,1419.28L1157.59,1437.82L1143.96,1456.35L1146.43,1458.17L1161.4,1437.82Z" style="fill:rgb(19,175,181);fill-rule:nonzero;"/>
        </g>
        <g transform="matrix(2.66667,0,0,2.66667,-2.84217e-14,1.42109e-14)">
            <path d="M1175.86,1400.84L1162.23,1382.31L1175.86,1363.77L1162.24,1345.25L1175.86,1326.73L1162.23,1308.19L1175.86,1289.66L1162.24,1271.14L1175.86,1252.62L1162.23,1234.08L1175.86,1215.55L1160.88,1195.19L1158.41,1197.02L1172.04,1215.55L1158.41,1234.08L1172.04,1252.62L1158.45,1271.1L1158.41,1271.13L1158.42,1271.14L1158.41,1271.15L1158.45,1271.18L1172.04,1289.66L1158.41,1308.19L1172.04,1326.73L1158.45,1345.2L1158.41,1345.24L1158.42,1345.25L1158.41,1345.26L1158.45,1345.29L1172.04,1363.77L1158.41,1382.31L1172.04,1400.84L1158.41,1419.37L1160.88,1421.19L1175.86,1400.84Z" style="fill:rgb(19,175,181);fill-rule:nonzero;"/>
        </g>
        <g transform="matrix(2.66667,0,0,2.66667,-2.84217e-14,1.42109e-14)">
            <path d="M1190.31,1363.28L1176.68,1344.74L1190.31,1326.21L1176.69,1307.68L1190.31,1289.16L1176.68,1270.63L1190.31,1252.1L1176.69,1233.57L1190.31,1215.05L1176.68,1196.52L1190.31,1177.98L1175.34,1157.63L1172.86,1159.45L1186.5,1177.98L1172.86,1196.52L1186.5,1215.05L1172.9,1233.53L1172.86,1233.56L1172.87,1233.57L1172.86,1233.59L1172.9,1233.62L1186.5,1252.1L1172.86,1270.63L1186.5,1289.16L1172.9,1307.64L1172.86,1307.67L1172.87,1307.68L1172.86,1307.7L1172.9,1307.73L1186.5,1326.21L1172.86,1344.74L1186.5,1363.28L1172.86,1381.81L1175.34,1383.63L1190.31,1363.28Z" style="fill:rgb(19,175,181);fill-rule:nonzero;"/>
        </g>
        <g transform="matrix(2.66667,0,0,2.66667,-2.84217e-14,1.42109e-14)">
            <path d="M1204.76,1326.59L1191.13,1308.06L1204.76,1289.52L1191.14,1271L1204.76,1252.48L1191.13,1233.95L1204.76,1215.41L1191.14,1196.89L1204.76,1178.37L1191.13,1159.83L1204.76,1141.3L1189.79,1120.94L1187.32,1122.77L1200.95,1141.3L1187.32,1159.83L1200.95,1178.37L1187.36,1196.85L1187.32,1196.88L1187.33,1196.89L1187.32,1196.9L1187.36,1196.93L1200.95,1215.41L1187.32,1233.94L1187.32,1233.95L1200.95,1252.48L1187.36,1270.96L1187.32,1270.99L1187.33,1271L1187.32,1271.02L1187.36,1271.04L1200.95,1289.52L1187.32,1308.06L1200.95,1326.59L1187.32,1345.12L1189.79,1346.94L1204.76,1326.59Z" style="fill:rgb(19,175,181);fill-rule:nonzero;"/>
        </g>
    </g>
</svg>
