<?xml version="1.0" encoding="UTF-8" standalone="no"?>
<!DOCTYPE svg PUBLIC "-//W3C//DTD SVG 1.1//EN" "http://www.w3.org/Graphics/SVG/1.1/DTD/svg11.dtd">
<svg width="100%" height="100%" viewBox="0 0 147 485" version="1.1" xmlns="http://www.w3.org/2000/svg" xmlns:xlink="http://www.w3.org/1999/xlink" xml:space="preserve" style="fill-rule:evenodd;clip-rule:evenodd;stroke-linejoin:round;stroke-miterlimit:1.41421;">
    <g transform="matrix(1,0,0,1,-1065.98,-54.9443)">
        <path d="M1083.43,518.948L1069.8,500.414L1083.43,481.88L1069.81,463.359L1083.43,444.838L1069.8,426.303L1083.43,407.77L1069.81,389.249L1083.43,370.726L1069.8,352.192L1083.43,333.658L1068.46,313.302L1065.98,315.124L1079.62,333.658L1065.98,352.192L1079.62,370.726L1066.02,389.203L1065.98,389.236L1065.99,389.249L1065.98,389.262L1066.02,389.288L1079.62,407.77L1065.98,426.303L1079.62,444.838L1066.02,463.316L1065.98,463.345L1065.99,463.359L1065.98,463.372L1066.02,463.401L1079.62,481.88L1065.98,500.414L1079.62,518.948L1065.98,537.485L1068.46,539.303L1083.43,518.948Z" style="fill:rgb(19,175,181);fill-rule:nonzero;"/>
        <path d="M1097.88,481.972L1084.25,463.438L1097.88,444.904L1084.26,426.383L1097.88,407.859L1084.25,389.327L1097.88,370.791L1084.26,352.271L1097.88,333.75L1084.25,315.216L1097.88,296.682L1082.91,276.326L1080.44,278.146L1094.07,296.682L1080.44,315.216L1094.07,333.75L1080.48,352.228L1080.44,352.258L1080.45,352.271L1080.44,352.284L1080.48,352.313L1094.07,370.791L1080.44,389.325L1080.44,389.327L1094.07,407.859L1080.48,426.337L1080.44,426.369L1080.45,426.383L1080.44,426.396L1080.48,426.425L1094.07,444.904L1080.44,463.438L1094.07,481.972L1080.44,500.505L1082.91,502.327L1097.88,481.972Z" style="fill:rgb(19,175,181);fill-rule:nonzero;"/>
        <path d="M1112.34,444.995L1098.71,426.461L1112.34,407.927L1098.72,389.406L1112.34,370.883L1098.71,352.349L1112.34,333.815L1098.72,315.294L1112.34,296.773L1098.71,278.239L1112.34,259.705L1097.37,239.348L1094.89,241.169L1108.52,259.705L1094.89,278.239L1108.52,296.773L1094.93,315.251L1094.89,315.281L1094.9,315.294L1094.89,315.307L1094.93,315.336L1108.52,333.815L1094.89,352.349L1108.52,370.883L1094.93,389.36L1094.89,389.392L1094.9,389.406L1094.89,389.416L1094.93,389.448L1108.52,407.927L1094.89,426.461L1108.52,444.995L1094.89,463.528L1097.37,465.35L1112.34,444.995Z" style="fill:rgb(19,175,181);fill-rule:nonzero;"/>
        <path d="M1126.79,407.431L1113.16,388.897L1126.79,370.362L1113.17,351.84L1126.79,333.319L1113.16,314.785L1126.79,296.251L1113.17,277.73L1126.79,259.209L1113.16,240.675L1126.79,222.139L1111.82,201.784L1109.34,203.606L1122.97,222.139L1109.34,240.675L1122.97,259.209L1109.38,277.688L1109.34,277.717L1109.35,277.73L1109.34,277.743L1109.38,277.772L1122.97,296.251L1109.34,314.785L1122.97,333.319L1109.38,351.797L1109.34,351.827L1109.35,351.84L1109.34,351.853L1109.38,351.884L1122.97,370.362L1109.34,388.897L1122.97,407.431L1109.34,425.965L1111.82,427.786L1126.79,407.431Z" style="fill:rgb(19,175,181);fill-rule:nonzero;"/>
        <path d="M1141.24,370.746L1127.61,352.212L1141.24,333.678L1127.62,315.157L1141.24,296.635L1127.61,278.102L1141.24,259.567L1127.62,241.046L1141.24,222.523L1127.61,203.989L1141.24,185.455L1126.27,165.1L1123.8,166.922L1137.43,185.455L1123.8,203.989L1137.43,222.523L1123.84,241.002L1123.8,241.033L1123.8,241.046L1123.8,241.057L1123.84,241.087L1137.43,259.567L1123.8,278.1L1123.8,278.102L1137.43,296.635L1123.84,315.113L1123.8,315.144L1123.8,315.157L1123.8,315.17L1123.84,315.2L1137.43,333.678L1123.8,352.212L1137.43,370.746L1123.8,389.279L1126.27,391.101L1141.24,370.746Z" style="fill:rgb(19,175,181);fill-rule:nonzero;"/>
        <path d="M1154.95,408.793L1141.32,390.259L1154.95,371.725L1141.33,353.204L1154.95,334.683L1141.32,316.149L1154.95,297.615L1141.33,279.094L1154.95,260.571L1141.32,242.037L1154.95,223.503L1139.98,203.147L1137.5,204.969L1151.13,223.503L1137.5,242.037L1151.13,260.571L1137.54,279.048L1137.5,279.081L1137.51,279.094L1137.5,279.107L1137.54,279.133L1151.13,297.615L1137.5,316.149L1151.13,334.683L1137.54,353.161L1137.5,353.191L1137.51,353.204L1137.5,353.217L1137.54,353.246L1151.13,371.725L1137.5,390.259L1151.13,408.793L1137.5,427.33L1139.98,429.148L1154.95,408.793Z" style="fill:rgb(19,175,181);fill-rule:nonzero;"/>
        <path d="M1169.4,371.816L1155.77,353.282L1169.4,334.748L1155.78,316.227L1169.4,297.703L1155.77,279.172L1169.4,260.636L1155.78,242.115L1169.4,223.594L1155.77,205.06L1169.4,186.526L1154.43,166.17L1151.96,167.991L1165.59,186.526L1151.96,205.06L1165.59,223.594L1152,242.073L1151.96,242.102L1151.96,242.115L1151.96,242.129L1152,242.158L1165.59,260.636L1151.96,279.17L1151.96,279.172L1165.59,297.703L1152,316.182L1151.96,316.214L1151.96,316.227L1151.96,316.24L1152,316.27L1165.59,334.748L1151.96,353.282L1165.59,371.816L1151.96,390.35L1154.43,392.172L1169.4,371.816Z" style="fill:rgb(19,175,181);fill-rule:nonzero;"/>
        <path d="M1183.86,334.839L1170.23,316.305L1183.86,297.771L1170.24,279.251L1183.86,260.727L1170.23,242.193L1183.86,223.659L1170.24,205.138L1183.86,186.617L1170.23,168.084L1183.86,149.549L1168.88,129.192L1166.41,131.014L1180.04,149.549L1166.41,168.084L1180.04,186.617L1166.45,205.096L1166.41,205.125L1166.42,205.138L1166.41,205.152L1166.45,205.181L1180.04,223.659L1166.41,242.193L1180.04,260.727L1166.45,279.205L1166.41,279.237L1166.42,279.251L1166.41,279.26L1166.45,279.293L1180.04,297.771L1166.41,316.305L1180.04,334.839L1166.41,353.373L1168.88,355.195L1183.86,334.839Z" style="fill:rgb(19,175,181);fill-rule:nonzero;"/>
        <path d="M1198.31,297.275L1184.68,278.741L1198.31,260.206L1184.69,241.684L1198.31,223.163L1184.68,204.629L1198.31,186.095L1184.69,167.574L1198.31,149.053L1184.68,130.519L1198.31,111.983L1183.34,91.628L1180.86,93.45L1194.5,111.983L1180.86,130.519L1194.5,149.053L1180.9,167.532L1180.86,167.561L1180.87,167.574L1180.86,167.587L1180.9,167.616L1194.5,186.095L1180.86,204.629L1194.5,223.163L1180.9,241.641L1180.86,241.671L1180.87,241.684L1180.86,241.697L1180.9,241.728L1194.5,260.206L1180.86,278.741L1194.5,297.275L1180.86,315.809L1183.34,317.631L1198.31,297.275Z" style="fill:rgb(19,175,181);fill-rule:nonzero;"/>
        <path d="M1212.76,260.59L1199.13,242.056L1212.76,223.522L1199.14,205.001L1212.76,186.479L1199.13,167.946L1212.76,149.411L1199.14,130.89L1212.76,112.367L1199.13,93.833L1212.76,75.299L1197.79,54.944L1195.32,56.766L1208.95,75.299L1195.32,93.833L1208.95,112.367L1195.36,130.846L1195.32,130.877L1195.33,130.89L1195.32,130.902L1195.36,130.931L1208.95,149.411L1195.32,167.944L1195.32,167.946L1208.95,186.479L1195.36,204.957L1195.32,204.988L1195.33,205.001L1195.32,205.014L1195.36,205.044L1208.95,223.522L1195.32,242.056L1208.95,260.59L1195.32,279.123L1197.79,280.945L1212.76,260.59Z" style="fill:rgb(19,175,181);fill-rule:nonzero;"/>
    </g>
</svg>
