<?xml version="1.0" encoding="UTF-8" standalone="no"?>
<!DOCTYPE svg PUBLIC "-//W3C//DTD SVG 1.1//EN" "http://www.w3.org/Graphics/SVG/1.1/DTD/svg11.dtd">
<svg width="100%" height="100%" viewBox="0 0 59 93" version="1.1" xmlns="http://www.w3.org/2000/svg" xmlns:xlink="http://www.w3.org/1999/xlink" xml:space="preserve" style="fill-rule:evenodd;clip-rule:evenodd;stroke-linejoin:round;stroke-miterlimit:1.41421;">
    <g transform="matrix(1,0,0,1,-50.6669,-465.08)">
        <path d="M60.734,481.231L65.025,476.54L94.718,476.54L99.006,481.231L60.734,481.231ZM106.566,486.957L106.566,536.165C106.566,537.936 105.126,539.377 103.359,539.377L56.386,539.377C54.618,539.377 53.18,537.936 53.18,536.165L53.18,486.957C53.18,485.187 54.618,483.745 56.386,483.745L103.359,483.745C105.126,483.745 106.566,485.187 106.566,486.957M94.719,546.584L65.025,546.584L60.734,541.889L99.006,541.889L94.719,546.584ZM94.016,555.528L65.727,555.528L65.727,549.096L94.016,549.096L94.016,555.528ZM65.728,467.592L94.017,467.592L94.017,474.027L65.728,474.027L65.728,467.592ZM63.215,465.08L63.215,474.794L57.329,481.231L56.386,481.231C53.233,481.231 50.667,483.8 50.667,486.957L50.667,536.165C50.667,539.32 53.233,541.889 56.386,541.889L57.329,541.889L63.215,548.326L63.215,558.041L96.529,558.041L96.529,548.326L102.411,541.889L103.359,541.889C106.513,541.889 109.078,539.32 109.078,536.165L109.078,486.957C109.078,483.8 106.513,481.231 103.359,481.231L102.411,481.231L96.529,474.793L96.529,465.08L63.215,465.08Z" style="fill:rgb(19,175,181);fill-rule:nonzero;"/>
        <path d="M60.749,501.201C62.582,497.948 66.084,495.847 69.671,495.847C73.306,495.847 76.545,497.924 78.792,501.692L79.873,503.504L80.952,501.692C83.197,497.924 86.434,495.847 90.066,495.847C93.65,495.847 97.15,497.948 98.984,501.201C100.04,503.076 101.28,506.713 99.309,511.54L78.963,511.54L78.044,513.486L75.854,507.449L74.53,512.474L72.705,499.935L69.52,511.54L60.433,511.54C58.456,506.713 59.694,503.076 60.749,501.201M79.873,531.169C71.818,525.23 65.375,520.136 61.691,514.059C61.69,514.055 61.689,514.055 61.688,514.053L71.437,514.053L71.949,512.185L73.818,525.034L76.234,515.866L77.74,520.013L80.556,514.053L98.054,514.053C98.053,514.055 98.052,514.057 98.051,514.059C94.374,520.131 87.93,525.23 79.873,531.169M79.129,533.74L79.873,534.287L80.616,533.74C89.249,527.396 96.171,522.015 100.2,515.36C103.376,510.114 103.73,504.505 101.173,499.968C98.867,495.877 94.61,493.335 90.066,493.335C86.082,493.335 82.52,495.256 79.873,498.792C77.221,495.256 73.657,493.335 69.671,493.335C65.123,493.335 60.866,495.877 58.56,499.97C56.004,504.505 56.363,510.114 59.542,515.36C63.579,522.02 70.499,527.399 79.129,533.74" style="fill:rgb(19,175,181);fill-rule:nonzero;"/>
    </g>
</svg>
