<?xml version="1.0" encoding="UTF-8" standalone="no"?>
<!DOCTYPE svg PUBLIC "-//W3C//DTD SVG 1.1//EN" "http://www.w3.org/Graphics/SVG/1.1/DTD/svg11.dtd">
<svg width="100%" height="100%" viewBox="0 0 530 832" version="1.1" xmlns="http://www.w3.org/2000/svg" xmlns:xlink="http://www.w3.org/1999/xlink" xml:space="preserve" style="fill-rule:evenodd;clip-rule:evenodd;stroke-linejoin:round;stroke-miterlimit:1.41421;">
    <g transform="matrix(1,0,0,1,-3016.99,-1192)">
        <g transform="matrix(2.66667,0,0,2.66667,-2.84217e-14,1.42109e-14)">
            <g transform="matrix(0.375,0,0,0.375,-308.064,-53.1984)">
                <g>
                    <path d="M3854.28,2145.75L3854.28,2131.76C3854.28,2130.77 3855.07,2129.97 3856.07,2129.97C3857.05,2129.97 3857.85,2130.77 3857.85,2131.76L3857.85,2145.75L3871.84,2145.75C3872.83,2145.75 3873.62,2146.57 3873.62,2147.55C3873.62,2148.52 3872.83,2149.32 3871.84,2149.32L3857.85,2149.32L3857.85,2163.33C3857.85,2164.32 3857.05,2165.1 3856.07,2165.1C3855.07,2165.1 3854.28,2164.32 3854.28,2163.33L3854.28,2149.32L3840.28,2149.32C3839.3,2149.32 3838.5,2148.52 3838.5,2147.55C3838.5,2146.57 3839.3,2145.75 3840.28,2145.75L3854.28,2145.75ZM3916.1,2145.75L3916.1,2131.76C3916.1,2130.77 3916.89,2129.97 3917.88,2129.97C3918.87,2129.97 3919.66,2130.77 3919.66,2131.76L3919.66,2145.75L3933.66,2145.75C3934.64,2145.75 3935.45,2146.57 3935.45,2147.55C3935.45,2148.52 3934.64,2149.32 3933.66,2149.32L3919.66,2149.32L3919.66,2163.33C3919.66,2164.32 3918.87,2165.1 3917.88,2165.1C3916.89,2165.1 3916.1,2164.32 3916.1,2163.33L3916.1,2149.32L3902.1,2149.32C3901.11,2149.32 3900.32,2148.52 3900.32,2147.55C3900.32,2146.57 3901.11,2145.75 3902.1,2145.75L3916.1,2145.75ZM3977.91,2145.75L3977.91,2131.76C3977.91,2130.77 3978.71,2129.97 3979.7,2129.97C3980.68,2129.97 3981.48,2130.77 3981.48,2131.76L3981.48,2145.75L3995.48,2145.75C3996.46,2145.75 3997.26,2146.57 3997.26,2147.55C3997.26,2148.52 3996.46,2149.32 3995.48,2149.32L3981.48,2149.32L3981.48,2163.33C3981.48,2164.32 3980.68,2165.1 3979.7,2165.1C3978.71,2165.1 3977.91,2164.32 3977.91,2163.33L3977.91,2149.32L3963.92,2149.32C3962.93,2149.32 3962.13,2148.52 3962.13,2147.55C3962.13,2146.57 3962.93,2145.75 3963.92,2145.75L3977.91,2145.75ZM4039.73,2145.75L4039.73,2131.76C4039.73,2130.77 4040.53,2129.97 4041.51,2129.97C4042.51,2129.97 4043.3,2130.77 4043.3,2131.76L4043.3,2145.75L4057.3,2145.75C4058.29,2145.75 4059.07,2146.57 4059.07,2147.55C4059.07,2148.52 4058.29,2149.32 4057.3,2149.32L4043.3,2149.32L4043.3,2163.33C4043.3,2164.32 4042.51,2165.1 4041.51,2165.1C4040.53,2165.1 4039.73,2164.32 4039.73,2163.33L4039.73,2149.32L4025.73,2149.32C4024.75,2149.32 4023.95,2148.52 4023.95,2147.55C4023.95,2146.57 4024.75,2145.75 4025.73,2145.75L4039.73,2145.75ZM4101.56,2145.75L4101.56,2131.76C4101.56,2130.77 4102.35,2129.97 4103.33,2129.97C4104.31,2129.97 4105.11,2130.77 4105.11,2131.76L4105.11,2145.75L4119.12,2145.75C4120.1,2145.75 4120.9,2146.57 4120.9,2147.55C4120.9,2148.52 4120.1,2149.32 4119.12,2149.32L4105.11,2149.32L4105.11,2163.33C4105.11,2164.32 4104.31,2165.1 4103.33,2165.1C4102.35,2165.1 4101.56,2164.32 4101.56,2163.33L4101.56,2149.32L4087.56,2149.32C4086.57,2149.32 4085.76,2148.52 4085.76,2147.55C4085.76,2146.57 4086.57,2145.75 4087.56,2145.75L4101.56,2145.75ZM4163.36,2145.75L4163.36,2131.76C4163.36,2130.77 4164.17,2129.97 4165.16,2129.97C4166.15,2129.97 4166.94,2130.77 4166.94,2131.76L4166.94,2145.75L4180.93,2145.75C4181.92,2145.75 4182.72,2146.57 4182.72,2147.55C4182.72,2148.52 4181.92,2149.32 4180.93,2149.32L4166.94,2149.32L4166.94,2163.33C4166.94,2164.32 4166.15,2165.1 4165.16,2165.1C4164.17,2165.1 4163.36,2164.32 4163.36,2163.33L4163.36,2149.32L4149.38,2149.32C4148.39,2149.32 4147.59,2148.52 4147.59,2147.55C4147.59,2146.57 4148.39,2145.75 4149.38,2145.75L4163.36,2145.75ZM4225.19,2145.75L4225.19,2131.76C4225.19,2130.77 4225.99,2129.97 4226.97,2129.97C4227.95,2129.97 4228.76,2130.77 4228.76,2131.76L4228.76,2145.75L4242.76,2145.75C4243.74,2145.75 4244.54,2146.57 4244.54,2147.55C4244.54,2148.52 4243.74,2149.32 4242.76,2149.32L4228.76,2149.32L4228.76,2163.33C4228.76,2164.32 4227.95,2165.1 4226.97,2165.1C4225.99,2165.1 4225.19,2164.32 4225.19,2163.33L4225.19,2149.32L4211.19,2149.32C4210.21,2149.32 4209.41,2148.52 4209.41,2147.55C4209.41,2146.57 4210.21,2145.75 4211.19,2145.75L4225.19,2145.75ZM4287.01,2145.75L4287.01,2131.76C4287.01,2130.77 4287.8,2129.97 4288.79,2129.97C4289.78,2129.97 4290.57,2130.77 4290.57,2131.76L4290.57,2145.75L4304.57,2145.75C4305.55,2145.75 4306.36,2146.57 4306.36,2147.55C4306.36,2148.52 4305.55,2149.32 4304.57,2149.32L4290.57,2149.32L4290.57,2163.33C4290.57,2164.32 4289.78,2165.1 4288.79,2165.1C4287.8,2165.1 4287.01,2164.32 4287.01,2163.33L4287.01,2149.32L4273.01,2149.32C4272.02,2149.32 4271.23,2148.52 4271.23,2147.55C4271.23,2146.57 4272.02,2145.75 4273.01,2145.75L4287.01,2145.75ZM4348.82,2145.75L4348.82,2131.76C4348.82,2130.77 4349.62,2129.97 4350.61,2129.97C4351.6,2129.97 4352.4,2130.77 4352.4,2131.76L4352.4,2145.75L4366.39,2145.75C4367.38,2145.75 4368.17,2146.57 4368.17,2147.55C4368.17,2148.52 4367.38,2149.32 4366.39,2149.32L4352.4,2149.32L4352.4,2163.33C4352.4,2164.32 4351.6,2165.1 4350.61,2165.1C4349.62,2165.1 4348.82,2164.32 4348.82,2163.33L4348.82,2149.32L4334.83,2149.32C4333.84,2149.32 4333.04,2148.52 4333.04,2147.55C4333.04,2146.57 4333.84,2145.75 4334.83,2145.75L4348.82,2145.75ZM3977.91,2079.42L3977.91,2065.41C3977.91,2064.42 3978.71,2063.64 3979.7,2063.64C3980.68,2063.64 3981.48,2064.42 3981.48,2065.41L3981.48,2079.42L3995.48,2079.42C3996.46,2079.42 3997.26,2080.22 3997.26,2081.2C3997.26,2082.19 3996.46,2082.97 3995.48,2082.97L3981.48,2082.97L3981.48,2096.98C3981.48,2097.95 3980.68,2098.75 3979.7,2098.75C3978.71,2098.75 3977.91,2097.95 3977.91,2096.98L3977.91,2082.97L3963.92,2082.97C3962.93,2082.97 3962.13,2082.19 3962.13,2081.2C3962.13,2080.22 3962.93,2079.42 3963.92,2079.42L3977.91,2079.42ZM4163.36,2079.42L4163.36,2065.41C4163.36,2064.42 4164.17,2063.64 4165.16,2063.64C4166.15,2063.64 4166.94,2064.42 4166.94,2065.41L4166.94,2079.42L4180.93,2079.42C4181.92,2079.42 4182.72,2080.22 4182.72,2081.2C4182.72,2082.19 4181.92,2082.97 4180.93,2082.97L4166.94,2082.97L4166.94,2096.98C4166.94,2097.95 4166.15,2098.75 4165.16,2098.75C4164.17,2098.75 4163.36,2097.95 4163.36,2096.98L4163.36,2082.97L4149.38,2082.97C4148.39,2082.97 4147.59,2082.19 4147.59,2081.2C4147.59,2080.22 4148.39,2079.42 4149.38,2079.42L4163.36,2079.42ZM3854.28,2079.42L3854.28,2065.41C3854.28,2064.42 3855.07,2063.64 3856.07,2063.64C3857.05,2063.64 3857.85,2064.42 3857.85,2065.41L3857.85,2079.42L3871.84,2079.42C3872.83,2079.42 3873.62,2080.22 3873.62,2081.2C3873.62,2082.19 3872.83,2082.97 3871.84,2082.97L3857.85,2082.97L3857.85,2096.98C3857.85,2097.95 3857.05,2098.75 3856.07,2098.75C3855.07,2098.75 3854.28,2097.95 3854.28,2096.98L3854.28,2082.97L3840.28,2082.97C3839.3,2082.97 3838.5,2082.19 3838.5,2081.2C3838.5,2080.22 3839.3,2079.42 3840.28,2079.42L3854.28,2079.42ZM4225.19,2079.42L4225.19,2065.41C4225.19,2064.42 4225.99,2063.64 4226.97,2063.64C4227.95,2063.64 4228.76,2064.42 4228.76,2065.41L4228.76,2079.42L4242.76,2079.42C4243.74,2079.42 4244.54,2080.22 4244.54,2081.2C4244.54,2082.19 4243.74,2082.97 4242.76,2082.97L4228.76,2082.97L4228.76,2096.98C4228.76,2097.95 4227.95,2098.75 4226.97,2098.75C4225.99,2098.75 4225.19,2097.95 4225.19,2096.98L4225.19,2082.97L4211.19,2082.97C4210.21,2082.97 4209.41,2082.19 4209.41,2081.2C4209.41,2080.22 4210.21,2079.42 4211.19,2079.42L4225.19,2079.42ZM4039.73,2079.42L4039.73,2065.41C4039.73,2064.42 4040.53,2063.64 4041.51,2063.64C4042.51,2063.64 4043.3,2064.42 4043.3,2065.41L4043.3,2079.42L4057.3,2079.42C4058.29,2079.42 4059.07,2080.22 4059.07,2081.2C4059.07,2082.19 4058.29,2082.97 4057.3,2082.97L4043.3,2082.97L4043.3,2096.98C4043.3,2097.95 4042.51,2098.75 4041.51,2098.75C4040.53,2098.75 4039.73,2097.95 4039.73,2096.98L4039.73,2082.97L4025.73,2082.97C4024.75,2082.97 4023.95,2082.19 4023.95,2081.2C4023.95,2080.22 4024.75,2079.42 4025.73,2079.42L4039.73,2079.42ZM4287.01,2079.42L4287.01,2065.41C4287.01,2064.42 4287.8,2063.64 4288.79,2063.64C4289.78,2063.64 4290.57,2064.42 4290.57,2065.41L4290.57,2079.42L4304.57,2079.42C4305.55,2079.42 4306.36,2080.22 4306.36,2081.2C4306.36,2082.19 4305.55,2082.97 4304.57,2082.97L4290.57,2082.97L4290.57,2096.98C4290.57,2097.95 4289.78,2098.75 4288.79,2098.75C4287.8,2098.75 4287.01,2097.95 4287.01,2096.98L4287.01,2082.97L4273.01,2082.97C4272.02,2082.97 4271.23,2082.19 4271.23,2081.2C4271.23,2080.22 4272.02,2079.42 4273.01,2079.42L4287.01,2079.42ZM3916.1,2079.42L3916.1,2065.41C3916.1,2064.42 3916.89,2063.64 3917.88,2063.64C3918.87,2063.64 3919.66,2064.42 3919.66,2065.41L3919.66,2079.42L3933.66,2079.42C3934.64,2079.42 3935.45,2080.22 3935.45,2081.2C3935.45,2082.19 3934.64,2082.97 3933.66,2082.97L3919.66,2082.97L3919.66,2096.98C3919.66,2097.95 3918.87,2098.75 3917.88,2098.75C3916.89,2098.75 3916.1,2097.95 3916.1,2096.98L3916.1,2082.97L3902.1,2082.97C3901.11,2082.97 3900.32,2082.19 3900.32,2081.2C3900.32,2080.22 3901.11,2079.42 3902.1,2079.42L3916.1,2079.42ZM4348.82,2079.42L4348.82,2065.41C4348.82,2064.42 4349.62,2063.64 4350.61,2063.64C4351.6,2063.64 4352.4,2064.42 4352.4,2065.41L4352.4,2079.42L4366.39,2079.42C4367.38,2079.42 4368.17,2080.22 4368.17,2081.2C4368.17,2082.19 4367.38,2082.97 4366.39,2082.97L4352.4,2082.97L4352.4,2096.98C4352.4,2097.95 4351.6,2098.75 4350.61,2098.75C4349.62,2098.75 4348.82,2097.95 4348.82,2096.98L4348.82,2082.97L4334.83,2082.97C4333.84,2082.97 4333.04,2082.19 4333.04,2081.2C4333.04,2080.22 4333.84,2079.42 4334.83,2079.42L4348.82,2079.42ZM4101.56,2079.42L4101.56,2065.41C4101.56,2064.42 4102.35,2063.64 4103.33,2063.64C4104.31,2063.64 4105.11,2064.42 4105.11,2065.41L4105.11,2079.42L4119.12,2079.42C4120.1,2079.42 4120.9,2080.22 4120.9,2081.2C4120.9,2082.19 4120.1,2082.97 4119.12,2082.97L4105.11,2082.97L4105.11,2096.98C4105.11,2097.95 4104.31,2098.75 4103.33,2098.75C4102.35,2098.75 4101.56,2097.95 4101.56,2096.98L4101.56,2082.97L4087.56,2082.97C4086.57,2082.97 4085.76,2082.19 4085.76,2081.2C4085.76,2080.22 4086.57,2079.42 4087.56,2079.42L4101.56,2079.42ZM4225.19,2013.07L4225.19,1999.08C4225.19,1998.09 4225.99,1997.29 4226.97,1997.29C4227.95,1997.29 4228.76,1998.09 4228.76,1999.08L4228.76,2013.07L4242.76,2013.07C4243.74,2013.07 4244.54,2013.87 4244.54,2014.85C4244.54,2015.84 4243.74,2016.64 4242.76,2016.64L4228.76,2016.64L4228.76,2030.65C4228.76,2031.62 4227.95,2032.42 4226.97,2032.42C4225.99,2032.42 4225.19,2031.62 4225.19,2030.65L4225.19,2016.64L4211.19,2016.64C4210.21,2016.64 4209.41,2015.84 4209.41,2014.85C4209.41,2013.87 4210.21,2013.07 4211.19,2013.07L4225.19,2013.07ZM3854.28,2013.07L3854.28,1999.08C3854.28,1998.09 3855.07,1997.29 3856.07,1997.29C3857.05,1997.29 3857.85,1998.09 3857.85,1999.08L3857.85,2013.07L3871.84,2013.07C3872.83,2013.07 3873.62,2013.87 3873.62,2014.85C3873.62,2015.84 3872.83,2016.64 3871.84,2016.64L3857.85,2016.64L3857.85,2030.65C3857.85,2031.62 3857.05,2032.42 3856.07,2032.42C3855.07,2032.42 3854.28,2031.62 3854.28,2030.65L3854.28,2016.64L3840.28,2016.64C3839.3,2016.64 3838.5,2015.84 3838.5,2014.85C3838.5,2013.87 3839.3,2013.07 3840.28,2013.07L3854.28,2013.07ZM3916.1,2013.07L3916.1,1999.08C3916.1,1998.09 3916.89,1997.29 3917.88,1997.29C3918.87,1997.29 3919.66,1998.09 3919.66,1999.08L3919.66,2013.07L3933.66,2013.07C3934.64,2013.07 3935.45,2013.87 3935.45,2014.85C3935.45,2015.84 3934.64,2016.64 3933.66,2016.64L3919.66,2016.64L3919.66,2030.65C3919.66,2031.62 3918.87,2032.42 3917.88,2032.42C3916.89,2032.42 3916.1,2031.62 3916.1,2030.65L3916.1,2016.64L3902.1,2016.64C3901.11,2016.64 3900.32,2015.84 3900.32,2014.85C3900.32,2013.87 3901.11,2013.07 3902.1,2013.07L3916.1,2013.07ZM4287.01,2013.07L4287.01,1999.08C4287.01,1998.09 4287.8,1997.29 4288.79,1997.29C4289.78,1997.29 4290.57,1998.09 4290.57,1999.08L4290.57,2013.07L4304.57,2013.07C4305.55,2013.07 4306.36,2013.87 4306.36,2014.85C4306.36,2015.84 4305.55,2016.64 4304.57,2016.64L4290.57,2016.64L4290.57,2030.65C4290.57,2031.62 4289.78,2032.42 4288.79,2032.42C4287.8,2032.42 4287.01,2031.62 4287.01,2030.65L4287.01,2016.64L4273.01,2016.64C4272.02,2016.64 4271.23,2015.84 4271.23,2014.85C4271.23,2013.87 4272.02,2013.07 4273.01,2013.07L4287.01,2013.07ZM3977.91,2013.07L3977.91,1999.08C3977.91,1998.09 3978.71,1997.29 3979.7,1997.29C3980.68,1997.29 3981.48,1998.09 3981.48,1999.08L3981.48,2013.07L3995.48,2013.07C3996.46,2013.07 3997.26,2013.87 3997.26,2014.85C3997.26,2015.84 3996.46,2016.64 3995.48,2016.64L3981.48,2016.64L3981.48,2030.65C3981.48,2031.62 3980.68,2032.42 3979.7,2032.42C3978.71,2032.42 3977.91,2031.62 3977.91,2030.65L3977.91,2016.64L3963.92,2016.64C3962.93,2016.64 3962.13,2015.84 3962.13,2014.85C3962.13,2013.87 3962.93,2013.07 3963.92,2013.07L3977.91,2013.07ZM4039.73,2013.07L4039.73,1999.08C4039.73,1998.09 4040.53,1997.29 4041.51,1997.29C4042.51,1997.29 4043.3,1998.09 4043.3,1999.08L4043.3,2013.07L4057.3,2013.07C4058.29,2013.07 4059.07,2013.87 4059.07,2014.85C4059.07,2015.84 4058.29,2016.64 4057.3,2016.64L4043.3,2016.64L4043.3,2030.65C4043.3,2031.62 4042.51,2032.42 4041.51,2032.42C4040.53,2032.42 4039.73,2031.62 4039.73,2030.65L4039.73,2016.64L4025.73,2016.64C4024.75,2016.64 4023.95,2015.84 4023.95,2014.85C4023.95,2013.87 4024.75,2013.07 4025.73,2013.07L4039.73,2013.07ZM4348.82,2013.07L4348.82,1999.08C4348.82,1998.09 4349.62,1997.29 4350.61,1997.29C4351.6,1997.29 4352.4,1998.09 4352.4,1999.08L4352.4,2013.07L4366.39,2013.07C4367.38,2013.07 4368.17,2013.87 4368.17,2014.85C4368.17,2015.84 4367.38,2016.64 4366.39,2016.64L4352.4,2016.64L4352.4,2030.65C4352.4,2031.62 4351.6,2032.42 4350.61,2032.42C4349.62,2032.42 4348.82,2031.62 4348.82,2030.65L4348.82,2016.64L4334.83,2016.64C4333.84,2016.64 4333.04,2015.84 4333.04,2014.85C4333.04,2013.87 4333.84,2013.07 4334.83,2013.07L4348.82,2013.07ZM4101.56,2013.07L4101.56,1999.08C4101.56,1998.09 4102.35,1997.29 4103.33,1997.29C4104.31,1997.29 4105.11,1998.09 4105.11,1999.08L4105.11,2013.07L4119.12,2013.07C4120.1,2013.07 4120.9,2013.87 4120.9,2014.85C4120.9,2015.84 4120.1,2016.64 4119.12,2016.64L4105.11,2016.64L4105.11,2030.65C4105.11,2031.62 4104.31,2032.42 4103.33,2032.42C4102.35,2032.42 4101.56,2031.62 4101.56,2030.65L4101.56,2016.64L4087.56,2016.64C4086.57,2016.64 4085.76,2015.84 4085.76,2014.85C4085.76,2013.87 4086.57,2013.07 4087.56,2013.07L4101.56,2013.07ZM4163.36,2013.07L4163.36,1999.08C4163.36,1998.09 4164.17,1997.29 4165.16,1997.29C4166.15,1997.29 4166.94,1998.09 4166.94,1999.08L4166.94,2013.07L4180.93,2013.07C4181.92,2013.07 4182.72,2013.87 4182.72,2014.85C4182.72,2015.84 4181.92,2016.64 4180.93,2016.64L4166.94,2016.64L4166.94,2030.65C4166.94,2031.62 4166.15,2032.42 4165.16,2032.42C4164.17,2032.42 4163.36,2031.62 4163.36,2030.65L4163.36,2016.64L4149.38,2016.64C4148.39,2016.64 4147.59,2015.84 4147.59,2014.85C4147.59,2013.87 4148.39,2013.07 4149.38,2013.07L4163.36,2013.07ZM3916.1,1946.74L3916.1,1932.73C3916.1,1931.76 3916.89,1930.96 3917.88,1930.96C3918.87,1930.96 3919.66,1931.76 3919.66,1932.73L3919.66,1946.74L3933.66,1946.74C3934.64,1946.74 3935.45,1947.52 3935.45,1948.51C3935.45,1949.51 3934.64,1950.29 3933.66,1950.29L3919.66,1950.29L3919.66,1964.3C3919.66,1965.27 3918.87,1966.07 3917.88,1966.07C3916.89,1966.07 3916.1,1965.27 3916.1,1964.3L3916.1,1950.29L3902.1,1950.29C3901.11,1950.29 3900.32,1949.51 3900.32,1948.51C3900.32,1947.52 3901.11,1946.74 3902.1,1946.74L3916.1,1946.74ZM3977.91,1946.74L3977.91,1932.73C3977.91,1931.76 3978.71,1930.96 3979.7,1930.96C3980.68,1930.96 3981.48,1931.76 3981.48,1932.73L3981.48,1946.74L3995.48,1946.74C3996.46,1946.74 3997.26,1947.52 3997.26,1948.51C3997.26,1949.51 3996.46,1950.29 3995.48,1950.29L3981.48,1950.29L3981.48,1964.3C3981.48,1965.27 3980.68,1966.07 3979.7,1966.07C3978.71,1966.07 3977.91,1965.27 3977.91,1964.3L3977.91,1950.29L3963.92,1950.29C3962.93,1950.29 3962.13,1949.51 3962.13,1948.51C3962.13,1947.52 3962.93,1946.74 3963.92,1946.74L3977.91,1946.74ZM3854.28,1946.74L3854.28,1932.73C3854.28,1931.76 3855.07,1930.96 3856.07,1930.96C3857.05,1930.96 3857.85,1931.76 3857.85,1932.73L3857.85,1946.74L3871.84,1946.74C3872.83,1946.74 3873.62,1947.52 3873.62,1948.51C3873.62,1949.51 3872.83,1950.29 3871.84,1950.29L3857.85,1950.29L3857.85,1964.3C3857.85,1965.27 3857.05,1966.07 3856.07,1966.07C3855.07,1966.07 3854.28,1965.27 3854.28,1964.3L3854.28,1950.29L3840.28,1950.29C3839.3,1950.29 3838.5,1949.51 3838.5,1948.51C3838.5,1947.52 3839.3,1946.74 3840.28,1946.74L3854.28,1946.74ZM4101.56,1946.74L4101.56,1932.73C4101.56,1931.76 4102.35,1930.96 4103.33,1930.96C4104.31,1930.96 4105.11,1931.76 4105.11,1932.73L4105.11,1946.74L4119.12,1946.74C4120.1,1946.74 4120.9,1947.52 4120.9,1948.51C4120.9,1949.51 4120.1,1950.29 4119.12,1950.29L4105.11,1950.29L4105.11,1964.3C4105.11,1965.27 4104.31,1966.07 4103.33,1966.07C4102.35,1966.07 4101.56,1965.27 4101.56,1964.3L4101.56,1950.29L4087.56,1950.29C4086.57,1950.29 4085.76,1949.51 4085.76,1948.51C4085.76,1947.52 4086.57,1946.74 4087.56,1946.74L4101.56,1946.74ZM4163.36,1946.74L4163.36,1932.73C4163.36,1931.76 4164.17,1930.96 4165.16,1930.96C4166.15,1930.96 4166.94,1931.76 4166.94,1932.73L4166.94,1946.74L4180.93,1946.74C4181.92,1946.74 4182.72,1947.52 4182.72,1948.51C4182.72,1949.51 4181.92,1950.29 4180.93,1950.29L4166.94,1950.29L4166.94,1964.3C4166.94,1965.27 4166.15,1966.07 4165.16,1966.07C4164.17,1966.07 4163.36,1965.27 4163.36,1964.3L4163.36,1950.29L4149.38,1950.29C4148.39,1950.29 4147.59,1949.51 4147.59,1948.51C4147.59,1947.52 4148.39,1946.74 4149.38,1946.74L4163.36,1946.74ZM4348.82,1946.74L4348.82,1932.73C4348.82,1931.76 4349.62,1930.96 4350.61,1930.96C4351.6,1930.96 4352.4,1931.76 4352.4,1932.73L4352.4,1946.74L4366.39,1946.74C4367.38,1946.74 4368.17,1947.52 4368.17,1948.51C4368.17,1949.51 4367.38,1950.29 4366.39,1950.29L4352.4,1950.29L4352.4,1964.3C4352.4,1965.27 4351.6,1966.07 4350.61,1966.07C4349.62,1966.07 4348.82,1965.27 4348.82,1964.3L4348.82,1950.29L4334.83,1950.29C4333.84,1950.29 4333.04,1949.51 4333.04,1948.51C4333.04,1947.52 4333.84,1946.74 4334.83,1946.74L4348.82,1946.74ZM4039.73,1946.74L4039.73,1932.73C4039.73,1931.76 4040.53,1930.96 4041.51,1930.96C4042.51,1930.96 4043.3,1931.76 4043.3,1932.73L4043.3,1946.74L4057.3,1946.74C4058.29,1946.74 4059.07,1947.52 4059.07,1948.51C4059.07,1949.51 4058.29,1950.29 4057.3,1950.29L4043.3,1950.29L4043.3,1964.3C4043.3,1965.27 4042.51,1966.07 4041.51,1966.07C4040.53,1966.07 4039.73,1965.27 4039.73,1964.3L4039.73,1950.29L4025.73,1950.29C4024.75,1950.29 4023.95,1949.51 4023.95,1948.51C4023.95,1947.52 4024.75,1946.74 4025.73,1946.74L4039.73,1946.74ZM4287.01,1946.74L4287.01,1932.73C4287.01,1931.76 4287.8,1930.96 4288.79,1930.96C4289.78,1930.96 4290.57,1931.76 4290.57,1932.73L4290.57,1946.74L4304.57,1946.74C4305.55,1946.74 4306.36,1947.52 4306.36,1948.51C4306.36,1949.51 4305.55,1950.29 4304.57,1950.29L4290.57,1950.29L4290.57,1964.3C4290.57,1965.27 4289.78,1966.07 4288.79,1966.07C4287.8,1966.07 4287.01,1965.27 4287.01,1964.3L4287.01,1950.29L4273.01,1950.29C4272.02,1950.29 4271.23,1949.51 4271.23,1948.51C4271.23,1947.52 4272.02,1946.74 4273.01,1946.74L4287.01,1946.74ZM4225.19,1946.74L4225.19,1932.73C4225.19,1931.76 4225.99,1930.96 4226.97,1930.96C4227.95,1930.96 4228.76,1931.76 4228.76,1932.73L4228.76,1946.74L4242.76,1946.74C4243.74,1946.74 4244.54,1947.52 4244.54,1948.51C4244.54,1949.51 4243.74,1950.29 4242.76,1950.29L4228.76,1950.29L4228.76,1964.3C4228.76,1965.27 4227.95,1966.07 4226.97,1966.07C4225.99,1966.07 4225.19,1965.27 4225.19,1964.3L4225.19,1950.29L4211.19,1950.29C4210.21,1950.29 4209.41,1949.51 4209.41,1948.51C4209.41,1947.52 4210.21,1946.74 4211.19,1946.74L4225.19,1946.74ZM3854.28,1880.37L3854.28,1866.38C3854.28,1865.41 3855.07,1864.62 3856.07,1864.62C3857.05,1864.62 3857.85,1865.41 3857.85,1866.38L3857.85,1880.37L3871.84,1880.37C3872.83,1880.37 3873.62,1881.17 3873.62,1882.18C3873.62,1883.16 3872.83,1883.96 3871.84,1883.96L3857.85,1883.96L3857.85,1897.95C3857.85,1898.94 3857.05,1899.74 3856.07,1899.74C3855.07,1899.74 3854.28,1898.94 3854.28,1897.95L3854.28,1883.96L3840.28,1883.96C3839.3,1883.96 3838.5,1883.16 3838.5,1882.18C3838.5,1881.17 3839.3,1880.37 3840.28,1880.37L3854.28,1880.37ZM4287.01,1880.37L4287.01,1866.38C4287.01,1865.41 4287.8,1864.62 4288.79,1864.62C4289.78,1864.62 4290.57,1865.41 4290.57,1866.38L4290.57,1880.37L4304.57,1880.37C4305.55,1880.37 4306.36,1881.17 4306.36,1882.18C4306.36,1883.16 4305.55,1883.96 4304.57,1883.96L4290.57,1883.96L4290.57,1897.95C4290.57,1898.94 4289.78,1899.74 4288.79,1899.74C4287.8,1899.74 4287.01,1898.94 4287.01,1897.95L4287.01,1883.96L4273.01,1883.96C4272.02,1883.96 4271.23,1883.16 4271.23,1882.18C4271.23,1881.17 4272.02,1880.37 4273.01,1880.37L4287.01,1880.37ZM3916.1,1880.37L3916.1,1866.38C3916.1,1865.41 3916.89,1864.62 3917.88,1864.62C3918.87,1864.62 3919.66,1865.41 3919.66,1866.38L3919.66,1880.37L3933.66,1880.37C3934.64,1880.37 3935.45,1881.17 3935.45,1882.18C3935.45,1883.16 3934.64,1883.96 3933.66,1883.96L3919.66,1883.96L3919.66,1897.95C3919.66,1898.94 3918.87,1899.74 3917.88,1899.74C3916.89,1899.74 3916.1,1898.94 3916.1,1897.95L3916.1,1883.96L3902.1,1883.96C3901.11,1883.96 3900.32,1883.16 3900.32,1882.18C3900.32,1881.17 3901.11,1880.37 3902.1,1880.37L3916.1,1880.37ZM3977.91,1880.37L3977.91,1866.38C3977.91,1865.41 3978.71,1864.62 3979.7,1864.62C3980.68,1864.62 3981.48,1865.41 3981.48,1866.38L3981.48,1880.37L3995.48,1880.37C3996.46,1880.37 3997.26,1881.17 3997.26,1882.18C3997.26,1883.16 3996.46,1883.96 3995.48,1883.96L3981.48,1883.96L3981.48,1897.95C3981.48,1898.94 3980.68,1899.74 3979.7,1899.74C3978.71,1899.74 3977.91,1898.94 3977.91,1897.95L3977.91,1883.96L3963.92,1883.96C3962.93,1883.96 3962.13,1883.16 3962.13,1882.18C3962.13,1881.17 3962.93,1880.37 3963.92,1880.37L3977.91,1880.37ZM4039.73,1880.37L4039.73,1866.38C4039.73,1865.41 4040.53,1864.62 4041.51,1864.62C4042.51,1864.62 4043.3,1865.41 4043.3,1866.38L4043.3,1880.37L4057.3,1880.37C4058.29,1880.37 4059.07,1881.17 4059.07,1882.18C4059.07,1883.16 4058.29,1883.96 4057.3,1883.96L4043.3,1883.96L4043.3,1897.95C4043.3,1898.94 4042.51,1899.74 4041.51,1899.74C4040.53,1899.74 4039.73,1898.94 4039.73,1897.95L4039.73,1883.96L4025.73,1883.96C4024.75,1883.96 4023.95,1883.16 4023.95,1882.18C4023.95,1881.17 4024.75,1880.37 4025.73,1880.37L4039.73,1880.37ZM4348.82,1880.37L4348.82,1866.38C4348.82,1865.41 4349.62,1864.62 4350.61,1864.62C4351.6,1864.62 4352.4,1865.41 4352.4,1866.38L4352.4,1880.37L4366.39,1880.37C4367.38,1880.37 4368.17,1881.17 4368.17,1882.18C4368.17,1883.16 4367.38,1883.96 4366.39,1883.96L4352.4,1883.96L4352.4,1897.95C4352.4,1898.94 4351.6,1899.74 4350.61,1899.74C4349.62,1899.74 4348.82,1898.94 4348.82,1897.95L4348.82,1883.96L4334.83,1883.96C4333.84,1883.96 4333.04,1883.16 4333.04,1882.18C4333.04,1881.17 4333.84,1880.37 4334.83,1880.37L4348.82,1880.37ZM4101.56,1880.37L4101.56,1866.38C4101.56,1865.41 4102.35,1864.62 4103.33,1864.62C4104.31,1864.62 4105.11,1865.41 4105.11,1866.38L4105.11,1880.37L4119.12,1880.37C4120.1,1880.37 4120.9,1881.17 4120.9,1882.18C4120.9,1883.16 4120.1,1883.96 4119.12,1883.96L4105.11,1883.96L4105.11,1897.95C4105.11,1898.94 4104.31,1899.74 4103.33,1899.74C4102.35,1899.74 4101.56,1898.94 4101.56,1897.95L4101.56,1883.96L4087.56,1883.96C4086.57,1883.96 4085.76,1883.16 4085.76,1882.18C4085.76,1881.17 4086.57,1880.37 4087.56,1880.37L4101.56,1880.37ZM4163.36,1880.37L4163.36,1866.38C4163.36,1865.41 4164.17,1864.62 4165.16,1864.62C4166.15,1864.62 4166.94,1865.41 4166.94,1866.38L4166.94,1880.37L4180.93,1880.37C4181.92,1880.37 4182.72,1881.17 4182.72,1882.18C4182.72,1883.16 4181.92,1883.96 4180.93,1883.96L4166.94,1883.96L4166.94,1897.95C4166.94,1898.94 4166.15,1899.74 4165.16,1899.74C4164.17,1899.74 4163.36,1898.94 4163.36,1897.95L4163.36,1883.96L4149.38,1883.96C4148.39,1883.96 4147.59,1883.16 4147.59,1882.18C4147.59,1881.17 4148.39,1880.37 4149.38,1880.37L4163.36,1880.37ZM4225.19,1880.37L4225.19,1866.38C4225.19,1865.41 4225.99,1864.62 4226.97,1864.62C4227.95,1864.62 4228.76,1865.41 4228.76,1866.38L4228.76,1880.37L4242.76,1880.37C4243.74,1880.37 4244.54,1881.17 4244.54,1882.18C4244.54,1883.16 4243.74,1883.96 4242.76,1883.96L4228.76,1883.96L4228.76,1897.95C4228.76,1898.94 4227.95,1899.74 4226.97,1899.74C4225.99,1899.74 4225.19,1898.94 4225.19,1897.95L4225.19,1883.96L4211.19,1883.96C4210.21,1883.96 4209.41,1883.16 4209.41,1882.18C4209.41,1881.17 4210.21,1880.37 4211.19,1880.37L4225.19,1880.37ZM3854.28,1814.04L3854.28,1800.05C3854.28,1799.06 3855.07,1798.26 3856.07,1798.26C3857.05,1798.26 3857.85,1799.06 3857.85,1800.05L3857.85,1814.04L3871.84,1814.04C3872.83,1814.04 3873.62,1814.84 3873.62,1815.83C3873.62,1816.81 3872.83,1817.61 3871.84,1817.61L3857.85,1817.61L3857.85,1831.62C3857.85,1832.61 3857.05,1833.39 3856.07,1833.39C3855.07,1833.39 3854.28,1832.61 3854.28,1831.62L3854.28,1817.61L3840.28,1817.61C3839.3,1817.61 3838.5,1816.81 3838.5,1815.83C3838.5,1814.84 3839.3,1814.04 3840.28,1814.04L3854.28,1814.04ZM3916.1,1814.04L3916.1,1800.05C3916.1,1799.06 3916.89,1798.26 3917.88,1798.26C3918.87,1798.26 3919.66,1799.06 3919.66,1800.05L3919.66,1814.04L3933.66,1814.04C3934.64,1814.04 3935.45,1814.84 3935.45,1815.83C3935.45,1816.81 3934.64,1817.61 3933.66,1817.61L3919.66,1817.61L3919.66,1831.62C3919.66,1832.61 3918.87,1833.39 3917.88,1833.39C3916.89,1833.39 3916.1,1832.61 3916.1,1831.62L3916.1,1817.61L3902.1,1817.61C3901.11,1817.61 3900.32,1816.81 3900.32,1815.83C3900.32,1814.84 3901.11,1814.04 3902.1,1814.04L3916.1,1814.04ZM3977.91,1814.04L3977.91,1800.05C3977.91,1799.06 3978.71,1798.26 3979.7,1798.26C3980.68,1798.26 3981.48,1799.06 3981.48,1800.05L3981.48,1814.04L3995.48,1814.04C3996.46,1814.04 3997.26,1814.84 3997.26,1815.83C3997.26,1816.81 3996.46,1817.61 3995.48,1817.61L3981.48,1817.61L3981.48,1831.62C3981.48,1832.61 3980.68,1833.39 3979.7,1833.39C3978.71,1833.39 3977.91,1832.61 3977.91,1831.62L3977.91,1817.61L3963.92,1817.61C3962.93,1817.61 3962.13,1816.81 3962.13,1815.83C3962.13,1814.84 3962.93,1814.04 3963.92,1814.04L3977.91,1814.04ZM4039.73,1814.04L4039.73,1800.05C4039.73,1799.06 4040.53,1798.26 4041.51,1798.26C4042.51,1798.26 4043.3,1799.06 4043.3,1800.05L4043.3,1814.04L4057.3,1814.04C4058.29,1814.04 4059.07,1814.84 4059.07,1815.83C4059.07,1816.81 4058.29,1817.61 4057.3,1817.61L4043.3,1817.61L4043.3,1831.62C4043.3,1832.61 4042.51,1833.39 4041.51,1833.39C4040.53,1833.39 4039.73,1832.61 4039.73,1831.62L4039.73,1817.61L4025.73,1817.61C4024.75,1817.61 4023.95,1816.81 4023.95,1815.83C4023.95,1814.84 4024.75,1814.04 4025.73,1814.04L4039.73,1814.04ZM4101.56,1814.04L4101.56,1800.05C4101.56,1799.06 4102.35,1798.26 4103.33,1798.26C4104.31,1798.26 4105.11,1799.06 4105.11,1800.05L4105.11,1814.04L4119.12,1814.04C4120.1,1814.04 4120.9,1814.84 4120.9,1815.83C4120.9,1816.81 4120.1,1817.61 4119.12,1817.61L4105.11,1817.61L4105.11,1831.62C4105.11,1832.61 4104.31,1833.39 4103.33,1833.39C4102.35,1833.39 4101.56,1832.61 4101.56,1831.62L4101.56,1817.61L4087.56,1817.61C4086.57,1817.61 4085.76,1816.81 4085.76,1815.83C4085.76,1814.84 4086.57,1814.04 4087.56,1814.04L4101.56,1814.04ZM4163.36,1814.04L4163.36,1800.05C4163.36,1799.06 4164.17,1798.26 4165.16,1798.26C4166.15,1798.26 4166.94,1799.06 4166.94,1800.05L4166.94,1814.04L4180.93,1814.04C4181.92,1814.04 4182.72,1814.84 4182.72,1815.83C4182.72,1816.81 4181.92,1817.61 4180.93,1817.61L4166.94,1817.61L4166.94,1831.62C4166.94,1832.61 4166.15,1833.39 4165.16,1833.39C4164.17,1833.39 4163.36,1832.61 4163.36,1831.62L4163.36,1817.61L4149.38,1817.61C4148.39,1817.61 4147.59,1816.81 4147.59,1815.83C4147.59,1814.84 4148.39,1814.04 4149.38,1814.04L4163.36,1814.04ZM4225.19,1814.04L4225.19,1800.05C4225.19,1799.06 4225.99,1798.26 4226.97,1798.26C4227.95,1798.26 4228.76,1799.06 4228.76,1800.05L4228.76,1814.04L4242.76,1814.04C4243.74,1814.04 4244.54,1814.84 4244.54,1815.83C4244.54,1816.81 4243.74,1817.61 4242.76,1817.61L4228.76,1817.61L4228.76,1831.62C4228.76,1832.61 4227.95,1833.39 4226.97,1833.39C4225.99,1833.39 4225.19,1832.61 4225.19,1831.62L4225.19,1817.61L4211.19,1817.61C4210.21,1817.61 4209.41,1816.81 4209.41,1815.83C4209.41,1814.84 4210.21,1814.04 4211.19,1814.04L4225.19,1814.04ZM4287.01,1814.04L4287.01,1800.05C4287.01,1799.06 4287.8,1798.26 4288.79,1798.26C4289.78,1798.26 4290.57,1799.06 4290.57,1800.05L4290.57,1814.04L4304.57,1814.04C4305.55,1814.04 4306.36,1814.84 4306.36,1815.83C4306.36,1816.81 4305.55,1817.61 4304.57,1817.61L4290.57,1817.61L4290.57,1831.62C4290.57,1832.61 4289.78,1833.39 4288.79,1833.39C4287.8,1833.39 4287.01,1832.61 4287.01,1831.62L4287.01,1817.61L4273.01,1817.61C4272.02,1817.61 4271.23,1816.81 4271.23,1815.83C4271.23,1814.84 4272.02,1814.04 4273.01,1814.04L4287.01,1814.04ZM4348.82,1814.04L4348.82,1800.05C4348.82,1799.06 4349.62,1798.26 4350.61,1798.26C4351.6,1798.26 4352.4,1799.06 4352.4,1800.05L4352.4,1814.04L4366.39,1814.04C4367.38,1814.04 4368.17,1814.84 4368.17,1815.83C4368.17,1816.81 4367.38,1817.61 4366.39,1817.61L4352.4,1817.61L4352.4,1831.62C4352.4,1832.61 4351.6,1833.39 4350.61,1833.39C4349.62,1833.39 4348.82,1832.61 4348.82,1831.62L4348.82,1817.61L4334.83,1817.61C4333.84,1817.61 4333.04,1816.81 4333.04,1815.83C4333.04,1814.84 4333.84,1814.04 4334.83,1814.04L4348.82,1814.04ZM3977.91,1747.71L3977.91,1733.72C3977.91,1732.72 3978.71,1731.92 3979.7,1731.92C3980.68,1731.92 3981.48,1732.72 3981.48,1733.72L3981.48,1747.71L3995.48,1747.71C3996.46,1747.71 3997.26,1748.51 3997.26,1749.48C3997.26,1750.47 3996.46,1751.27 3995.48,1751.27L3981.48,1751.27L3981.48,1765.28C3981.48,1766.26 3980.68,1767.06 3979.7,1767.06C3978.71,1767.06 3977.91,1766.26 3977.91,1765.28L3977.91,1751.27L3963.92,1751.27C3962.93,1751.27 3962.13,1750.47 3962.13,1749.48C3962.13,1748.51 3962.93,1747.71 3963.92,1747.71L3977.91,1747.71ZM3916.1,1747.71L3916.1,1733.72C3916.1,1732.72 3916.89,1731.92 3917.88,1731.92C3918.87,1731.92 3919.66,1732.72 3919.66,1733.72L3919.66,1747.71L3933.66,1747.71C3934.64,1747.71 3935.45,1748.51 3935.45,1749.48C3935.45,1750.47 3934.64,1751.27 3933.66,1751.27L3919.66,1751.27L3919.66,1765.28C3919.66,1766.26 3918.87,1767.06 3917.88,1767.06C3916.89,1767.06 3916.1,1766.26 3916.1,1765.28L3916.1,1751.27L3902.1,1751.27C3901.11,1751.27 3900.32,1750.47 3900.32,1749.48C3900.32,1748.51 3901.11,1747.71 3902.1,1747.71L3916.1,1747.71ZM4163.36,1747.71L4163.36,1733.72C4163.36,1732.72 4164.17,1731.92 4165.16,1731.92C4166.15,1731.92 4166.94,1732.72 4166.94,1733.72L4166.94,1747.71L4180.93,1747.71C4181.92,1747.71 4182.72,1748.51 4182.72,1749.48C4182.72,1750.47 4181.92,1751.27 4180.93,1751.27L4166.94,1751.27L4166.94,1765.28C4166.94,1766.26 4166.15,1767.06 4165.16,1767.06C4164.17,1767.06 4163.36,1766.26 4163.36,1765.28L4163.36,1751.27L4149.38,1751.27C4148.39,1751.27 4147.59,1750.47 4147.59,1749.48C4147.59,1748.51 4148.39,1747.71 4149.38,1747.71L4163.36,1747.71ZM4039.73,1747.71L4039.73,1733.72C4039.73,1732.72 4040.53,1731.92 4041.51,1731.92C4042.51,1731.92 4043.3,1732.72 4043.3,1733.72L4043.3,1747.71L4057.3,1747.71C4058.29,1747.71 4059.07,1748.51 4059.07,1749.48C4059.07,1750.47 4058.29,1751.27 4057.3,1751.27L4043.3,1751.27L4043.3,1765.28C4043.3,1766.26 4042.51,1767.06 4041.51,1767.06C4040.53,1767.06 4039.73,1766.26 4039.73,1765.28L4039.73,1751.27L4025.73,1751.27C4024.75,1751.27 4023.95,1750.47 4023.95,1749.48C4023.95,1748.51 4024.75,1747.71 4025.73,1747.71L4039.73,1747.71ZM4287.01,1747.71L4287.01,1733.72C4287.01,1732.72 4287.8,1731.92 4288.79,1731.92C4289.78,1731.92 4290.57,1732.72 4290.57,1733.72L4290.57,1747.71L4304.57,1747.71C4305.55,1747.71 4306.36,1748.51 4306.36,1749.48C4306.36,1750.47 4305.55,1751.27 4304.57,1751.27L4290.57,1751.27L4290.57,1765.28C4290.57,1766.26 4289.78,1767.06 4288.79,1767.06C4287.8,1767.06 4287.01,1766.26 4287.01,1765.28L4287.01,1751.27L4273.01,1751.27C4272.02,1751.27 4271.23,1750.47 4271.23,1749.48C4271.23,1748.51 4272.02,1747.71 4273.01,1747.71L4287.01,1747.71ZM4348.82,1747.71L4348.82,1733.72C4348.82,1732.72 4349.62,1731.92 4350.61,1731.92C4351.6,1731.92 4352.4,1732.72 4352.4,1733.72L4352.4,1747.71L4366.39,1747.71C4367.38,1747.71 4368.17,1748.51 4368.17,1749.48C4368.17,1750.47 4367.38,1751.27 4366.39,1751.27L4352.4,1751.27L4352.4,1765.28C4352.4,1766.26 4351.6,1767.06 4350.61,1767.06C4349.62,1767.06 4348.82,1766.26 4348.82,1765.28L4348.82,1751.27L4334.83,1751.27C4333.84,1751.27 4333.04,1750.47 4333.04,1749.48C4333.04,1748.51 4333.84,1747.71 4334.83,1747.71L4348.82,1747.71ZM3854.28,1747.71L3854.28,1733.72C3854.28,1732.72 3855.07,1731.92 3856.07,1731.92C3857.05,1731.92 3857.85,1732.72 3857.85,1733.72L3857.85,1747.71L3871.84,1747.71C3872.83,1747.71 3873.62,1748.51 3873.62,1749.48C3873.62,1750.47 3872.83,1751.27 3871.84,1751.27L3857.85,1751.27L3857.85,1765.28C3857.85,1766.26 3857.05,1767.06 3856.07,1767.06C3855.07,1767.06 3854.28,1766.26 3854.28,1765.28L3854.28,1751.27L3840.28,1751.27C3839.3,1751.27 3838.5,1750.47 3838.5,1749.48C3838.5,1748.51 3839.3,1747.71 3840.28,1747.71L3854.28,1747.71ZM4101.56,1747.71L4101.56,1733.72C4101.56,1732.72 4102.35,1731.92 4103.33,1731.92C4104.31,1731.92 4105.11,1732.72 4105.11,1733.72L4105.11,1747.71L4119.12,1747.71C4120.1,1747.71 4120.9,1748.51 4120.9,1749.48C4120.9,1750.47 4120.1,1751.27 4119.12,1751.27L4105.11,1751.27L4105.11,1765.28C4105.11,1766.26 4104.31,1767.06 4103.33,1767.06C4102.35,1767.06 4101.56,1766.26 4101.56,1765.28L4101.56,1751.27L4087.56,1751.27C4086.57,1751.27 4085.76,1750.47 4085.76,1749.48C4085.76,1748.51 4086.57,1747.71 4087.56,1747.71L4101.56,1747.71ZM4225.19,1747.71L4225.19,1733.72C4225.19,1732.72 4225.99,1731.92 4226.97,1731.92C4227.95,1731.92 4228.76,1732.72 4228.76,1733.72L4228.76,1747.71L4242.76,1747.71C4243.74,1747.71 4244.54,1748.51 4244.54,1749.48C4244.54,1750.47 4243.74,1751.27 4242.76,1751.27L4228.76,1751.27L4228.76,1765.28C4228.76,1766.26 4227.95,1767.06 4226.97,1767.06C4225.99,1767.06 4225.19,1766.26 4225.19,1765.28L4225.19,1751.27L4211.19,1751.27C4210.21,1751.27 4209.41,1750.47 4209.41,1749.48C4209.41,1748.51 4210.21,1747.71 4211.19,1747.71L4225.19,1747.71ZM4163.36,1681.38L4163.36,1667.37C4163.36,1666.38 4164.17,1665.58 4165.16,1665.58C4166.15,1665.58 4166.94,1666.38 4166.94,1667.37L4166.94,1681.38L4180.93,1681.38C4181.92,1681.38 4182.72,1682.16 4182.72,1683.13C4182.72,1684.12 4181.92,1684.92 4180.93,1684.92L4166.94,1684.92L4166.94,1698.93C4166.94,1699.91 4166.15,1700.71 4165.16,1700.71C4164.17,1700.71 4163.36,1699.91 4163.36,1698.93L4163.36,1684.92L4149.38,1684.92C4148.39,1684.92 4147.59,1684.12 4147.59,1683.13C4147.59,1682.16 4148.39,1681.38 4149.38,1681.38L4163.36,1681.38ZM3854.28,1681.38L3854.28,1667.37C3854.28,1666.38 3855.07,1665.58 3856.07,1665.58C3857.05,1665.58 3857.85,1666.38 3857.85,1667.37L3857.85,1681.38L3871.84,1681.38C3872.83,1681.38 3873.62,1682.16 3873.62,1683.13C3873.62,1684.12 3872.83,1684.92 3871.84,1684.92L3857.85,1684.92L3857.85,1698.93C3857.85,1699.91 3857.05,1700.71 3856.07,1700.71C3855.07,1700.71 3854.28,1699.91 3854.28,1698.93L3854.28,1684.92L3840.28,1684.92C3839.3,1684.92 3838.5,1684.12 3838.5,1683.13C3838.5,1682.16 3839.3,1681.38 3840.28,1681.38L3854.28,1681.38ZM4101.56,1681.38L4101.56,1667.37C4101.56,1666.38 4102.35,1665.58 4103.33,1665.58C4104.31,1665.58 4105.11,1666.38 4105.11,1667.37L4105.11,1681.38L4119.12,1681.38C4120.1,1681.38 4120.9,1682.16 4120.9,1683.13C4120.9,1684.12 4120.1,1684.92 4119.12,1684.92L4105.11,1684.92L4105.11,1698.93C4105.11,1699.91 4104.31,1700.71 4103.33,1700.71C4102.35,1700.71 4101.56,1699.91 4101.56,1698.93L4101.56,1684.92L4087.56,1684.92C4086.57,1684.92 4085.76,1684.12 4085.76,1683.13C4085.76,1682.16 4086.57,1681.38 4087.56,1681.38L4101.56,1681.38ZM3977.91,1681.38L3977.91,1667.37C3977.91,1666.38 3978.71,1665.58 3979.7,1665.58C3980.68,1665.58 3981.48,1666.38 3981.48,1667.37L3981.48,1681.38L3995.48,1681.38C3996.46,1681.38 3997.26,1682.16 3997.26,1683.13C3997.26,1684.12 3996.46,1684.92 3995.48,1684.92L3981.48,1684.92L3981.48,1698.93C3981.48,1699.91 3980.68,1700.71 3979.7,1700.71C3978.71,1700.71 3977.91,1699.91 3977.91,1698.93L3977.91,1684.92L3963.92,1684.92C3962.93,1684.92 3962.13,1684.12 3962.13,1683.13C3962.13,1682.16 3962.93,1681.38 3963.92,1681.38L3977.91,1681.38ZM3916.1,1681.38L3916.1,1667.37C3916.1,1666.38 3916.89,1665.58 3917.88,1665.58C3918.87,1665.58 3919.66,1666.38 3919.66,1667.37L3919.66,1681.38L3933.66,1681.38C3934.64,1681.38 3935.45,1682.16 3935.45,1683.13C3935.45,1684.12 3934.64,1684.92 3933.66,1684.92L3919.66,1684.92L3919.66,1698.93C3919.66,1699.91 3918.87,1700.71 3917.88,1700.71C3916.89,1700.71 3916.1,1699.91 3916.1,1698.93L3916.1,1684.92L3902.1,1684.92C3901.11,1684.92 3900.32,1684.12 3900.32,1683.13C3900.32,1682.16 3901.11,1681.38 3902.1,1681.38L3916.1,1681.38ZM4348.82,1681.38L4348.82,1667.37C4348.82,1666.38 4349.62,1665.58 4350.61,1665.58C4351.6,1665.58 4352.4,1666.38 4352.4,1667.37L4352.4,1681.38L4366.39,1681.38C4367.38,1681.38 4368.17,1682.16 4368.17,1683.13C4368.17,1684.12 4367.38,1684.92 4366.39,1684.92L4352.4,1684.92L4352.4,1698.93C4352.4,1699.91 4351.6,1700.71 4350.61,1700.71C4349.62,1700.71 4348.82,1699.91 4348.82,1698.93L4348.82,1684.92L4334.83,1684.92C4333.84,1684.92 4333.04,1684.12 4333.04,1683.13C4333.04,1682.16 4333.84,1681.38 4334.83,1681.38L4348.82,1681.38ZM4039.73,1681.38L4039.73,1667.37C4039.73,1666.38 4040.53,1665.58 4041.51,1665.58C4042.51,1665.58 4043.3,1666.38 4043.3,1667.37L4043.3,1681.38L4057.3,1681.38C4058.29,1681.38 4059.07,1682.16 4059.07,1683.13C4059.07,1684.12 4058.29,1684.92 4057.3,1684.92L4043.3,1684.92L4043.3,1698.93C4043.3,1699.91 4042.51,1700.71 4041.51,1700.71C4040.53,1700.71 4039.73,1699.91 4039.73,1698.93L4039.73,1684.92L4025.73,1684.92C4024.75,1684.92 4023.95,1684.12 4023.95,1683.13C4023.95,1682.16 4024.75,1681.38 4025.73,1681.38L4039.73,1681.38ZM4225.19,1681.38L4225.19,1667.37C4225.19,1666.38 4225.99,1665.58 4226.97,1665.58C4227.95,1665.58 4228.76,1666.38 4228.76,1667.37L4228.76,1681.38L4242.76,1681.38C4243.74,1681.38 4244.54,1682.16 4244.54,1683.13C4244.54,1684.12 4243.74,1684.92 4242.76,1684.92L4228.76,1684.92L4228.76,1698.93C4228.76,1699.91 4227.95,1700.71 4226.97,1700.71C4225.99,1700.71 4225.19,1699.91 4225.19,1698.93L4225.19,1684.92L4211.19,1684.92C4210.21,1684.92 4209.41,1684.12 4209.41,1683.13C4209.41,1682.16 4210.21,1681.38 4211.19,1681.38L4225.19,1681.38ZM4287.01,1681.38L4287.01,1667.37C4287.01,1666.38 4287.8,1665.58 4288.79,1665.58C4289.78,1665.58 4290.57,1666.38 4290.57,1667.37L4290.57,1681.38L4304.57,1681.38C4305.55,1681.38 4306.36,1682.16 4306.36,1683.13C4306.36,1684.12 4305.55,1684.92 4304.57,1684.92L4290.57,1684.92L4290.57,1698.93C4290.57,1699.91 4289.78,1700.71 4288.79,1700.71C4287.8,1700.71 4287.01,1699.91 4287.01,1698.93L4287.01,1684.92L4273.01,1684.92C4272.02,1684.92 4271.23,1684.12 4271.23,1683.13C4271.23,1682.16 4272.02,1681.38 4273.01,1681.38L4287.01,1681.38ZM4039.73,1615.03L4039.73,1601.02C4039.73,1600.05 4040.53,1599.24 4041.51,1599.24C4042.51,1599.24 4043.3,1600.05 4043.3,1601.02L4043.3,1615.03L4057.3,1615.03C4058.29,1615.03 4059.07,1615.81 4059.07,1616.8C4059.07,1617.79 4058.29,1618.59 4057.3,1618.59L4043.3,1618.59L4043.3,1632.58C4043.3,1633.57 4042.51,1634.36 4041.51,1634.36C4040.53,1634.36 4039.73,1633.57 4039.73,1632.58L4039.73,1618.59L4025.73,1618.59C4024.75,1618.59 4023.95,1617.79 4023.95,1616.8C4023.95,1615.81 4024.75,1615.03 4025.73,1615.03L4039.73,1615.03ZM4101.56,1615.03L4101.56,1601.02C4101.56,1600.05 4102.35,1599.24 4103.33,1599.24C4104.31,1599.24 4105.11,1600.05 4105.11,1601.02L4105.11,1615.03L4119.12,1615.03C4120.1,1615.03 4120.9,1615.81 4120.9,1616.8C4120.9,1617.79 4120.1,1618.59 4119.12,1618.59L4105.11,1618.59L4105.11,1632.58C4105.11,1633.57 4104.31,1634.36 4103.33,1634.36C4102.35,1634.36 4101.56,1633.57 4101.56,1632.58L4101.56,1618.59L4087.56,1618.59C4086.57,1618.59 4085.76,1617.79 4085.76,1616.8C4085.76,1615.81 4086.57,1615.03 4087.56,1615.03L4101.56,1615.03ZM3977.91,1615.03L3977.91,1601.02C3977.91,1600.05 3978.71,1599.24 3979.7,1599.24C3980.68,1599.24 3981.48,1600.05 3981.48,1601.02L3981.48,1615.03L3995.48,1615.03C3996.46,1615.03 3997.26,1615.81 3997.26,1616.8C3997.26,1617.79 3996.46,1618.59 3995.48,1618.59L3981.48,1618.59L3981.48,1632.58C3981.48,1633.57 3980.68,1634.36 3979.7,1634.36C3978.71,1634.36 3977.91,1633.57 3977.91,1632.58L3977.91,1618.59L3963.92,1618.59C3962.93,1618.59 3962.13,1617.79 3962.13,1616.8C3962.13,1615.81 3962.93,1615.03 3963.92,1615.03L3977.91,1615.03ZM4287.01,1615.03L4287.01,1601.02C4287.01,1600.05 4287.8,1599.24 4288.79,1599.24C4289.78,1599.24 4290.57,1600.05 4290.57,1601.02L4290.57,1615.03L4304.57,1615.03C4305.55,1615.03 4306.36,1615.81 4306.36,1616.8C4306.36,1617.79 4305.55,1618.59 4304.57,1618.59L4290.57,1618.59L4290.57,1632.58C4290.57,1633.57 4289.78,1634.36 4288.79,1634.36C4287.8,1634.36 4287.01,1633.57 4287.01,1632.58L4287.01,1618.59L4273.01,1618.59C4272.02,1618.59 4271.23,1617.79 4271.23,1616.8C4271.23,1615.81 4272.02,1615.03 4273.01,1615.03L4287.01,1615.03ZM4163.36,1615.03L4163.36,1601.02C4163.36,1600.05 4164.17,1599.24 4165.16,1599.24C4166.15,1599.24 4166.94,1600.05 4166.94,1601.02L4166.94,1615.03L4180.93,1615.03C4181.92,1615.03 4182.72,1615.81 4182.72,1616.8C4182.72,1617.79 4181.92,1618.59 4180.93,1618.59L4166.94,1618.59L4166.94,1632.58C4166.94,1633.57 4166.15,1634.36 4165.16,1634.36C4164.17,1634.36 4163.36,1633.57 4163.36,1632.58L4163.36,1618.59L4149.38,1618.59C4148.39,1618.59 4147.59,1617.79 4147.59,1616.8C4147.59,1615.81 4148.39,1615.03 4149.38,1615.03L4163.36,1615.03ZM3916.1,1615.03L3916.1,1601.02C3916.1,1600.05 3916.89,1599.24 3917.88,1599.24C3918.87,1599.24 3919.66,1600.05 3919.66,1601.02L3919.66,1615.03L3933.66,1615.03C3934.64,1615.03 3935.45,1615.81 3935.45,1616.8C3935.45,1617.79 3934.64,1618.59 3933.66,1618.59L3919.66,1618.59L3919.66,1632.58C3919.66,1633.57 3918.87,1634.36 3917.88,1634.36C3916.89,1634.36 3916.1,1633.57 3916.1,1632.58L3916.1,1618.59L3902.1,1618.59C3901.11,1618.59 3900.32,1617.79 3900.32,1616.8C3900.32,1615.81 3901.11,1615.03 3902.1,1615.03L3916.1,1615.03ZM4348.82,1615.03L4348.82,1601.02C4348.82,1600.05 4349.62,1599.24 4350.61,1599.24C4351.6,1599.24 4352.4,1600.05 4352.4,1601.02L4352.4,1615.03L4366.39,1615.03C4367.38,1615.03 4368.17,1615.81 4368.17,1616.8C4368.17,1617.79 4367.38,1618.59 4366.39,1618.59L4352.4,1618.59L4352.4,1632.58C4352.4,1633.57 4351.6,1634.36 4350.61,1634.36C4349.62,1634.36 4348.82,1633.57 4348.82,1632.58L4348.82,1618.59L4334.83,1618.59C4333.84,1618.59 4333.04,1617.79 4333.04,1616.8C4333.04,1615.81 4333.84,1615.03 4334.83,1615.03L4348.82,1615.03ZM3854.28,1615.03L3854.28,1601.02C3854.28,1600.05 3855.07,1599.24 3856.07,1599.24C3857.05,1599.24 3857.85,1600.05 3857.85,1601.02L3857.85,1615.03L3871.84,1615.03C3872.83,1615.03 3873.62,1615.81 3873.62,1616.8C3873.62,1617.79 3872.83,1618.59 3871.84,1618.59L3857.85,1618.59L3857.85,1632.58C3857.85,1633.57 3857.05,1634.36 3856.07,1634.36C3855.07,1634.36 3854.28,1633.57 3854.28,1632.58L3854.28,1618.59L3840.28,1618.59C3839.3,1618.59 3838.5,1617.79 3838.5,1616.8C3838.5,1615.81 3839.3,1615.03 3840.28,1615.03L3854.28,1615.03ZM4225.19,1615.03L4225.19,1601.02C4225.19,1600.05 4225.99,1599.24 4226.97,1599.24C4227.95,1599.24 4228.76,1600.05 4228.76,1601.02L4228.76,1615.03L4242.76,1615.03C4243.74,1615.03 4244.54,1615.81 4244.54,1616.8C4244.54,1617.79 4243.74,1618.59 4242.76,1618.59L4228.76,1618.59L4228.76,1632.58C4228.76,1633.57 4227.95,1634.36 4226.97,1634.36C4225.99,1634.36 4225.19,1633.57 4225.19,1632.58L4225.19,1618.59L4211.19,1618.59C4210.21,1618.59 4209.41,1617.79 4209.41,1616.8C4209.41,1615.81 4210.21,1615.03 4211.19,1615.03L4225.19,1615.03ZM4287.01,1548.68L4287.01,1534.68C4287.01,1533.69 4287.8,1532.91 4288.79,1532.91C4289.78,1532.91 4290.57,1533.69 4290.57,1534.68L4290.57,1548.68L4304.57,1548.68C4305.55,1548.68 4306.36,1549.48 4306.36,1550.47C4306.36,1551.44 4305.55,1552.24 4304.57,1552.24L4290.57,1552.24L4290.57,1566.24C4290.57,1567.22 4289.78,1568.03 4288.79,1568.03C4287.8,1568.03 4287.01,1567.22 4287.01,1566.24L4287.01,1552.24L4273.01,1552.24C4272.02,1552.24 4271.23,1551.44 4271.23,1550.47C4271.23,1549.48 4272.02,1548.68 4273.01,1548.68L4287.01,1548.68ZM3854.28,1548.68L3854.28,1534.68C3854.28,1533.69 3855.07,1532.91 3856.07,1532.91C3857.05,1532.91 3857.85,1533.69 3857.85,1534.68L3857.85,1548.68L3871.84,1548.68C3872.83,1548.68 3873.62,1549.48 3873.62,1550.47C3873.62,1551.44 3872.83,1552.24 3871.84,1552.24L3857.85,1552.24L3857.85,1566.24C3857.85,1567.22 3857.05,1568.03 3856.07,1568.03C3855.07,1568.03 3854.28,1567.22 3854.28,1566.24L3854.28,1552.24L3840.28,1552.24C3839.3,1552.24 3838.5,1551.44 3838.5,1550.47C3838.5,1549.48 3839.3,1548.68 3840.28,1548.68L3854.28,1548.68ZM4225.19,1548.68L4225.19,1534.68C4225.19,1533.69 4225.99,1532.91 4226.97,1532.91C4227.95,1532.91 4228.76,1533.69 4228.76,1534.68L4228.76,1548.68L4242.76,1548.68C4243.74,1548.68 4244.54,1549.48 4244.54,1550.47C4244.54,1551.44 4243.74,1552.24 4242.76,1552.24L4228.76,1552.24L4228.76,1566.24C4228.76,1567.22 4227.95,1568.03 4226.97,1568.03C4225.99,1568.03 4225.19,1567.22 4225.19,1566.24L4225.19,1552.24L4211.19,1552.24C4210.21,1552.24 4209.41,1551.44 4209.41,1550.47C4209.41,1549.48 4210.21,1548.68 4211.19,1548.68L4225.19,1548.68ZM4039.73,1548.68L4039.73,1534.68C4039.73,1533.69 4040.53,1532.91 4041.51,1532.91C4042.51,1532.91 4043.3,1533.69 4043.3,1534.68L4043.3,1548.68L4057.3,1548.68C4058.29,1548.68 4059.07,1549.48 4059.07,1550.47C4059.07,1551.44 4058.29,1552.24 4057.3,1552.24L4043.3,1552.24L4043.3,1566.24C4043.3,1567.22 4042.51,1568.03 4041.51,1568.03C4040.53,1568.03 4039.73,1567.22 4039.73,1566.24L4039.73,1552.24L4025.73,1552.24C4024.75,1552.24 4023.95,1551.44 4023.95,1550.47C4023.95,1549.48 4024.75,1548.68 4025.73,1548.68L4039.73,1548.68ZM3916.1,1548.68L3916.1,1534.68C3916.1,1533.69 3916.89,1532.91 3917.88,1532.91C3918.87,1532.91 3919.66,1533.69 3919.66,1534.68L3919.66,1548.68L3933.66,1548.68C3934.64,1548.68 3935.45,1549.48 3935.45,1550.47C3935.45,1551.44 3934.64,1552.24 3933.66,1552.24L3919.66,1552.24L3919.66,1566.24C3919.66,1567.22 3918.87,1568.03 3917.88,1568.03C3916.89,1568.03 3916.1,1567.22 3916.1,1566.24L3916.1,1552.24L3902.1,1552.24C3901.11,1552.24 3900.32,1551.44 3900.32,1550.47C3900.32,1549.48 3901.11,1548.68 3902.1,1548.68L3916.1,1548.68ZM3977.91,1548.68L3977.91,1534.68C3977.91,1533.69 3978.71,1532.91 3979.7,1532.91C3980.68,1532.91 3981.48,1533.69 3981.48,1534.68L3981.48,1548.68L3995.48,1548.68C3996.46,1548.68 3997.26,1549.48 3997.26,1550.47C3997.26,1551.44 3996.46,1552.24 3995.48,1552.24L3981.48,1552.24L3981.48,1566.24C3981.48,1567.22 3980.68,1568.03 3979.7,1568.03C3978.71,1568.03 3977.91,1567.22 3977.91,1566.24L3977.91,1552.24L3963.92,1552.24C3962.93,1552.24 3962.13,1551.44 3962.13,1550.47C3962.13,1549.48 3962.93,1548.68 3963.92,1548.68L3977.91,1548.68ZM4163.36,1548.68L4163.36,1534.68C4163.36,1533.69 4164.17,1532.91 4165.16,1532.91C4166.15,1532.91 4166.94,1533.69 4166.94,1534.68L4166.94,1548.68L4180.93,1548.68C4181.92,1548.68 4182.72,1549.48 4182.72,1550.47C4182.72,1551.44 4181.92,1552.24 4180.93,1552.24L4166.94,1552.24L4166.94,1566.24C4166.94,1567.22 4166.15,1568.03 4165.16,1568.03C4164.17,1568.03 4163.36,1567.22 4163.36,1566.24L4163.36,1552.24L4149.38,1552.24C4148.39,1552.24 4147.59,1551.44 4147.59,1550.47C4147.59,1549.48 4148.39,1548.68 4149.38,1548.68L4163.36,1548.68ZM4101.56,1548.68L4101.56,1534.68C4101.56,1533.69 4102.35,1532.91 4103.33,1532.91C4104.31,1532.91 4105.11,1533.69 4105.11,1534.68L4105.11,1548.68L4119.12,1548.68C4120.1,1548.68 4120.9,1549.48 4120.9,1550.47C4120.9,1551.44 4120.1,1552.24 4119.12,1552.24L4105.11,1552.24L4105.11,1566.24C4105.11,1567.22 4104.31,1568.03 4103.33,1568.03C4102.35,1568.03 4101.56,1567.22 4101.56,1566.24L4101.56,1552.24L4087.56,1552.24C4086.57,1552.24 4085.76,1551.44 4085.76,1550.47C4085.76,1549.48 4086.57,1548.68 4087.56,1548.68L4101.56,1548.68ZM4348.82,1548.68L4348.82,1534.68C4348.82,1533.69 4349.62,1532.91 4350.61,1532.91C4351.6,1532.91 4352.4,1533.69 4352.4,1534.68L4352.4,1548.68L4366.39,1548.68C4367.38,1548.68 4368.17,1549.48 4368.17,1550.47C4368.17,1551.44 4367.38,1552.24 4366.39,1552.24L4352.4,1552.24L4352.4,1566.24C4352.4,1567.22 4351.6,1568.03 4350.61,1568.03C4349.62,1568.03 4348.82,1567.22 4348.82,1566.24L4348.82,1552.24L4334.83,1552.24C4333.84,1552.24 4333.04,1551.44 4333.04,1550.47C4333.04,1549.48 4333.84,1548.68 4334.83,1548.68L4348.82,1548.68ZM4287.01,1482.33L4287.01,1468.34C4287.01,1467.36 4287.8,1466.56 4288.79,1466.56C4289.78,1466.56 4290.57,1467.36 4290.57,1468.34L4290.57,1482.33L4304.57,1482.33C4305.55,1482.33 4306.36,1483.14 4306.36,1484.12C4306.36,1485.09 4305.55,1485.89 4304.57,1485.89L4290.57,1485.89L4290.57,1499.9C4290.57,1500.89 4289.78,1501.68 4288.79,1501.68C4287.8,1501.68 4287.01,1500.89 4287.01,1499.9L4287.01,1485.89L4273.01,1485.89C4272.02,1485.89 4271.23,1485.09 4271.23,1484.12C4271.23,1483.14 4272.02,1482.33 4273.01,1482.33L4287.01,1482.33ZM4039.73,1482.33L4039.73,1468.34C4039.73,1467.36 4040.53,1466.56 4041.51,1466.56C4042.51,1466.56 4043.3,1467.36 4043.3,1468.34L4043.3,1482.33L4057.3,1482.33C4058.29,1482.33 4059.07,1483.14 4059.07,1484.12C4059.07,1485.09 4058.29,1485.89 4057.3,1485.89L4043.3,1485.89L4043.3,1499.9C4043.3,1500.89 4042.51,1501.68 4041.51,1501.68C4040.53,1501.68 4039.73,1500.89 4039.73,1499.9L4039.73,1485.89L4025.73,1485.89C4024.75,1485.89 4023.95,1485.09 4023.95,1484.12C4023.95,1483.14 4024.75,1482.33 4025.73,1482.33L4039.73,1482.33ZM3854.28,1482.33L3854.28,1468.34C3854.28,1467.36 3855.07,1466.56 3856.07,1466.56C3857.05,1466.56 3857.85,1467.36 3857.85,1468.34L3857.85,1482.33L3871.84,1482.33C3872.83,1482.33 3873.62,1483.14 3873.62,1484.12C3873.62,1485.09 3872.83,1485.89 3871.84,1485.89L3857.85,1485.89L3857.85,1499.9C3857.85,1500.89 3857.05,1501.68 3856.07,1501.68C3855.07,1501.68 3854.28,1500.89 3854.28,1499.9L3854.28,1485.89L3840.28,1485.89C3839.3,1485.89 3838.5,1485.09 3838.5,1484.12C3838.5,1483.14 3839.3,1482.33 3840.28,1482.33L3854.28,1482.33ZM4101.56,1482.33L4101.56,1468.34C4101.56,1467.36 4102.35,1466.56 4103.33,1466.56C4104.31,1466.56 4105.11,1467.36 4105.11,1468.34L4105.11,1482.33L4119.12,1482.33C4120.1,1482.33 4120.9,1483.14 4120.9,1484.12C4120.9,1485.09 4120.1,1485.89 4119.12,1485.89L4105.11,1485.89L4105.11,1499.9C4105.11,1500.89 4104.31,1501.68 4103.33,1501.68C4102.35,1501.68 4101.56,1500.89 4101.56,1499.9L4101.56,1485.89L4087.56,1485.89C4086.57,1485.89 4085.76,1485.09 4085.76,1484.12C4085.76,1483.14 4086.57,1482.33 4087.56,1482.33L4101.56,1482.33ZM3977.91,1482.33L3977.91,1468.34C3977.91,1467.36 3978.71,1466.56 3979.7,1466.56C3980.68,1466.56 3981.48,1467.36 3981.48,1468.34L3981.48,1482.33L3995.48,1482.33C3996.46,1482.33 3997.26,1483.14 3997.26,1484.12C3997.26,1485.09 3996.46,1485.89 3995.48,1485.89L3981.48,1485.89L3981.48,1499.9C3981.48,1500.89 3980.68,1501.68 3979.7,1501.68C3978.71,1501.68 3977.91,1500.89 3977.91,1499.9L3977.91,1485.89L3963.92,1485.89C3962.93,1485.89 3962.13,1485.09 3962.13,1484.12C3962.13,1483.14 3962.93,1482.33 3963.92,1482.33L3977.91,1482.33ZM4348.82,1482.33L4348.82,1468.34C4348.82,1467.36 4349.62,1466.56 4350.61,1466.56C4351.6,1466.56 4352.4,1467.36 4352.4,1468.34L4352.4,1482.33L4366.39,1482.33C4367.38,1482.33 4368.17,1483.14 4368.17,1484.12C4368.17,1485.09 4367.38,1485.89 4366.39,1485.89L4352.4,1485.89L4352.4,1499.9C4352.4,1500.89 4351.6,1501.68 4350.61,1501.68C4349.62,1501.68 4348.82,1500.89 4348.82,1499.9L4348.82,1485.89L4334.83,1485.89C4333.84,1485.89 4333.04,1485.09 4333.04,1484.12C4333.04,1483.14 4333.84,1482.33 4334.83,1482.33L4348.82,1482.33ZM4225.19,1482.33L4225.19,1468.34C4225.19,1467.36 4225.99,1466.56 4226.97,1466.56C4227.95,1466.56 4228.76,1467.36 4228.76,1468.34L4228.76,1482.33L4242.76,1482.33C4243.74,1482.33 4244.54,1483.14 4244.54,1484.12C4244.54,1485.09 4243.74,1485.89 4242.76,1485.89L4228.76,1485.89L4228.76,1499.9C4228.76,1500.89 4227.95,1501.68 4226.97,1501.68C4225.99,1501.68 4225.19,1500.89 4225.19,1499.9L4225.19,1485.89L4211.19,1485.89C4210.21,1485.89 4209.41,1485.09 4209.41,1484.12C4209.41,1483.14 4210.21,1482.33 4211.19,1482.33L4225.19,1482.33ZM4163.36,1482.33L4163.36,1468.34C4163.36,1467.36 4164.17,1466.56 4165.16,1466.56C4166.15,1466.56 4166.94,1467.36 4166.94,1468.34L4166.94,1482.33L4180.93,1482.33C4181.92,1482.33 4182.72,1483.14 4182.72,1484.12C4182.72,1485.09 4181.92,1485.89 4180.93,1485.89L4166.94,1485.89L4166.94,1499.9C4166.94,1500.89 4166.15,1501.68 4165.16,1501.68C4164.17,1501.68 4163.36,1500.89 4163.36,1499.9L4163.36,1485.89L4149.38,1485.89C4148.39,1485.89 4147.59,1485.09 4147.59,1484.12C4147.59,1483.14 4148.39,1482.33 4149.38,1482.33L4163.36,1482.33ZM3916.1,1482.33L3916.1,1468.34C3916.1,1467.36 3916.89,1466.56 3917.88,1466.56C3918.87,1466.56 3919.66,1467.36 3919.66,1468.34L3919.66,1482.33L3933.66,1482.33C3934.64,1482.33 3935.45,1483.14 3935.45,1484.12C3935.45,1485.09 3934.64,1485.89 3933.66,1485.89L3919.66,1485.89L3919.66,1499.9C3919.66,1500.89 3918.87,1501.68 3917.88,1501.68C3916.89,1501.68 3916.1,1500.89 3916.1,1499.9L3916.1,1485.89L3902.1,1485.89C3901.11,1485.89 3900.32,1485.09 3900.32,1484.12C3900.32,1483.14 3901.11,1482.33 3902.1,1482.33L3916.1,1482.33ZM3854.28,1416.01L3854.28,1402.01C3854.28,1401.01 3855.07,1400.21 3856.07,1400.21C3857.05,1400.21 3857.85,1401.01 3857.85,1402.01L3857.85,1416.01L3871.84,1416.01C3872.83,1416.01 3873.62,1416.8 3873.62,1417.77C3873.62,1418.76 3872.83,1419.56 3871.84,1419.56L3857.85,1419.56L3857.85,1433.57C3857.85,1434.54 3857.05,1435.34 3856.07,1435.34C3855.07,1435.34 3854.28,1434.54 3854.28,1433.57L3854.28,1419.56L3840.28,1419.56C3839.3,1419.56 3838.5,1418.76 3838.5,1417.77C3838.5,1416.8 3839.3,1416.01 3840.28,1416.01L3854.28,1416.01ZM4287.01,1416.01L4287.01,1402.01C4287.01,1401.01 4287.8,1400.21 4288.79,1400.21C4289.78,1400.21 4290.57,1401.01 4290.57,1402.01L4290.57,1416.01L4304.57,1416.01C4305.55,1416.01 4306.36,1416.8 4306.36,1417.77C4306.36,1418.76 4305.55,1419.56 4304.57,1419.56L4290.57,1419.56L4290.57,1433.57C4290.57,1434.54 4289.78,1435.34 4288.79,1435.34C4287.8,1435.34 4287.01,1434.54 4287.01,1433.57L4287.01,1419.56L4273.01,1419.56C4272.02,1419.56 4271.23,1418.76 4271.23,1417.77C4271.23,1416.8 4272.02,1416.01 4273.01,1416.01L4287.01,1416.01ZM4348.82,1416.01L4348.82,1402.01C4348.82,1401.01 4349.62,1400.21 4350.61,1400.21C4351.6,1400.21 4352.4,1401.01 4352.4,1402.01L4352.4,1416.01L4366.39,1416.01C4367.38,1416.01 4368.17,1416.8 4368.17,1417.77C4368.17,1418.76 4367.38,1419.56 4366.39,1419.56L4352.4,1419.56L4352.4,1433.57C4352.4,1434.54 4351.6,1435.34 4350.61,1435.34C4349.62,1435.34 4348.82,1434.54 4348.82,1433.57L4348.82,1419.56L4334.83,1419.56C4333.84,1419.56 4333.04,1418.76 4333.04,1417.77C4333.04,1416.8 4333.84,1416.01 4334.83,1416.01L4348.82,1416.01ZM3916.1,1416.01L3916.1,1402.01C3916.1,1401.01 3916.89,1400.21 3917.88,1400.21C3918.87,1400.21 3919.66,1401.01 3919.66,1402.01L3919.66,1416.01L3933.66,1416.01C3934.64,1416.01 3935.45,1416.8 3935.45,1417.77C3935.45,1418.76 3934.64,1419.56 3933.66,1419.56L3919.66,1419.56L3919.66,1433.57C3919.66,1434.54 3918.87,1435.34 3917.88,1435.34C3916.89,1435.34 3916.1,1434.54 3916.1,1433.57L3916.1,1419.56L3902.1,1419.56C3901.11,1419.56 3900.32,1418.76 3900.32,1417.77C3900.32,1416.8 3901.11,1416.01 3902.1,1416.01L3916.1,1416.01ZM3977.91,1416.01L3977.91,1402.01C3977.91,1401.01 3978.71,1400.21 3979.7,1400.21C3980.68,1400.21 3981.48,1401.01 3981.48,1402.01L3981.48,1416.01L3995.48,1416.01C3996.46,1416.01 3997.26,1416.8 3997.26,1417.77C3997.26,1418.76 3996.46,1419.56 3995.48,1419.56L3981.48,1419.56L3981.48,1433.57C3981.48,1434.54 3980.68,1435.34 3979.7,1435.34C3978.71,1435.34 3977.91,1434.54 3977.91,1433.57L3977.91,1419.56L3963.92,1419.56C3962.93,1419.56 3962.13,1418.76 3962.13,1417.77C3962.13,1416.8 3962.93,1416.01 3963.92,1416.01L3977.91,1416.01ZM4039.73,1416.01L4039.73,1402.01C4039.73,1401.01 4040.53,1400.21 4041.51,1400.21C4042.51,1400.21 4043.3,1401.01 4043.3,1402.01L4043.3,1416.01L4057.3,1416.01C4058.29,1416.01 4059.07,1416.8 4059.07,1417.77C4059.07,1418.76 4058.29,1419.56 4057.3,1419.56L4043.3,1419.56L4043.3,1433.57C4043.3,1434.54 4042.51,1435.34 4041.51,1435.34C4040.53,1435.34 4039.73,1434.54 4039.73,1433.57L4039.73,1419.56L4025.73,1419.56C4024.75,1419.56 4023.95,1418.76 4023.95,1417.77C4023.95,1416.8 4024.75,1416.01 4025.73,1416.01L4039.73,1416.01ZM4101.56,1416.01L4101.56,1402.01C4101.56,1401.01 4102.35,1400.21 4103.33,1400.21C4104.31,1400.21 4105.11,1401.01 4105.11,1402.01L4105.11,1416.01L4119.12,1416.01C4120.1,1416.01 4120.9,1416.8 4120.9,1417.77C4120.9,1418.76 4120.1,1419.56 4119.12,1419.56L4105.11,1419.56L4105.11,1433.57C4105.11,1434.54 4104.31,1435.34 4103.33,1435.34C4102.35,1435.34 4101.56,1434.54 4101.56,1433.57L4101.56,1419.56L4087.56,1419.56C4086.57,1419.56 4085.76,1418.76 4085.76,1417.77C4085.76,1416.8 4086.57,1416.01 4087.56,1416.01L4101.56,1416.01ZM4163.36,1416.01L4163.36,1402.01C4163.36,1401.01 4164.17,1400.21 4165.16,1400.21C4166.15,1400.21 4166.94,1401.01 4166.94,1402.01L4166.94,1416.01L4180.93,1416.01C4181.92,1416.01 4182.72,1416.8 4182.72,1417.77C4182.72,1418.76 4181.92,1419.56 4180.93,1419.56L4166.94,1419.56L4166.94,1433.57C4166.94,1434.54 4166.15,1435.34 4165.16,1435.34C4164.17,1435.34 4163.36,1434.54 4163.36,1433.57L4163.36,1419.56L4149.38,1419.56C4148.39,1419.56 4147.59,1418.76 4147.59,1417.77C4147.59,1416.8 4148.39,1416.01 4149.38,1416.01L4163.36,1416.01ZM4225.19,1416.01L4225.19,1402.01C4225.19,1401.01 4225.99,1400.21 4226.97,1400.21C4227.95,1400.21 4228.76,1401.01 4228.76,1402.01L4228.76,1416.01L4242.76,1416.01C4243.74,1416.01 4244.54,1416.8 4244.54,1417.77C4244.54,1418.76 4243.74,1419.56 4242.76,1419.56L4228.76,1419.56L4228.76,1433.57C4228.76,1434.54 4227.95,1435.34 4226.97,1435.34C4225.99,1435.34 4225.19,1434.54 4225.19,1433.57L4225.19,1419.56L4211.19,1419.56C4210.21,1419.56 4209.41,1418.76 4209.41,1417.77C4209.41,1416.8 4210.21,1416.01 4211.19,1416.01L4225.19,1416.01ZM3854.28,1349.66L3854.28,1335.65C3854.28,1334.66 3855.07,1333.86 3856.07,1333.86C3857.05,1333.86 3857.85,1334.66 3857.85,1335.65L3857.85,1349.66L3871.84,1349.66C3872.83,1349.66 3873.62,1350.45 3873.62,1351.44C3873.62,1352.43 3872.83,1353.23 3871.84,1353.23L3857.85,1353.23L3857.85,1367.22C3857.85,1368.19 3857.05,1369 3856.07,1369C3855.07,1369 3854.28,1368.19 3854.28,1367.22L3854.28,1353.23L3840.28,1353.23C3839.3,1353.23 3838.5,1352.43 3838.5,1351.44C3838.5,1350.45 3839.3,1349.66 3840.28,1349.66L3854.28,1349.66ZM3916.1,1349.66L3916.1,1335.65C3916.1,1334.66 3916.89,1333.86 3917.88,1333.86C3918.87,1333.86 3919.66,1334.66 3919.66,1335.65L3919.66,1349.66L3933.66,1349.66C3934.64,1349.66 3935.45,1350.45 3935.45,1351.44C3935.45,1352.43 3934.64,1353.23 3933.66,1353.23L3919.66,1353.23L3919.66,1367.22C3919.66,1368.19 3918.87,1369 3917.88,1369C3916.89,1369 3916.1,1368.19 3916.1,1367.22L3916.1,1353.23L3902.1,1353.23C3901.11,1353.23 3900.32,1352.43 3900.32,1351.44C3900.32,1350.45 3901.11,1349.66 3902.1,1349.66L3916.1,1349.66ZM3977.91,1349.66L3977.91,1335.65C3977.91,1334.66 3978.71,1333.86 3979.7,1333.86C3980.68,1333.86 3981.48,1334.66 3981.48,1335.65L3981.48,1349.66L3995.48,1349.66C3996.46,1349.66 3997.26,1350.45 3997.26,1351.44C3997.26,1352.43 3996.46,1353.23 3995.48,1353.23L3981.48,1353.23L3981.48,1367.22C3981.48,1368.19 3980.68,1369 3979.7,1369C3978.71,1369 3977.91,1368.19 3977.91,1367.22L3977.91,1353.23L3963.92,1353.23C3962.93,1353.23 3962.13,1352.43 3962.13,1351.44C3962.13,1350.45 3962.93,1349.66 3963.92,1349.66L3977.91,1349.66ZM4039.73,1349.66L4039.73,1335.65C4039.73,1334.66 4040.53,1333.86 4041.51,1333.86C4042.51,1333.86 4043.3,1334.66 4043.3,1335.65L4043.3,1349.66L4057.3,1349.66C4058.29,1349.66 4059.07,1350.45 4059.07,1351.44C4059.07,1352.43 4058.29,1353.23 4057.3,1353.23L4043.3,1353.23L4043.3,1367.22C4043.3,1368.19 4042.51,1369 4041.51,1369C4040.53,1369 4039.73,1368.19 4039.73,1367.22L4039.73,1353.23L4025.73,1353.23C4024.75,1353.23 4023.95,1352.43 4023.95,1351.44C4023.95,1350.45 4024.75,1349.66 4025.73,1349.66L4039.73,1349.66ZM4101.56,1349.66L4101.56,1335.65C4101.56,1334.66 4102.35,1333.86 4103.33,1333.86C4104.31,1333.86 4105.11,1334.66 4105.11,1335.65L4105.11,1349.66L4119.12,1349.66C4120.1,1349.66 4120.9,1350.45 4120.9,1351.44C4120.9,1352.43 4120.1,1353.23 4119.12,1353.23L4105.11,1353.23L4105.11,1367.22C4105.11,1368.19 4104.31,1369 4103.33,1369C4102.35,1369 4101.56,1368.19 4101.56,1367.22L4101.56,1353.23L4087.56,1353.23C4086.57,1353.23 4085.76,1352.43 4085.76,1351.44C4085.76,1350.45 4086.57,1349.66 4087.56,1349.66L4101.56,1349.66ZM4163.36,1349.66L4163.36,1335.65C4163.36,1334.66 4164.17,1333.86 4165.16,1333.86C4166.15,1333.86 4166.94,1334.66 4166.94,1335.65L4166.94,1349.66L4180.93,1349.66C4181.92,1349.66 4182.72,1350.45 4182.72,1351.44C4182.72,1352.43 4181.92,1353.23 4180.93,1353.23L4166.94,1353.23L4166.94,1367.22C4166.94,1368.19 4166.15,1369 4165.16,1369C4164.17,1369 4163.36,1368.19 4163.36,1367.22L4163.36,1353.23L4149.38,1353.23C4148.39,1353.23 4147.59,1352.43 4147.59,1351.44C4147.59,1350.45 4148.39,1349.66 4149.38,1349.66L4163.36,1349.66ZM4225.19,1349.66L4225.19,1335.65C4225.19,1334.66 4225.99,1333.86 4226.97,1333.86C4227.95,1333.86 4228.76,1334.66 4228.76,1335.65L4228.76,1349.66L4242.76,1349.66C4243.74,1349.66 4244.54,1350.45 4244.54,1351.44C4244.54,1352.43 4243.74,1353.23 4242.76,1353.23L4228.76,1353.23L4228.76,1367.22C4228.76,1368.19 4227.95,1369 4226.97,1369C4225.99,1369 4225.19,1368.19 4225.19,1367.22L4225.19,1353.23L4211.19,1353.23C4210.21,1353.23 4209.41,1352.43 4209.41,1351.44C4209.41,1350.45 4210.21,1349.66 4211.19,1349.66L4225.19,1349.66ZM4287.01,1349.66L4287.01,1335.65C4287.01,1334.66 4287.8,1333.86 4288.79,1333.86C4289.78,1333.86 4290.57,1334.66 4290.57,1335.65L4290.57,1349.66L4304.57,1349.66C4305.55,1349.66 4306.36,1350.45 4306.36,1351.44C4306.36,1352.43 4305.55,1353.23 4304.57,1353.23L4290.57,1353.23L4290.57,1367.22C4290.57,1368.19 4289.78,1369 4288.79,1369C4287.8,1369 4287.01,1368.19 4287.01,1367.22L4287.01,1353.23L4273.01,1353.23C4272.02,1353.23 4271.23,1352.43 4271.23,1351.44C4271.23,1350.45 4272.02,1349.66 4273.01,1349.66L4287.01,1349.66ZM4348.82,1349.66L4348.82,1335.65C4348.82,1334.66 4349.62,1333.86 4350.61,1333.86C4351.6,1333.86 4352.4,1334.66 4352.4,1335.65L4352.4,1349.66L4366.39,1349.66C4367.38,1349.66 4368.17,1350.45 4368.17,1351.44C4368.17,1352.43 4367.38,1353.23 4366.39,1353.23L4352.4,1353.23L4352.4,1367.22C4352.4,1368.19 4351.6,1369 4350.61,1369C4349.62,1369 4348.82,1368.19 4348.82,1367.22L4348.82,1353.23L4334.83,1353.23C4333.84,1353.23 4333.04,1352.43 4333.04,1351.44C4333.04,1350.45 4333.84,1349.66 4334.83,1349.66L4348.82,1349.66Z" style="fill:rgb(255,255,255);"/>
                </g>
            </g>
        </g>
    </g>
</svg>
